<svg xmlns="http://www.w3.org/2000/svg" xmlns:xlink="http://www.w3.org/1999/xlink" width="500" zoomAndPan="magnify" viewBox="0 0 375 374.999991" height="500" preserveAspectRatio="xMidYMid meet" version="1.0"><defs><clipPath id="8be9702fa6"><path d="M 313.085938 19.128906 L 316 19.128906 L 316 21.378906 L 313.085938 21.378906 Z M 313.085938 19.128906 " clip-rule="nonzero"/></clipPath><clipPath id="acc71cb356"><path d="M 313.085938 20 L 315 20 L 315 21.378906 L 313.085938 21.378906 Z M 313.085938 20 " clip-rule="nonzero"/></clipPath><clipPath id="1fbd45d43e"><path d="M 118.699219 112.527344 L 268.699219 112.527344 L 268.699219 224.277344 L 118.699219 224.277344 Z M 118.699219 112.527344 " clip-rule="nonzero"/></clipPath></defs><g clip-path="url(#8be9702fa6)"><path fill="#3f6db4" d="M 313.464844 19.363281 C 313.472656 19.261719 313.507812 19.214844 313.605469 19.179688 C 313.710938 19.140625 313.875 19.160156 314.070312 19.230469 C 314.15625 19.261719 314.164062 19.261719 314.3125 19.246094 C 314.507812 19.230469 314.761719 19.230469 314.945312 19.246094 C 315.082031 19.261719 315.089844 19.261719 315.175781 19.230469 C 315.453125 19.128906 315.671875 19.136719 315.753906 19.246094 C 315.792969 19.304688 315.800781 19.449219 315.769531 19.570312 C 315.75 19.636719 315.753906 19.644531 315.792969 19.6875 C 316.085938 19.996094 315.875 20.492188 315.378906 20.679688 C 315.34375 20.695312 315.308594 20.703125 315.285156 20.710938 C 315.203125 20.730469 315.179688 20.738281 315.210938 20.839844 C 315.222656 20.890625 315.242188 21.011719 315.246094 21.109375 C 315.257812 21.289062 315.257812 21.289062 315.214844 21.328125 C 315.15625 21.378906 315.070312 21.378906 315.011719 21.328125 C 314.972656 21.296875 314.96875 21.28125 314.96875 21.160156 C 314.96875 20.980469 314.941406 20.859375 314.878906 20.753906 C 314.800781 20.632812 314.859375 20.585938 315.035156 20.558594 C 315.28125 20.519531 315.472656 20.410156 315.578125 20.25 C 315.679688 20.09375 315.695312 19.878906 315.511719 19.75 C 315.460938 19.703125 315.457031 19.664062 315.496094 19.539062 C 315.507812 19.496094 315.519531 19.4375 315.519531 19.410156 C 315.519531 19.367188 315.515625 19.363281 315.480469 19.363281 C 315.457031 19.363281 315.371094 19.386719 315.289062 19.414062 L 315.15625 19.460938 C 315.144531 19.464844 315.132812 19.464844 315.117188 19.464844 C 314.785156 19.4375 314.464844 19.4375 314.128906 19.464844 C 314.117188 19.464844 314.101562 19.464844 314.089844 19.460938 L 313.957031 19.414062 C 313.875 19.386719 313.789062 19.363281 313.769531 19.363281 C 313.714844 19.363281 313.714844 19.390625 313.761719 19.554688 C 313.792969 19.652344 313.8125 19.675781 313.726562 19.757812 C 313.601562 19.878906 313.570312 20.027344 313.636719 20.183594 C 313.722656 20.382812 313.929688 20.515625 314.222656 20.558594 C 314.398438 20.585938 314.445312 20.621094 314.375 20.769531 C 314.324219 20.882812 314.289062 20.910156 314.214844 20.910156 C 314.109375 20.910156 314.046875 20.847656 314.082031 20.78125 C 314.097656 20.75 314.09375 20.746094 313.996094 20.722656 C 313.699219 20.644531 313.472656 20.46875 313.371094 20.238281 C 313.289062 20.0625 313.324219 19.832031 313.453125 19.691406 C 313.496094 19.644531 313.496094 19.640625 313.476562 19.546875 C 313.464844 19.496094 313.460938 19.414062 313.464844 19.363281 Z M 313.464844 19.363281 " fill-opacity="1" fill-rule="nonzero"/></g><g clip-path="url(#acc71cb356)"><path fill="#3f6db4" d="M 313.359375 20.664062 C 313.316406 20.617188 313.230469 20.605469 313.167969 20.636719 C 313.105469 20.664062 313.085938 20.726562 313.128906 20.773438 C 313.160156 20.808594 313.199219 20.835938 313.230469 20.859375 C 313.234375 20.863281 313.242188 20.867188 313.246094 20.871094 C 313.273438 20.890625 313.296875 20.90625 313.320312 20.929688 C 313.375 20.972656 313.425781 21.03125 313.457031 21.140625 C 313.46875 21.1875 313.515625 21.214844 313.542969 21.222656 C 313.570312 21.238281 313.601562 21.242188 313.628906 21.25 C 313.683594 21.257812 313.746094 21.261719 313.804688 21.265625 C 313.871094 21.269531 313.945312 21.269531 314.007812 21.269531 C 314.007812 21.324219 314.070312 21.371094 314.148438 21.371094 C 314.226562 21.371094 314.289062 21.324219 314.289062 21.269531 L 314.289062 21.171875 C 314.289062 21.113281 314.226562 21.070312 314.148438 21.070312 C 314.136719 21.070312 314.121094 21.070312 314.105469 21.070312 C 314.023438 21.070312 313.917969 21.070312 313.824219 21.066406 C 313.78125 21.0625 313.742188 21.0625 313.714844 21.058594 C 313.671875 20.9375 313.605469 20.859375 313.53125 20.796875 C 313.5 20.769531 313.46875 20.746094 313.441406 20.726562 C 313.4375 20.722656 313.429688 20.722656 313.425781 20.71875 C 313.394531 20.695312 313.375 20.679688 313.359375 20.664062 Z M 313.359375 20.664062 " fill-opacity="1" fill-rule="nonzero"/></g><g clip-path="url(#1fbd45d43e)"><path fill="#5cc6d0" d="M 120.007812 178.574219 C 121.121094 174.984375 121.121094 174.984375 122.976562 170.867188 C 122.933594 170.65625 122.914062 170.445312 122.914062 170.234375 C 122.910156 170.023438 122.914062 169.878906 122.933594 169.738281 C 121.378906 167.292969 121.378906 167.292969 120.210938 165.070312 C 120.144531 165.433594 120.046875 165.652344 119.945312 165.71875 C 119.792969 165.710938 119.695312 165.191406 119.730469 164.453125 C 119.761719 163.789062 119.910156 163.207031 120.066406 163.144531 C 120.214844 163.15625 120.316406 163.605469 120.292969 164.265625 C 122.914062 164.214844 122.914062 164.214844 126.863281 164.210938 C 127.964844 157.90625 127.964844 157.90625 129.386719 151.699219 C 129.234375 151.449219 129.167969 151.019531 129.234375 150.550781 C 129.355469 149.753906 129.808594 148.984375 130.242188 148.839844 C 130.414062 148.824219 130.566406 148.875 130.6875 148.980469 C 137.136719 143.59375 137.136719 143.59375 145.128906 137.972656 C 147.976562 134.449219 147.976562 134.449219 150.941406 130.984375 C 152.15625 128.59375 152.15625 128.59375 153.378906 126.277344 C 153.21875 126.195312 153.132812 126.019531 153.214844 125.757812 C 153.285156 125.40625 153.667969 125.035156 154.0625 124.9375 C 154.457031 124.847656 154.722656 125.058594 154.605469 125.457031 C 154.535156 125.816406 154.160156 126.179688 153.765625 126.269531 C 153.71875 126.300781 153.710938 126.292969 153.703125 126.28125 C 152.449219 128.636719 152.449219 128.636719 151.246094 131.03125 C 151.210938 131.078125 151.210938 131.078125 151.179688 131.125 C 148.226562 134.566406 148.226562 134.566406 145.421875 138.023438 C 149.292969 142.164062 149.292969 142.164062 153.875 146.835938 C 155.085938 141.941406 155.085938 141.941406 156.386719 137.207031 C 155.738281 137.109375 155.367188 136.53125 155.453125 135.816406 C 155.585938 134.917969 156.402344 134.082031 157.28125 133.941406 C 157.71875 133.875 158.074219 134.015625 158.320312 134.261719 C 165.089844 128.796875 172.019531 123.691406 178.953125 119.015625 C 178.789062 118.828125 178.71875 118.59375 178.753906 118.339844 C 178.804688 117.945312 179.035156 117.589844 179.460938 117.3125 C 177.675781 115.433594 177.675781 115.433594 176.015625 113.683594 C 175.960938 113.707031 175.847656 113.734375 175.734375 113.75 C 175.265625 113.804688 174.945312 113.585938 175.023438 113.265625 C 175.046875 112.96875 175.453125 112.679688 175.925781 112.621094 C 176.402344 112.566406 176.710938 112.777344 176.679688 113.082031 C 176.605469 113.242188 176.523438 113.375 176.378906 113.488281 C 178.027344 115.238281 178.027344 115.238281 179.792969 117.121094 C 180.042969 117.007812 180.351562 116.925781 180.621094 116.910156 C 181.597656 116.84375 182.363281 117.367188 182.308594 118.089844 C 182.285156 118.226562 182.257812 118.355469 182.183594 118.484375 C 187.460938 120.015625 187.460938 120.015625 192.925781 121.773438 C 204.667969 121.136719 204.667969 121.136719 215.777344 121.164062 C 215.707031 120.4375 216.351562 119.933594 217.261719 120.046875 C 218.222656 120.191406 219.03125 120.875 219.179688 121.632812 C 219.214844 121.789062 219.203125 121.921875 219.144531 122.03125 C 227.617188 126.417969 227.617188 126.417969 235.546875 131.109375 C 237.117188 129.625 237.117188 129.625 238.519531 128.199219 C 238.453125 125.394531 238.453125 125.394531 238.292969 122.777344 C 237.789062 122.46875 237.324219 121.933594 237.164062 121.441406 C 236.953125 120.808594 237.335938 120.488281 237.960938 120.671875 C 238.632812 120.914062 239.339844 121.605469 239.558594 122.230469 C 239.761719 122.859375 239.410156 123.207031 238.777344 123.015625 C 238.714844 122.992188 238.652344 122.960938 238.59375 122.929688 C 238.738281 125.378906 238.738281 125.378906 238.824219 128.003906 C 243.285156 125.503906 243.285156 125.503906 246.691406 123.738281 C 246.652344 123.675781 246.621094 123.613281 246.59375 123.546875 C 246.484375 123.273438 246.5625 123.113281 246.824219 123.257812 C 247.085938 123.402344 247.371094 123.714844 247.480469 123.988281 C 247.589844 124.261719 247.511719 124.417969 247.246094 124.277344 C 247.164062 124.253906 247.050781 124.167969 246.90625 124.011719 C 243.558594 125.789062 243.558594 125.789062 239.164062 128.277344 C 243.710938 129.363281 243.710938 129.363281 247.703125 130.53125 C 247.507812 129.855469 247.765625 129.503906 248.277344 129.714844 C 248.792969 129.929688 249.390625 130.664062 249.601562 131.339844 C 249.84375 132.066406 249.601562 132.46875 249.074219 132.253906 C 248.578125 132.023438 248.046875 131.421875 247.785156 130.796875 C 243.597656 129.613281 243.597656 129.613281 238.800781 128.515625 C 234.179688 133.066406 234.179688 133.066406 228.5 138.667969 C 228.699219 138.925781 228.863281 139.269531 228.933594 139.632812 C 238.542969 141.578125 238.542969 141.578125 246.695312 143.722656 C 246.679688 143.011719 247.054688 142.5625 247.613281 142.691406 C 248.191406 142.816406 248.769531 143.550781 248.941406 144.339844 C 252.542969 145.457031 255.648438 146.5 258.351562 147.632812 C 258.261719 146.941406 258.46875 146.585938 258.796875 146.691406 C 259.027344 146.757812 259.285156 147.109375 259.480469 147.558594 C 260.421875 146.882812 260.421875 146.882812 261.261719 146.304688 C 261.242188 146.238281 261.222656 146.167969 261.207031 146.097656 C 261.113281 145.675781 261.167969 145.355469 261.34375 145.445312 C 261.542969 145.605469 261.773438 146.058594 261.867188 146.484375 C 261.957031 146.90625 261.90625 147.226562 261.726562 147.132812 C 261.601562 147.023438 261.472656 146.835938 261.386719 146.640625 C 260.542969 147.210938 260.542969 147.210938 259.597656 147.882812 C 259.640625 148.015625 259.675781 148.152344 259.71875 148.355469 C 259.851562 149.109375 259.664062 149.597656 259.308594 149.488281 C 259.25 149.433594 259.214844 149.441406 259.164062 149.386719 C 259.03125 156.035156 259.03125 156.035156 258.402344 163.121094 C 258.679688 163.425781 258.886719 164 258.90625 164.589844 C 258.917969 164.984375 258.855469 165.382812 258.734375 165.652344 C 261.234375 171.902344 261.234375 171.902344 262.992188 177.660156 C 263.09375 177.460938 263.203125 177.332031 263.304688 177.34375 C 263.464844 177.292969 263.589844 177.453125 263.652344 177.742188 C 265.585938 173.980469 265.585938 173.980469 266.996094 170.542969 C 266.984375 170.394531 266.976562 170.175781 266.980469 170.027344 C 266.984375 169.441406 267.097656 168.925781 267.230469 168.925781 C 267.359375 168.925781 267.457031 169.367188 267.449219 170.035156 C 267.441406 170.625 267.332031 171.140625 267.203125 171.140625 C 267.128906 171.136719 267.070312 170.988281 267.027344 170.765625 C 265.625 174.203125 265.625 174.203125 263.6875 178.03125 C 263.703125 178.109375 263.703125 178.25 263.699219 178.394531 C 267.175781 176.621094 267.175781 176.621094 268.609375 175.179688 C 268.640625 174.804688 268.671875 174.582031 268.691406 174.503906 C 268.703125 174.503906 268.6875 174.808594 268.65625 175.183594 C 268.625 175.558594 268.589844 175.859375 268.582031 175.859375 C 268.5625 175.933594 268.570312 175.707031 268.59375 175.402344 C 267.152344 176.914062 267.152344 176.914062 263.679688 178.675781 C 263.664062 178.816406 263.640625 178.957031 263.609375 179.09375 C 265.789062 182.6875 265.789062 182.6875 266.722656 185.386719 C 266.800781 185.097656 266.890625 184.8125 266.941406 184.746094 C 267.027344 184.609375 266.996094 184.988281 266.875 185.578125 C 266.746094 186.167969 266.578125 186.746094 266.496094 186.878906 C 266.40625 187.015625 266.4375 186.632812 266.5625 186.046875 C 266.59375 185.898438 266.628906 185.753906 266.644531 185.679688 C 265.726562 182.898438 265.726562 182.898438 263.535156 179.371094 C 263.402344 179.78125 263.21875 180.109375 263.046875 180.152344 C 262.886719 180.199219 262.757812 180.035156 262.695312 179.742188 C 251.71875 193.964844 251.71875 193.964844 234.40625 209.445312 C 234.386719 209.589844 234.410156 209.691406 234.382812 209.828125 C 234.183594 210.617188 233.433594 211.355469 232.648438 211.535156 C 231.820312 211.738281 231.308594 211.253906 231.5 210.449219 C 231.53125 210.320312 231.574219 210.195312 231.617188 210.082031 C 226.246094 206.554688 220.039062 202.351562 213.109375 197.46875 C 215.144531 206.398438 215.144531 206.398438 216.777344 214.222656 C 220.621094 215.992188 220.621094 215.992188 224.167969 217.539062 C 224.390625 217.347656 224.648438 217.214844 224.949219 217.148438 C 225.5 217.042969 225.835938 217.335938 225.71875 217.792969 C 225.644531 218.214844 225.097656 218.675781 224.542969 218.789062 C 224.039062 218.867188 223.671875 218.601562 223.746094 218.167969 C 223.804688 218.035156 223.816406 217.949219 223.933594 217.8125 C 220.515625 216.355469 220.515625 216.355469 216.839844 214.679688 C 217.296875 219.132812 217.296875 219.132812 217.65625 223.074219 C 218.085938 223.011719 218.316406 223.230469 218.257812 223.53125 C 218.195312 223.835938 217.800781 224.132812 217.371094 224.203125 C 216.9375 224.269531 216.660156 224.070312 216.722656 223.761719 C 216.757812 223.542969 216.988281 223.316406 217.253906 223.195312 C 216.902344 219.199219 216.902344 219.199219 216.441406 214.683594 C 211.675781 218.496094 211.675781 218.496094 207.011719 221.980469 C 207.097656 222.101562 207.136719 222.25 207.121094 222.410156 C 207.113281 222.832031 206.578125 223.21875 205.957031 223.265625 C 205.339844 223.3125 204.871094 223 204.894531 222.574219 C 204.96875 222.128906 205.496094 221.738281 206.097656 221.699219 C 206.371094 221.671875 206.550781 221.71875 206.738281 221.792969 C 211.519531 218.214844 211.519531 218.214844 216.367188 214.320312 C 214.660156 206.332031 214.660156 206.332031 212.550781 197.195312 C 207.097656 198.460938 207.097656 198.460938 201.546875 199.65625 C 201.539062 199.765625 201.566406 199.867188 201.5625 199.976562 C 201.503906 201.480469 200.171875 202.703125 198.503906 202.738281 C 197.296875 202.757812 196.28125 202.121094 195.8125 201.1875 C 187.066406 203.941406 187.066406 203.941406 178.652344 206.328125 C 178.691406 206.449219 178.726562 206.578125 178.722656 206.703125 C 178.804688 207.628906 178.003906 208.308594 176.976562 208.246094 C 175.933594 208.171875 175.066406 207.390625 174.992188 206.480469 C 174.929688 205.945312 175.160156 205.484375 175.570312 205.203125 C 166.945312 192.605469 166.945312 192.605469 158.78125 179.222656 C 158.738281 179.234375 158.691406 179.25 158.636719 179.226562 C 158.023438 179.214844 157.472656 178.832031 157.140625 178.261719 C 152.507812 182.722656 152.507812 182.722656 148.335938 186.851562 C 148.507812 187.148438 148.640625 187.515625 148.667969 187.871094 C 148.753906 188.847656 148.167969 189.542969 147.378906 189.460938 C 146.878906 189.40625 146.394531 189.003906 146.109375 188.511719 C 139.886719 191.664062 139.886719 191.664062 134.929688 194.191406 C 135 194.367188 135.027344 194.496094 135.070312 194.6875 C 135.214844 195.464844 134.933594 196.015625 134.40625 195.832031 C 133.917969 195.695312 133.386719 194.929688 133.207031 194.082031 C 133.09375 193.492188 133.226562 193.089844 133.484375 192.917969 C 131.707031 187.585938 130.15625 182.183594 128.851562 176.746094 C 126.105469 173.746094 126.105469 173.746094 123.871094 171.050781 C 123.785156 171.402344 123.628906 171.6875 123.445312 171.625 C 123.539062 177.605469 123.539062 177.605469 123.953125 183.347656 C 124.183594 183.515625 124.429688 184.113281 124.539062 184.8125 C 124.644531 185.515625 124.523438 186.054688 124.238281 185.910156 C 124.660156 188.828125 124.660156 188.828125 125.148438 191.609375 C 125.386719 191.832031 125.667969 192.417969 125.820312 193.050781 C 125.992188 193.753906 125.90625 194.167969 125.621094 193.964844 C 125.367188 193.828125 125.007812 193.109375 124.851562 192.472656 C 124.679688 191.761719 124.765625 191.355469 125.019531 191.5 C 124.53125 188.714844 124.53125 188.714844 124.125 185.863281 C 123.886719 185.625 123.644531 185.023438 123.542969 184.382812 C 123.53125 184.308594 123.523438 184.238281 123.515625 184.167969 C 121.632812 181.964844 121.632812 181.964844 120.199219 179.894531 C 120.21875 180.339844 120.164062 180.574219 120.066406 180.515625 C 120 180.449219 119.933594 180.308594 119.867188 180.09375 C 119.71875 183.308594 119.71875 183.308594 120.007812 186.171875 C 120.046875 186.316406 120.097656 186.539062 120.152344 186.757812 C 120.273438 187.273438 120.355469 187.640625 120.3125 187.496094 C 120.3125 187.496094 120.273438 187.351562 120.242188 187.28125 C 120.113281 186.769531 119.988281 186.253906 119.871094 185.738281 C 119.835938 185.515625 119.820312 185.441406 119.839844 185.515625 C 119.863281 185.585938 119.898438 185.734375 119.953125 185.953125 C 119.664062 183.089844 119.664062 183.089844 119.8125 179.875 C 119.761719 179.65625 119.722656 179.4375 119.6875 179.140625 C 119.679688 179.066406 119.679688 179.066406 119.671875 178.992188 C 119.363281 178.433594 119.363281 178.433594 119.089844 177.863281 C 119.105469 178.238281 119.082031 178.46875 119.015625 178.402344 C 118.941406 178.335938 118.835938 177.820312 118.769531 177.222656 C 118.707031 176.546875 118.714844 176.09375 118.792969 176.160156 C 118.875 176.226562 118.988281 176.746094 119.050781 177.417969 C 119.058594 177.488281 119.058594 177.488281 119.066406 177.5625 C 119.339844 178.132812 119.339844 178.132812 119.648438 178.695312 C 119.640625 178.320312 119.679688 178.015625 119.78125 178.078125 C 119.855469 178.144531 119.941406 178.359375 120.007812 178.574219 Z M 133.84375 192.910156 C 133.855469 192.90625 133.890625 192.960938 133.902344 192.957031 C 133.59375 184.496094 133.59375 184.496094 133.871094 175.347656 C 133.210938 175.050781 132.707031 174 132.667969 172.84375 C 132.65625 172.417969 132.707031 172.050781 132.808594 171.742188 C 129.65625 168.113281 129.65625 168.113281 127.054688 164.824219 C 129.5 178.753906 129.5 178.753906 133.683594 192.90625 C 133.726562 192.886719 133.796875 192.929688 133.84375 192.910156 Z M 134.132812 193.070312 C 134.375 193.25 134.589844 193.503906 134.769531 193.84375 C 139.714844 191.292969 139.714844 191.292969 145.921875 188.089844 C 145.867188 187.949219 145.820312 187.746094 145.796875 187.53125 C 145.769531 187.214844 145.804688 186.875 145.910156 186.617188 C 140.257812 180.558594 140.257812 180.558594 135.378906 174.710938 C 135.109375 175.214844 134.707031 175.492188 134.261719 175.484375 C 134.207031 175.429688 134.15625 175.433594 134.109375 175.441406 C 133.816406 184.5625 133.816406 184.5625 134.132812 193.070312 Z M 123.5 183.878906 C 123.503906 183.4375 123.628906 183.191406 123.824219 183.226562 C 123.417969 177.550781 123.417969 177.550781 123.328125 171.628906 C 123.21875 171.5625 123.121094 171.355469 123.046875 171.148438 C 121.1875 175.269531 121.1875 175.269531 120.070312 178.863281 C 120.101562 179.007812 120.140625 179.226562 120.164062 179.449219 C 120.171875 179.523438 120.179688 179.597656 120.175781 179.597656 C 121.613281 181.671875 121.613281 181.671875 123.5 183.878906 Z M 123.40625 168.742188 C 123.558594 168.742188 123.703125 168.960938 123.804688 169.308594 C 125.125 166.964844 125.125 166.964844 126.660156 164.597656 C 122.832031 164.566406 122.832031 164.566406 120.277344 164.558594 C 120.273438 164.632812 120.265625 164.707031 120.253906 164.777344 C 121.421875 167.007812 121.421875 167.007812 122.980469 169.457031 C 123.070312 169.035156 123.222656 168.742188 123.40625 168.742188 Z M 123.878906 169.589844 C 123.921875 169.796875 123.941406 170.003906 123.945312 170.214844 C 123.949219 170.421875 123.941406 170.558594 123.921875 170.703125 C 126.09375 173.34375 126.09375 173.34375 128.742188 176.234375 C 127.644531 170.40625 127.644531 170.40625 126.867188 164.675781 C 125.257812 167.171875 125.257812 167.171875 123.878906 169.589844 Z M 258.066406 162.957031 C 258.117188 162.953125 258.175781 163.011719 258.21875 163.007812 C 258.851562 155.867188 258.851562 155.867188 258.992188 149.222656 C 258.742188 148.941406 258.503906 148.445312 258.386719 147.910156 C 254.207031 146.332031 254.207031 146.332031 248.992188 144.710938 C 249.03125 145.421875 248.6875 145.890625 248.171875 145.847656 C 248.722656 153.378906 248.910156 161.320312 248.6875 169.402344 C 249.234375 169.519531 249.691406 170.035156 249.941406 170.714844 C 253.980469 167.761719 253.980469 167.761719 257.371094 165.011719 C 257.339844 164.820312 257.320312 164.695312 257.316406 164.5 C 257.28125 163.605469 257.621094 162.933594 258.066406 162.957031 Z M 258.601562 165.851562 C 258.492188 165.988281 258.371094 166.121094 258.230469 166.128906 C 258.054688 172.667969 258.054688 172.667969 257.554688 179.195312 C 257.878906 179.25 258.089844 179.746094 258.09375 180.347656 C 260.582031 179.546875 260.582031 179.546875 262.660156 178.816406 C 262.699219 178.46875 262.78125 178.128906 262.886719 177.855469 C 261.113281 172.171875 261.113281 172.171875 258.601562 165.851562 Z M 258.039062 166.074219 C 257.804688 166.019531 257.59375 165.707031 257.464844 165.328125 C 254.078125 168.125 254.078125 168.125 250.050781 171.058594 C 250.113281 171.347656 250.144531 171.6875 250.144531 171.972656 C 250.125 172.710938 249.914062 173.375 249.578125 173.859375 C 251.628906 177.878906 251.628906 177.878906 253.398438 181.625 C 254.980469 181.257812 254.980469 181.257812 256.464844 180.835938 C 256.550781 180.070312 256.941406 179.359375 257.359375 179.230469 C 257.863281 172.65625 257.863281 172.65625 258.039062 166.074219 Z M 262.65625 179.453125 C 262.640625 179.378906 262.640625 179.238281 262.644531 179.09375 C 260.5625 179.886719 260.5625 179.886719 258.066406 180.742188 C 257.980469 181.460938 257.59375 182.1875 257.195312 182.304688 C 256.757812 185.417969 256.757812 185.417969 256.265625 188.417969 C 259.792969 183.824219 259.792969 183.824219 262.65625 179.453125 Z M 233.265625 208.710938 C 233.597656 208.640625 233.839844 208.722656 234.046875 208.847656 C 244.546875 195.578125 244.546875 195.578125 253.042969 182.113281 C 244.085938 184.125 244.085938 184.125 232.6875 186.042969 C 232.582031 187.269531 231.8125 188.335938 230.8125 188.777344 C 232.152344 199.507812 232.152344 199.507812 232.808594 208.886719 C 232.964844 208.804688 233.089844 208.773438 233.265625 208.710938 Z M 234.238281 209.035156 C 234.277344 209.074219 234.3125 209.109375 234.3125 209.1875 C 246.464844 198.921875 246.464844 198.921875 255.960938 188.804688 C 254.753906 185.617188 254.753906 185.617188 253.296875 182.171875 C 244.78125 195.703125 244.78125 195.703125 234.238281 209.035156 Z M 231.824219 209.722656 C 231.984375 209.488281 232.222656 209.25 232.460938 209.089844 C 231.765625 199.703125 231.765625 199.703125 230.40625 188.941406 C 230.28125 188.96875 230.144531 188.988281 230.003906 189.007812 C 229.121094 189.082031 228.386719 188.621094 227.960938 187.925781 C 220.746094 192.453125 220.746094 192.453125 213.152344 196.929688 C 223.375 204.101562 223.375 204.101562 231.824219 209.722656 Z M 257.003906 182.328125 C 256.675781 182.261719 256.449219 181.816406 256.4375 181.226562 C 255.042969 181.59375 255.042969 181.59375 253.550781 181.976562 C 254.9375 185.273438 254.9375 185.273438 256.085938 188.363281 C 256.578125 185.375 256.578125 185.375 257.003906 182.328125 Z M 247.898438 145.769531 C 247.699219 145.664062 247.496094 145.488281 247.332031 145.304688 C 243.691406 150.289062 243.691406 150.289062 239.253906 155.832031 C 239.59375 156.328125 239.820312 156.960938 239.859375 157.640625 C 239.890625 158.320312 239.71875 158.945312 239.398438 159.394531 C 243.558594 164.882812 243.558594 164.882812 247.246094 170.035156 C 247.566406 169.660156 247.96875 169.398438 248.402344 169.398438 C 248.585938 157.273438 248.585938 157.273438 247.898438 145.769531 Z M 247.109375 145.019531 C 246.921875 144.714844 246.789062 144.390625 246.738281 144.089844 C 238.585938 141.984375 238.585938 141.984375 228.949219 140.035156 C 228.921875 140.460938 228.722656 140.796875 228.433594 141.027344 C 232.59375 147.925781 232.59375 147.925781 236.46875 154.882812 C 236.765625 154.738281 237.105469 154.675781 237.464844 154.703125 C 238.042969 154.765625 238.570312 155.042969 238.992188 155.511719 C 243.425781 149.925781 243.425781 149.925781 247.109375 145.019531 Z M 158.523438 134.523438 C 158.660156 134.730469 158.691406 135.03125 158.65625 135.339844 C 158.636719 135.519531 158.566406 135.714844 158.511719 135.863281 C 164.75 138.238281 164.75 138.238281 171.589844 140.976562 C 172.109375 140.136719 173.078125 139.519531 174.148438 139.453125 C 174.230469 139.453125 174.3125 139.457031 174.398438 139.460938 C 177.164062 128.78125 177.164062 128.78125 179.898438 119.523438 C 179.621094 119.480469 179.382812 119.382812 179.179688 119.25 C 168.71875 126.457031 168.71875 126.457031 158.523438 134.523438 Z M 158.292969 136.25 C 157.933594 136.769531 157.402344 137.128906 156.828125 137.207031 C 156.78125 137.226562 156.78125 137.226562 156.757812 137.207031 C 155.433594 142.015625 155.433594 142.015625 154.214844 146.972656 C 162.324219 144.761719 162.324219 144.761719 171.105469 142.648438 C 171.113281 142.554688 171.125 142.457031 171.113281 142.386719 C 171.132812 142.039062 171.222656 141.703125 171.371094 141.382812 C 164.511719 138.652344 164.511719 138.652344 158.292969 136.25 Z M 181.988281 118.789062 C 181.863281 118.933594 181.734375 119.0625 181.554688 119.175781 C 188.496094 128.472656 188.496094 128.472656 196.320312 139.660156 C 196.609375 139.429688 196.960938 139.253906 197.332031 139.148438 C 194.921875 130.101562 194.921875 130.101562 192.695312 122.074219 C 187.25 120.316406 187.25 120.316406 181.988281 118.789062 Z M 181.179688 119.367188 C 180.941406 119.46875 180.644531 119.539062 180.382812 119.554688 C 180.382812 119.546875 180.332031 119.554688 180.28125 119.558594 C 177.597656 128.820312 177.597656 128.820312 174.847656 139.507812 C 176.035156 139.738281 176.886719 140.710938 176.910156 141.933594 C 185.984375 141.875 185.984375 141.875 195.25 142.03125 C 195.226562 141.960938 195.230469 141.886719 195.238281 141.816406 C 195.226562 141.105469 195.5 140.460938 195.96875 139.972656 C 188.117188 128.722656 188.117188 128.722656 181.179688 119.367188 Z M 219.046875 122.316406 C 218.941406 122.507812 218.746094 122.644531 218.515625 122.734375 C 222.601562 129.929688 222.601562 129.929688 226.640625 137.8125 C 226.785156 137.800781 226.925781 137.792969 227.09375 137.828125 C 227.472656 137.851562 227.871094 138.050781 228.1875 138.332031 C 232.007812 134.628906 232.007812 134.628906 235.363281 131.34375 C 227.472656 126.683594 227.472656 126.683594 219.046875 122.316406 Z M 218.128906 122.792969 C 218 122.8125 217.875 122.820312 217.710938 122.796875 C 217.382812 122.761719 217.039062 122.632812 216.726562 122.445312 C 209.15625 130.3125 209.15625 130.3125 200.359375 139.863281 C 200.835938 140.289062 201.167969 140.847656 201.265625 141.464844 C 213.960938 140.175781 213.960938 140.175781 225.582031 139.398438 C 225.589844 139.390625 225.589844 139.390625 225.574219 139.347656 C 225.503906 138.695312 225.804688 138.167969 226.304688 137.941406 C 222.238281 130.019531 222.238281 130.019531 218.128906 122.792969 Z M 216.386719 122.195312 C 216.1875 122.007812 216.011719 121.769531 215.902344 121.515625 C 204.792969 121.464844 204.792969 121.464844 193.167969 122.101562 C 195.390625 130.074219 195.390625 130.074219 197.800781 139.058594 C 197.957031 139.039062 198.078125 139.027344 198.230469 139.03125 C 198.90625 139.046875 199.511719 139.246094 199.996094 139.574219 C 208.8125 130.042969 208.8125 130.042969 216.386719 122.195312 Z M 130.789062 149.21875 C 130.84375 149.445312 130.878906 149.660156 130.839844 149.988281 C 135.097656 149.28125 135.097656 149.28125 140.238281 148.601562 C 140.503906 147.355469 141.382812 146.304688 142.347656 146.113281 C 142.429688 146.089844 142.492188 146.117188 142.578125 146.09375 C 143.71875 142.21875 143.71875 142.21875 144.925781 138.457031 C 137.105469 143.984375 137.105469 143.984375 130.789062 149.21875 Z M 130.769531 150.375 C 130.773438 150.378906 130.757812 150.441406 130.738281 150.503906 C 133.71875 151.570312 133.71875 151.570312 137.246094 152.777344 C 138.710938 151.402344 138.710938 151.402344 140.246094 149.992188 C 140.164062 149.722656 140.148438 149.359375 140.179688 149.003906 C 135.042969 149.648438 135.042969 149.648438 130.769531 150.375 Z M 130.613281 150.875 C 130.511719 151.121094 130.375 151.351562 130.222656 151.515625 C 130.527344 154.34375 130.527344 154.34375 130.925781 157.242188 C 131.007812 157.191406 131.078125 157.203125 131.171875 157.160156 C 131.578125 157.105469 131.886719 157.546875 131.945312 158.191406 C 134.308594 155.710938 134.308594 155.710938 136.914062 153.105469 C 133.511719 151.898438 133.511719 151.898438 130.613281 150.875 Z M 130.019531 151.730469 C 129.945312 151.78125 129.867188 151.828125 129.804688 151.8125 C 129.703125 151.851562 129.617188 151.828125 129.539062 151.808594 C 128.148438 157.871094 128.148438 157.871094 127.066406 164.023438 C 128.621094 162.046875 128.621094 162.046875 130.355469 159.984375 C 130.214844 159.707031 130.144531 159.308594 130.175781 158.859375 C 130.222656 158.285156 130.441406 157.738281 130.714844 157.460938 C 130.332031 154.496094 130.332031 154.496094 130.019531 151.730469 Z M 131.941406 158.636719 C 131.941406 158.636719 131.941406 158.636719 131.945312 158.636719 C 131.898438 159.257812 131.679688 159.792969 131.390625 160.066406 C 132.382812 165.207031 132.382812 165.207031 133.644531 170.503906 C 133.792969 170.4375 133.953125 170.375 134.121094 170.371094 C 134.292969 170.425781 134.457031 170.421875 134.613281 170.535156 C 136.894531 162.398438 136.894531 162.398438 139.742188 154.066406 C 138.453125 153.652344 138.453125 153.652344 137.238281 153.195312 C 134.460938 155.933594 134.460938 155.933594 131.941406 158.636719 Z M 131.175781 160.292969 C 131.09375 160.34375 131.019531 160.332031 130.929688 160.382812 C 130.777344 160.363281 130.628906 160.34375 130.515625 160.199219 C 128.710938 162.316406 128.710938 162.316406 127.085938 164.359375 C 129.71875 167.730469 129.71875 167.730469 132.925781 171.371094 C 133.050781 171.0625 133.222656 170.816406 133.429688 170.691406 C 132.171875 165.320312 132.171875 165.320312 131.175781 160.292969 Z M 147.054688 185.925781 C 147.429688 185.945312 147.796875 186.171875 148.089844 186.527344 C 152.28125 182.339844 152.28125 182.339844 156.957031 177.847656 C 156.902344 177.664062 156.863281 177.480469 156.855469 177.328125 C 145.128906 175.347656 145.128906 175.347656 135.742188 173.453125 C 135.710938 173.804688 135.640625 174.164062 135.523438 174.40625 C 140.417969 180.246094 140.417969 180.246094 146.097656 186.332031 C 146.324219 186.035156 146.667969 185.910156 147.054688 185.925781 Z M 158.535156 175.300781 C 159.4375 175.34375 160.195312 176.101562 160.320312 177.085938 C 165.09375 177.242188 165.09375 177.242188 170.066406 177.351562 C 165.523438 173.0625 165.523438 173.0625 161.179688 168.832031 C 160.976562 168.90625 160.765625 168.9375 160.546875 168.9375 C 160.375 168.9375 160.207031 168.9375 160.042969 168.871094 C 159.269531 172.09375 159.269531 172.09375 158.535156 175.300781 Z M 160.339844 177.574219 C 160.273438 178.304688 159.835938 178.941406 159.207031 179.128906 C 167.355469 192.472656 167.355469 192.472656 175.933594 205.019531 C 176.191406 204.941406 176.4375 204.894531 176.734375 204.917969 C 177.457031 204.953125 178.136719 205.375 178.5 205.953125 C 186.917969 203.550781 186.917969 203.550781 195.65625 200.789062 C 195.578125 200.558594 195.5625 200.316406 195.546875 200.070312 C 195.5625 199.886719 195.582031 199.703125 195.601562 199.53125 C 183.074219 189.03125 183.074219 189.03125 170.597656 177.839844 C 165.355469 177.714844 165.355469 177.714844 160.339844 177.574219 Z M 156.867188 176.863281 C 156.96875 176.117188 157.449219 175.535156 158.089844 175.347656 C 158.839844 172.066406 158.839844 172.066406 159.632812 168.730469 C 158.84375 168.414062 158.234375 167.667969 158.007812 166.769531 C 145.558594 169.933594 145.558594 169.933594 135.742188 172.699219 C 135.75 172.757812 135.757812 172.871094 135.761719 172.988281 C 135.765625 173.046875 135.765625 173.046875 135.761719 173.046875 C 145.144531 174.902344 145.144531 174.902344 156.867188 176.863281 Z M 239.167969 159.726562 C 238.792969 160.085938 238.300781 160.320312 237.746094 160.289062 C 236.863281 160.234375 236.066406 159.589844 235.636719 158.707031 C 228.757812 161.988281 228.757812 161.988281 221.164062 165.507812 C 235.1875 168.640625 235.1875 168.640625 246.628906 171.351562 C 246.710938 170.984375 246.847656 170.613281 247.03125 170.296875 C 243.332031 165.15625 243.332031 165.15625 239.167969 159.726562 Z M 235.460938 158.257812 C 235.367188 157.96875 235.3125 157.671875 235.300781 157.359375 C 235.246094 156.382812 235.601562 155.582031 236.175781 155.121094 C 232.273438 148.097656 232.273438 148.097656 228.121094 141.21875 C 227.914062 141.273438 227.707031 141.324219 227.464844 141.292969 C 226.675781 141.207031 225.953125 140.582031 225.691406 139.828125 C 214.035156 140.613281 214.035156 140.613281 201.3125 141.917969 C 201.316406 142.683594 201 143.375 200.46875 143.878906 C 207.28125 150.878906 213.996094 158.078125 220.464844 165.320312 C 228.339844 161.632812 228.339844 161.632812 235.460938 158.257812 Z M 249.355469 174.175781 C 249.0625 174.488281 248.707031 174.675781 248.324219 174.691406 C 247.710938 174.734375 247.175781 174.296875 246.855469 173.617188 C 240.203125 179.058594 240.203125 179.058594 232.515625 184.8125 C 232.617188 185.039062 232.664062 185.335938 232.683594 185.621094 C 244.128906 183.695312 244.128906 183.695312 253.097656 181.75 C 251.371094 178.019531 251.371094 178.019531 249.355469 174.175781 Z M 246.714844 173.28125 C 246.605469 172.898438 246.539062 172.519531 246.550781 172.09375 C 246.550781 171.988281 246.558594 171.882812 246.566406 171.777344 C 234.875 169.015625 234.875 169.015625 220.519531 165.863281 C 217.777344 170.507812 217.777344 170.507812 214.941406 175.238281 C 215.65625 175.792969 216.109375 176.683594 216.09375 177.683594 C 216.085938 178.179688 215.957031 178.65625 215.75 179.074219 C 222.117188 182.101562 222.117188 182.101562 228.0625 184.933594 C 228.546875 184.058594 229.414062 183.421875 230.355469 183.378906 C 231.214844 183.324219 231.941406 183.734375 232.347656 184.429688 C 240.046875 178.683594 240.046875 178.683594 246.714844 173.28125 Z M 227.804688 187.523438 C 227.671875 187.1875 227.605469 186.804688 227.632812 186.382812 C 227.660156 186.011719 227.738281 185.667969 227.867188 185.347656 C 221.894531 182.519531 221.894531 182.519531 215.492188 179.496094 C 214.945312 180.257812 214.070312 180.765625 213.078125 180.800781 C 212.582031 180.816406 212.125 180.683594 211.714844 180.476562 C 206.058594 189.324219 206.058594 189.324219 200.378906 197.789062 C 200.898438 198.140625 201.277344 198.644531 201.464844 199.230469 C 207.109375 198.015625 207.109375 198.015625 212.675781 196.714844 C 220.417969 192.167969 220.417969 192.167969 227.804688 187.523438 Z M 198.59375 197.265625 C 199.117188 197.253906 199.585938 197.359375 199.988281 197.558594 C 205.660156 189.082031 205.660156 189.082031 211.316406 180.222656 C 210.644531 179.722656 210.195312 178.929688 210.132812 178.027344 C 197.164062 178.109375 184.015625 178.054688 171.300781 177.867188 C 183.519531 188.796875 183.519531 188.796875 195.75 199.070312 C 196.203125 198.027344 197.308594 197.28125 198.59375 197.265625 Z M 142.871094 146.105469 C 143.578125 146.300781 144.070312 147.058594 144 148.140625 C 148.519531 147.605469 148.519531 147.605469 153.484375 147.089844 C 149.027344 142.484375 149.027344 142.484375 145.222656 138.4375 C 144 142.242188 144 142.242188 142.871094 146.105469 Z M 143.9375 148.578125 C 143.863281 149.007812 143.714844 149.410156 143.5 149.785156 C 147.296875 153.523438 147.296875 153.523438 151.613281 157.558594 C 152.605469 152.507812 152.605469 152.507812 153.722656 147.472656 C 148.613281 147.980469 148.613281 147.980469 143.9375 148.578125 Z M 143.261719 150.152344 C 142.859375 150.691406 142.320312 151.074219 141.757812 151.164062 C 141.542969 151.210938 141.347656 151.199219 141.167969 151.140625 C 140.648438 152.480469 140.648438 152.480469 140.148438 153.777344 C 145.128906 155.496094 145.128906 155.496094 150.8125 157.433594 C 146.820312 153.625 146.820312 153.625 143.261719 150.152344 Z M 140.921875 151 C 140.679688 150.859375 140.488281 150.613281 140.351562 150.328125 C 138.941406 151.59375 138.941406 151.59375 137.558594 152.921875 C 138.695312 153.304688 138.695312 153.304688 139.882812 153.699219 C 140.394531 152.347656 140.394531 152.347656 140.921875 151 Z M 176.859375 142.390625 C 176.652344 143.816406 175.351562 144.996094 173.84375 145.050781 C 172.90625 145.097656 172.097656 144.703125 171.609375 144.054688 C 165.507812 148.234375 165.507812 148.234375 159.648438 152.453125 C 165.4375 155.226562 165.4375 155.226562 171.636719 158.160156 C 183.59375 150.550781 183.59375 150.550781 195.675781 143.308594 C 195.519531 143.058594 195.410156 142.78125 195.328125 142.488281 C 185.996094 142.332031 185.996094 142.332031 176.859375 142.390625 Z M 171.382812 143.691406 C 171.292969 143.492188 171.210938 143.292969 171.15625 143.078125 C 162.445312 145.148438 162.445312 145.148438 154.359375 147.363281 C 156.734375 149.753906 156.734375 149.753906 159.261719 152.222656 C 165.183594 147.953125 165.183594 147.953125 171.382812 143.691406 Z M 200.121094 144.175781 C 199.832031 144.375 199.507812 144.527344 199.152344 144.617188 C 205.792969 159.53125 205.792969 159.53125 212.214844 174.839844 C 212.519531 174.726562 212.84375 174.65625 213.179688 174.652344 C 213.667969 174.664062 214.140625 174.777344 214.546875 174.984375 C 217.382812 170.261719 217.382812 170.261719 220.125 165.636719 C 210.304688 154.773438 210.304688 154.773438 200.121094 144.175781 Z M 198.671875 144.703125 C 198.546875 144.710938 198.441406 144.722656 198.316406 144.71875 C 197.371094 144.707031 196.535156 144.308594 195.976562 143.683594 C 183.996094 150.859375 183.996094 150.859375 172.140625 158.382812 C 191.121094 167.402344 191.121094 167.402344 210.402344 176.542969 C 210.683594 175.894531 211.171875 175.359375 211.78125 175.027344 C 205.332031 159.675781 205.332031 159.675781 198.671875 144.703125 Z M 210.140625 177.539062 C 210.160156 177.355469 210.195312 177.167969 210.238281 177 C 190.789062 167.785156 190.789062 167.785156 171.671875 158.6875 C 167.257812 161.613281 167.257812 161.613281 162.996094 164.511719 C 163.191406 164.90625 163.296875 165.378906 163.289062 165.898438 C 163.28125 167.109375 162.605469 168.183594 161.648438 168.640625 C 166.105469 172.972656 166.105469 172.972656 170.761719 177.355469 C 190.289062 177.605469 190.289062 177.605469 210.140625 177.539062 Z M 160.605469 162.921875 C 161.492188 162.917969 162.289062 163.351562 162.773438 164.101562 C 166.90625 161.285156 166.90625 161.285156 171.175781 158.453125 C 164.992188 155.535156 164.992188 155.535156 159.214844 152.789062 C 155.558594 155.378906 155.558594 155.378906 152.050781 157.988281 C 155.242188 160.882812 155.242188 160.882812 158.632812 163.921875 C 159.125 163.328125 159.824219 162.957031 160.605469 162.921875 Z M 157.925781 166.304688 C 157.914062 166.195312 157.910156 166.050781 157.910156 165.945312 C 157.914062 165.335938 158.085938 164.78125 158.371094 164.28125 C 154.925781 161.21875 154.925781 161.21875 151.695312 158.25 C 142.769531 165.367188 142.769531 165.367188 135.558594 171.839844 C 135.605469 171.953125 135.644531 172.125 135.679688 172.300781 C 145.488281 169.503906 145.488281 169.503906 157.925781 166.304688 Z M 134.847656 170.703125 C 135.070312 170.871094 135.265625 171.15625 135.417969 171.5 C 142.515625 165.046875 142.515625 165.046875 151.277344 158.054688 C 145.25 155.996094 145.25 155.996094 139.996094 154.195312 C 137.144531 162.484375 137.144531 162.484375 134.847656 170.703125 Z M 154.058594 147.65625 C 152.972656 152.558594 152.972656 152.558594 151.992188 157.527344 C 155.367188 155.007812 155.367188 155.007812 158.878906 152.503906 C 156.390625 150.042969 156.390625 150.042969 154.058594 147.65625 Z M 154.058594 147.65625 " fill-opacity="1" fill-rule="nonzero"/></g><path fill="#25197b" d="M 102.066406 25.347656 L 128.210938 51.484375 L 128.210938 90.566406 L 132.191406 90.566406 L 132.191406 49.835938 L 104.882812 22.535156 C 104.988281 22.21875 105.058594 21.890625 105.09375 21.558594 C 105.128906 21.222656 105.125 20.890625 105.085938 20.554688 C 105.046875 20.222656 104.96875 19.898438 104.855469 19.582031 C 104.742188 19.265625 104.59375 18.964844 104.414062 18.679688 C 104.230469 18.398438 104.023438 18.136719 103.785156 17.902344 C 103.542969 17.664062 103.28125 17.460938 102.996094 17.28125 C 102.710938 17.105469 102.410156 16.960938 102.09375 16.851562 C 101.773438 16.742188 101.449219 16.667969 101.113281 16.632812 C 100.78125 16.597656 100.445312 16.597656 100.113281 16.636719 C 99.777344 16.675781 99.453125 16.75 99.136719 16.859375 C 98.820312 16.972656 98.519531 17.117188 98.234375 17.296875 C 97.949219 17.476562 97.6875 17.683594 97.453125 17.921875 C 97.214844 18.160156 97.003906 18.421875 96.828125 18.703125 C 96.648438 18.988281 96.503906 19.289062 96.390625 19.605469 C 96.277344 19.921875 96.203125 20.25 96.164062 20.582031 C 96.128906 20.917969 96.125 21.25 96.164062 21.585938 C 96.199219 21.917969 96.273438 22.246094 96.382812 22.5625 C 96.492188 22.878906 96.632812 23.179688 96.8125 23.464844 C 96.988281 23.753906 97.195312 24.015625 97.433594 24.253906 C 97.667969 24.492188 97.925781 24.703125 98.210938 24.882812 C 98.496094 25.0625 98.792969 25.210938 99.109375 25.324219 C 99.425781 25.4375 99.75 25.515625 100.085938 25.554688 C 100.417969 25.597656 100.753906 25.597656 101.085938 25.566406 C 101.421875 25.53125 101.746094 25.460938 102.066406 25.351562 Z M 102.066406 25.347656 " fill-opacity="1" fill-rule="nonzero"/><path fill="#25197b" d="M 137.351562 1.753906 C 136.972656 1.375 136.539062 1.074219 136.050781 0.851562 C 135.5625 0.625 135.054688 0.496094 134.519531 0.453125 C 133.984375 0.414062 133.457031 0.464844 132.941406 0.613281 C 132.425781 0.761719 131.953125 0.992188 131.519531 1.308594 C 131.089844 1.625 130.726562 2.007812 130.429688 2.457031 C 130.132812 2.902344 129.925781 3.386719 129.804688 3.910156 C 129.679688 4.429688 129.652344 4.957031 129.71875 5.492188 C 129.785156 6.023438 129.945312 6.527344 130.191406 7.003906 C 130.4375 7.476562 130.757812 7.894531 131.15625 8.257812 C 131.554688 8.617188 132 8.898438 132.496094 9.097656 C 132.996094 9.296875 133.511719 9.40625 134.046875 9.421875 C 134.582031 9.4375 135.105469 9.359375 135.613281 9.1875 L 144.167969 17.742188 L 144.167969 90.566406 L 148.152344 90.566406 L 148.152344 16.089844 L 138.429688 6.371094 C 138.703125 5.558594 138.742188 4.738281 138.546875 3.90625 C 138.351562 3.078125 137.953125 2.359375 137.351562 1.753906 Z M 137.351562 1.753906 " fill-opacity="1" fill-rule="nonzero"/><path fill="#25197b" d="M 180.273438 56.148438 C 179.769531 56.148438 179.277344 56.234375 178.796875 56.398438 C 178.320312 56.566406 177.882812 56.808594 177.484375 57.121094 C 177.085938 57.4375 176.753906 57.808594 176.480469 58.238281 C 176.210938 58.664062 176.019531 59.125 175.902344 59.617188 C 175.789062 60.113281 175.757812 60.609375 175.808594 61.113281 C 175.863281 61.617188 175.996094 62.097656 176.214844 62.558594 C 176.429688 63.015625 176.714844 63.425781 177.070312 63.785156 C 177.425781 64.148438 177.828125 64.441406 178.285156 64.667969 L 178.285156 90.566406 L 182.265625 90.566406 L 182.265625 64.667969 C 182.71875 64.441406 183.125 64.148438 183.480469 63.785156 C 183.832031 63.425781 184.121094 63.015625 184.335938 62.558594 C 184.550781 62.097656 184.6875 61.617188 184.738281 61.113281 C 184.792969 60.609375 184.761719 60.113281 184.648438 59.617188 C 184.53125 59.125 184.339844 58.664062 184.066406 58.238281 C 183.796875 57.808594 183.460938 57.4375 183.066406 57.121094 C 182.667969 56.808594 182.230469 56.566406 181.753906 56.398438 C 181.273438 56.234375 180.78125 56.148438 180.273438 56.148438 Z M 180.273438 56.148438 " fill-opacity="1" fill-rule="nonzero"/><path fill="#25197b" d="M 163.765625 26.769531 C 163.261719 26.769531 162.769531 26.851562 162.289062 27.019531 C 161.8125 27.1875 161.375 27.425781 160.976562 27.742188 C 160.578125 28.058594 160.246094 28.429688 159.972656 28.855469 C 159.703125 29.285156 159.511719 29.746094 159.394531 30.238281 C 159.28125 30.730469 159.25 31.230469 159.300781 31.734375 C 159.355469 32.238281 159.488281 32.71875 159.707031 33.175781 C 159.921875 33.636719 160.207031 34.046875 160.5625 34.40625 C 160.917969 34.769531 161.320312 35.0625 161.777344 35.285156 L 161.777344 90.566406 L 165.757812 90.566406 L 165.757812 35.285156 C 166.210938 35.0625 166.617188 34.769531 166.972656 34.40625 C 167.324219 34.046875 167.613281 33.636719 167.828125 33.175781 C 168.042969 32.71875 168.179688 32.238281 168.230469 31.734375 C 168.285156 31.230469 168.253906 30.730469 168.140625 30.238281 C 168.023438 29.746094 167.832031 29.285156 167.558594 28.855469 C 167.289062 28.429688 166.953125 28.058594 166.558594 27.742188 C 166.160156 27.425781 165.722656 27.1875 165.246094 27.019531 C 164.765625 26.851562 164.273438 26.769531 163.765625 26.769531 Z M 163.765625 26.769531 " fill-opacity="1" fill-rule="nonzero"/><path fill="#25197b" d="M 271.195312 17.917969 C 270.902344 18.214844 270.652344 18.546875 270.445312 18.910156 C 270.242188 19.277344 270.09375 19.664062 270 20.074219 C 269.902344 20.480469 269.867188 20.894531 269.886719 21.3125 C 269.90625 21.730469 269.984375 22.140625 270.117188 22.535156 L 242.8125 49.835938 L 242.8125 90.566406 L 246.796875 90.566406 L 246.796875 51.484375 L 272.933594 25.347656 C 273.441406 25.519531 273.964844 25.597656 274.5 25.582031 C 275.035156 25.566406 275.550781 25.460938 276.050781 25.257812 C 276.546875 25.058594 276.996094 24.777344 277.390625 24.417969 C 277.789062 24.058594 278.109375 23.640625 278.355469 23.164062 C 278.605469 22.6875 278.761719 22.183594 278.828125 21.652344 C 278.894531 21.121094 278.867188 20.59375 278.746094 20.070312 C 278.621094 19.546875 278.414062 19.0625 278.117188 18.617188 C 277.824219 18.167969 277.457031 17.789062 277.027344 17.46875 C 276.59375 17.152344 276.121094 16.921875 275.605469 16.773438 C 275.089844 16.628906 274.5625 16.574219 274.03125 16.613281 C 273.496094 16.65625 272.984375 16.789062 272.496094 17.011719 C 272.007812 17.234375 271.578125 17.535156 271.195312 17.914062 Z M 271.195312 17.917969 " fill-opacity="1" fill-rule="nonzero"/><path fill="#25197b" d="M 230.832031 17.742188 L 239.394531 9.183594 C 239.710938 9.292969 240.039062 9.363281 240.371094 9.398438 C 240.707031 9.433594 241.039062 9.429688 241.375 9.386719 C 241.707031 9.347656 242.03125 9.269531 242.347656 9.15625 C 242.664062 9.042969 242.964844 8.898438 243.25 8.714844 C 243.53125 8.535156 243.792969 8.324219 244.027344 8.085938 C 244.265625 7.847656 244.472656 7.585938 244.648438 7.300781 C 244.824219 7.015625 244.96875 6.710938 245.078125 6.394531 C 245.1875 6.078125 245.261719 5.75 245.296875 5.417969 C 245.335938 5.082031 245.332031 4.75 245.292969 4.414062 C 245.257812 4.082031 245.179688 3.757812 245.070312 3.4375 C 244.957031 3.121094 244.8125 2.820312 244.632812 2.539062 C 244.453125 2.253906 244.246094 1.992188 244.007812 1.753906 C 243.769531 1.515625 243.511719 1.308594 243.226562 1.128906 C 242.941406 0.949219 242.640625 0.804688 242.324219 0.691406 C 242.007812 0.582031 241.679688 0.507812 241.347656 0.46875 C 241.011719 0.429688 240.679688 0.429688 240.34375 0.464844 C 240.011719 0.5 239.683594 0.574219 239.367188 0.683594 C 239.050781 0.792969 238.75 0.9375 238.464844 1.113281 C 238.175781 1.292969 237.914062 1.5 237.675781 1.734375 C 237.4375 1.972656 237.226562 2.230469 237.046875 2.515625 C 236.867188 2.796875 236.71875 3.097656 236.605469 3.414062 C 236.492188 3.730469 236.414062 4.054688 236.375 4.386719 C 236.332031 4.722656 236.332031 5.054688 236.367188 5.390625 C 236.398438 5.722656 236.472656 6.050781 236.578125 6.371094 L 226.855469 16.089844 L 226.855469 90.566406 L 230.835938 90.566406 Z M 230.832031 17.742188 " fill-opacity="1" fill-rule="nonzero"/><path fill="#25197b" d="M 194.726562 56.148438 C 194.21875 56.148438 193.726562 56.234375 193.246094 56.398438 C 192.769531 56.566406 192.332031 56.808594 191.933594 57.121094 C 191.539062 57.4375 191.203125 57.808594 190.933594 58.238281 C 190.660156 58.664062 190.46875 59.125 190.351562 59.617188 C 190.238281 60.113281 190.207031 60.609375 190.261719 61.113281 C 190.3125 61.617188 190.449219 62.097656 190.664062 62.558594 C 190.878906 63.015625 191.167969 63.425781 191.519531 63.785156 C 191.875 64.148438 192.28125 64.441406 192.734375 64.667969 L 192.734375 90.566406 L 196.714844 90.566406 L 196.714844 64.667969 C 197.171875 64.441406 197.574219 64.148438 197.929688 63.785156 C 198.285156 63.425781 198.570312 63.015625 198.785156 62.558594 C 199.003906 62.097656 199.136719 61.617188 199.191406 61.113281 C 199.242188 60.609375 199.210938 60.113281 199.097656 59.617188 C 198.980469 59.125 198.789062 58.664062 198.519531 58.238281 C 198.246094 57.808594 197.914062 57.4375 197.515625 57.121094 C 197.117188 56.808594 196.679688 56.566406 196.203125 56.398438 C 195.722656 56.234375 195.230469 56.148438 194.726562 56.148438 Z M 194.726562 56.148438 " fill-opacity="1" fill-rule="nonzero"/><path fill="#25197b" d="M 211.234375 26.769531 C 210.726562 26.769531 210.234375 26.851562 209.753906 27.019531 C 209.277344 27.1875 208.839844 27.425781 208.441406 27.742188 C 208.046875 28.058594 207.710938 28.429688 207.441406 28.855469 C 207.167969 29.285156 206.976562 29.746094 206.859375 30.238281 C 206.746094 30.730469 206.714844 31.230469 206.769531 31.734375 C 206.820312 32.238281 206.957031 32.71875 207.171875 33.175781 C 207.386719 33.636719 207.675781 34.046875 208.027344 34.40625 C 208.382812 34.769531 208.789062 35.0625 209.242188 35.285156 L 209.242188 90.566406 L 213.222656 90.566406 L 213.222656 35.285156 C 213.679688 35.0625 214.082031 34.769531 214.4375 34.40625 C 214.792969 34.046875 215.078125 33.636719 215.292969 33.175781 C 215.511719 32.71875 215.644531 32.238281 215.699219 31.734375 C 215.75 31.230469 215.71875 30.730469 215.605469 30.238281 C 215.488281 29.746094 215.296875 29.285156 215.027344 28.855469 C 214.753906 28.429688 214.421875 28.058594 214.023438 27.742188 C 213.625 27.425781 213.1875 27.1875 212.710938 27.019531 C 212.230469 26.851562 211.738281 26.769531 211.234375 26.769531 Z M 211.234375 26.769531 " fill-opacity="1" fill-rule="nonzero"/><path fill="#25197b" d="M 272.933594 349.664062 L 246.796875 323.527344 L 246.796875 284.449219 L 242.8125 284.449219 L 242.8125 325.175781 L 270.117188 352.476562 C 270.011719 352.796875 269.941406 353.121094 269.90625 353.457031 C 269.871094 353.789062 269.875 354.125 269.914062 354.457031 C 269.953125 354.792969 270.03125 355.117188 270.144531 355.433594 C 270.257812 355.75 270.40625 356.046875 270.585938 356.332031 C 270.769531 356.617188 270.976562 356.875 271.214844 357.109375 C 271.457031 357.347656 271.71875 357.554688 272.003906 357.730469 C 272.289062 357.910156 272.589844 358.050781 272.90625 358.160156 C 273.226562 358.269531 273.550781 358.34375 273.886719 358.378906 C 274.21875 358.417969 274.554688 358.414062 274.886719 358.378906 C 275.222656 358.339844 275.546875 358.265625 275.863281 358.152344 C 276.179688 358.039062 276.480469 357.894531 276.765625 357.714844 C 277.050781 357.539062 277.3125 357.328125 277.546875 357.089844 C 277.785156 356.855469 277.996094 356.59375 278.171875 356.308594 C 278.351562 356.023438 278.496094 355.722656 278.609375 355.40625 C 278.722656 355.089844 278.796875 354.765625 278.835938 354.429688 C 278.871094 354.097656 278.875 353.761719 278.835938 353.429688 C 278.800781 353.09375 278.726562 352.769531 278.617188 352.449219 C 278.507812 352.132812 278.367188 351.832031 278.1875 351.546875 C 278.011719 351.261719 277.804688 351 277.566406 350.757812 C 277.332031 350.519531 277.074219 350.3125 276.789062 350.128906 C 276.503906 349.949219 276.207031 349.800781 275.890625 349.6875 C 275.574219 349.574219 275.25 349.496094 274.914062 349.457031 C 274.582031 349.417969 274.246094 349.414062 273.914062 349.449219 C 273.578125 349.484375 273.253906 349.554688 272.933594 349.660156 Z M 272.933594 349.664062 " fill-opacity="1" fill-rule="nonzero"/><path fill="#25197b" d="M 239.394531 365.828125 L 230.835938 357.273438 L 230.835938 284.449219 L 226.855469 284.449219 L 226.855469 358.921875 L 236.578125 368.644531 C 236.472656 368.960938 236.398438 369.289062 236.367188 369.621094 C 236.332031 369.957031 236.332031 370.292969 236.375 370.625 C 236.414062 370.957031 236.492188 371.285156 236.605469 371.601562 C 236.71875 371.914062 236.867188 372.214844 237.046875 372.5 C 237.226562 372.78125 237.4375 373.042969 237.675781 373.277344 C 237.914062 373.515625 238.175781 373.722656 238.464844 373.898438 C 238.75 374.074219 239.050781 374.21875 239.367188 374.328125 C 239.683594 374.4375 240.011719 374.511719 240.34375 374.546875 C 240.679688 374.585938 241.011719 374.582031 241.347656 374.546875 C 241.679688 374.507812 242.007812 374.429688 242.324219 374.320312 C 242.640625 374.207031 242.941406 374.0625 243.226562 373.882812 C 243.511719 373.707031 243.769531 373.496094 244.007812 373.257812 C 244.246094 373.023438 244.453125 372.761719 244.632812 372.476562 C 244.8125 372.191406 244.957031 371.890625 245.070312 371.574219 C 245.179688 371.257812 245.257812 370.933594 245.292969 370.597656 C 245.332031 370.265625 245.335938 369.929688 245.296875 369.597656 C 245.261719 369.261719 245.1875 368.9375 245.078125 368.617188 C 244.96875 368.300781 244.824219 368 244.648438 367.714844 C 244.472656 367.429688 244.265625 367.164062 244.027344 366.925781 C 243.792969 366.6875 243.53125 366.476562 243.25 366.296875 C 242.964844 366.117188 242.664062 365.96875 242.347656 365.855469 C 242.03125 365.742188 241.707031 365.664062 241.375 365.625 C 241.039062 365.585938 240.707031 365.582031 240.371094 365.617188 C 240.039062 365.648438 239.710938 365.722656 239.394531 365.828125 Z M 239.394531 365.828125 " fill-opacity="1" fill-rule="nonzero"/><path fill="#25197b" d="M 196.714844 310.347656 L 196.714844 284.449219 L 192.734375 284.449219 L 192.734375 310.347656 C 192.433594 310.496094 192.152344 310.675781 191.890625 310.886719 C 191.632812 311.101562 191.398438 311.339844 191.191406 311.601562 C 190.984375 311.867188 190.808594 312.152344 190.664062 312.457031 C 190.519531 312.757812 190.414062 313.074219 190.339844 313.402344 C 190.269531 313.730469 190.234375 314.0625 190.234375 314.398438 C 190.238281 314.734375 190.277344 315.066406 190.351562 315.394531 C 190.429688 315.71875 190.542969 316.035156 190.6875 316.335938 C 190.835938 316.640625 191.015625 316.921875 191.226562 317.183594 C 191.433594 317.445312 191.671875 317.679688 191.933594 317.890625 C 192.199219 318.097656 192.480469 318.273438 192.785156 318.417969 C 193.085938 318.566406 193.402344 318.675781 193.730469 318.75 C 194.058594 318.824219 194.390625 318.859375 194.726562 318.859375 C 195.0625 318.859375 195.394531 318.824219 195.71875 318.75 C 196.046875 318.675781 196.363281 318.566406 196.667969 318.417969 C 196.96875 318.273438 197.253906 318.097656 197.515625 317.890625 C 197.777344 317.679688 198.015625 317.445312 198.226562 317.183594 C 198.4375 316.921875 198.613281 316.640625 198.761719 316.335938 C 198.910156 316.035156 199.019531 315.71875 199.097656 315.394531 C 199.171875 315.066406 199.214844 314.734375 199.214844 314.398438 C 199.21875 314.0625 199.183594 313.730469 199.109375 313.402344 C 199.035156 313.074219 198.929688 312.757812 198.785156 312.457031 C 198.640625 312.152344 198.46875 311.867188 198.261719 311.601562 C 198.054688 311.339844 197.820312 311.101562 197.558594 310.886719 C 197.296875 310.675781 197.015625 310.496094 196.714844 310.347656 Z M 196.714844 310.347656 " fill-opacity="1" fill-rule="nonzero"/><path fill="#25197b" d="M 213.222656 339.726562 L 213.222656 284.449219 L 209.242188 284.449219 L 209.242188 339.726562 C 208.941406 339.875 208.660156 340.054688 208.398438 340.269531 C 208.136719 340.480469 207.90625 340.71875 207.699219 340.984375 C 207.488281 341.246094 207.316406 341.53125 207.171875 341.835938 C 207.027344 342.140625 206.921875 342.457031 206.847656 342.785156 C 206.773438 343.113281 206.738281 343.445312 206.742188 343.78125 C 206.742188 344.117188 206.78125 344.449219 206.859375 344.773438 C 206.9375 345.101562 207.046875 345.417969 207.195312 345.71875 C 207.34375 346.019531 207.519531 346.304688 207.730469 346.566406 C 207.941406 346.828125 208.179688 347.0625 208.441406 347.273438 C 208.707031 347.480469 208.988281 347.65625 209.292969 347.804688 C 209.59375 347.949219 209.910156 348.058594 210.238281 348.132812 C 210.566406 348.207031 210.898438 348.246094 211.234375 348.246094 C 211.570312 348.246094 211.902344 348.207031 212.226562 348.132812 C 212.554688 348.058594 212.871094 347.949219 213.175781 347.804688 C 213.476562 347.65625 213.761719 347.480469 214.023438 347.273438 C 214.289062 347.0625 214.523438 346.828125 214.734375 346.566406 C 214.945312 346.304688 215.125 346.019531 215.269531 345.71875 C 215.417969 345.417969 215.53125 345.101562 215.605469 344.773438 C 215.683594 344.449219 215.722656 344.117188 215.722656 343.78125 C 215.726562 343.445312 215.691406 343.113281 215.617188 342.785156 C 215.546875 342.457031 215.4375 342.140625 215.292969 341.835938 C 215.152344 341.53125 214.976562 341.246094 214.769531 340.984375 C 214.5625 340.71875 214.328125 340.480469 214.066406 340.269531 C 213.804688 340.054688 213.523438 339.875 213.222656 339.726562 Z M 213.222656 339.726562 " fill-opacity="1" fill-rule="nonzero"/><path fill="#25197b" d="M 132.1875 325.175781 L 132.1875 284.449219 L 128.203125 284.449219 L 128.203125 323.527344 L 102.058594 349.664062 C 101.742188 349.558594 101.414062 349.488281 101.078125 349.453125 C 100.746094 349.421875 100.410156 349.425781 100.078125 349.464844 C 99.746094 349.507812 99.417969 349.585938 99.105469 349.699219 C 98.789062 349.8125 98.488281 349.960938 98.207031 350.140625 C 97.921875 350.324219 97.664062 350.535156 97.429688 350.773438 C 97.191406 351.011719 96.984375 351.273438 96.808594 351.5625 C 96.632812 351.847656 96.488281 352.148438 96.382812 352.464844 C 96.273438 352.785156 96.199219 353.109375 96.164062 353.445312 C 96.128906 353.777344 96.128906 354.113281 96.167969 354.445312 C 96.207031 354.78125 96.285156 355.105469 96.394531 355.421875 C 96.507812 355.738281 96.652344 356.039062 96.832031 356.324219 C 97.011719 356.605469 97.222656 356.867188 97.460938 357.105469 C 97.699219 357.339844 97.960938 357.550781 98.242188 357.726562 C 98.527344 357.90625 98.828125 358.050781 99.148438 358.164062 C 99.464844 358.273438 99.789062 358.347656 100.121094 358.386719 C 100.457031 358.421875 100.789062 358.421875 101.125 358.386719 C 101.457031 358.347656 101.785156 358.277344 102.101562 358.164062 C 102.417969 358.054688 102.71875 357.910156 103.003906 357.734375 C 103.289062 357.554688 103.550781 357.347656 103.792969 357.113281 C 104.03125 356.875 104.238281 356.617188 104.417969 356.332031 C 104.601562 356.050781 104.746094 355.75 104.859375 355.433594 C 104.972656 355.117188 105.050781 354.792969 105.089844 354.457031 C 105.128906 354.125 105.132812 353.789062 105.097656 353.457031 C 105.0625 353.121094 104.988281 352.796875 104.882812 352.476562 Z M 132.1875 325.175781 " fill-opacity="1" fill-rule="nonzero"/><path fill="#25197b" d="M 144.167969 357.273438 L 135.613281 365.828125 C 135.292969 365.722656 134.96875 365.648438 134.632812 365.617188 C 134.300781 365.582031 133.964844 365.585938 133.632812 365.625 C 133.300781 365.664062 132.972656 365.742188 132.65625 365.855469 C 132.339844 365.96875 132.042969 366.117188 131.757812 366.296875 C 131.476562 366.476562 131.214844 366.6875 130.980469 366.925781 C 130.742188 367.164062 130.535156 367.429688 130.359375 367.714844 C 130.179688 368 130.039062 368.300781 129.929688 368.617188 C 129.820312 368.9375 129.746094 369.261719 129.710938 369.597656 C 129.671875 369.929688 129.671875 370.265625 129.710938 370.597656 C 129.75 370.929688 129.824219 371.257812 129.9375 371.574219 C 130.046875 371.890625 130.195312 372.191406 130.375 372.476562 C 130.550781 372.761719 130.761719 373.023438 130.996094 373.257812 C 131.234375 373.496094 131.496094 373.707031 131.78125 373.882812 C 132.066406 374.0625 132.367188 374.207031 132.683594 374.320312 C 133 374.429688 133.324219 374.507812 133.660156 374.546875 C 133.992188 374.582031 134.328125 374.585938 134.660156 374.546875 C 134.996094 374.511719 135.320312 374.4375 135.640625 374.328125 C 135.957031 374.21875 136.257812 374.074219 136.542969 373.898438 C 136.828125 373.722656 137.089844 373.515625 137.332031 373.277344 C 137.570312 373.042969 137.78125 372.78125 137.960938 372.5 C 138.140625 372.214844 138.289062 371.914062 138.402344 371.601562 C 138.515625 371.285156 138.59375 370.957031 138.632812 370.625 C 138.671875 370.292969 138.675781 369.957031 138.640625 369.621094 C 138.605469 369.289062 138.535156 368.960938 138.429688 368.644531 L 148.152344 358.921875 L 148.152344 284.449219 L 144.167969 284.449219 Z M 144.167969 357.273438 " fill-opacity="1" fill-rule="nonzero"/><path fill="#25197b" d="M 182.265625 310.347656 L 182.265625 284.449219 L 178.285156 284.449219 L 178.285156 310.347656 C 177.984375 310.496094 177.703125 310.675781 177.441406 310.886719 C 177.179688 311.101562 176.945312 311.339844 176.738281 311.601562 C 176.53125 311.867188 176.355469 312.152344 176.214844 312.457031 C 176.070312 312.757812 175.960938 313.074219 175.890625 313.402344 C 175.816406 313.730469 175.78125 314.0625 175.785156 314.398438 C 175.785156 314.734375 175.824219 315.066406 175.902344 315.394531 C 175.976562 315.722656 176.089844 316.035156 176.238281 316.339844 C 176.382812 316.640625 176.5625 316.921875 176.773438 317.183594 C 176.984375 317.445312 177.21875 317.683594 177.484375 317.890625 C 177.746094 318.101562 178.03125 318.277344 178.332031 318.421875 C 178.636719 318.566406 178.953125 318.675781 179.277344 318.753906 C 179.605469 318.828125 179.9375 318.863281 180.273438 318.863281 C 180.609375 318.863281 180.941406 318.828125 181.269531 318.753906 C 181.597656 318.675781 181.914062 318.566406 182.214844 318.421875 C 182.519531 318.277344 182.800781 318.101562 183.066406 317.890625 C 183.328125 317.683594 183.566406 317.445312 183.777344 317.183594 C 183.988281 316.921875 184.164062 316.640625 184.3125 316.339844 C 184.460938 316.035156 184.570312 315.722656 184.648438 315.394531 C 184.722656 315.066406 184.765625 314.734375 184.765625 314.398438 C 184.769531 314.0625 184.734375 313.730469 184.660156 313.402344 C 184.585938 313.074219 184.480469 312.757812 184.335938 312.457031 C 184.191406 312.152344 184.019531 311.867188 183.808594 311.601562 C 183.601562 311.339844 183.371094 311.101562 183.109375 310.886719 C 182.847656 310.675781 182.566406 310.496094 182.265625 310.347656 Z M 182.265625 310.347656 " fill-opacity="1" fill-rule="nonzero"/><path fill="#25197b" d="M 165.757812 339.726562 L 165.757812 284.449219 L 161.777344 284.449219 L 161.777344 339.726562 C 161.476562 339.875 161.195312 340.054688 160.933594 340.269531 C 160.671875 340.480469 160.4375 340.71875 160.230469 340.984375 C 160.023438 341.246094 159.847656 341.53125 159.707031 341.835938 C 159.5625 342.140625 159.453125 342.457031 159.382812 342.785156 C 159.308594 343.113281 159.273438 343.445312 159.277344 343.78125 C 159.277344 344.117188 159.316406 344.449219 159.394531 344.773438 C 159.46875 345.101562 159.582031 345.417969 159.730469 345.71875 C 159.875 346.019531 160.054688 346.304688 160.265625 346.566406 C 160.476562 346.828125 160.710938 347.0625 160.976562 347.273438 C 161.238281 347.480469 161.523438 347.65625 161.824219 347.804688 C 162.128906 347.949219 162.445312 348.058594 162.769531 348.132812 C 163.097656 348.207031 163.429688 348.246094 163.765625 348.246094 C 164.101562 348.246094 164.433594 348.207031 164.761719 348.132812 C 165.089844 348.058594 165.40625 347.949219 165.707031 347.804688 C 166.011719 347.65625 166.292969 347.480469 166.558594 347.273438 C 166.820312 347.0625 167.058594 346.828125 167.269531 346.566406 C 167.480469 346.304688 167.65625 346.019531 167.804688 345.71875 C 167.953125 345.417969 168.0625 345.101562 168.140625 344.773438 C 168.21875 344.449219 168.257812 344.117188 168.257812 343.78125 C 168.261719 343.445312 168.226562 343.113281 168.152344 342.785156 C 168.078125 342.457031 167.972656 342.140625 167.828125 341.835938 C 167.683594 341.53125 167.511719 341.246094 167.300781 340.984375 C 167.09375 340.71875 166.863281 340.480469 166.601562 340.269531 C 166.339844 340.054688 166.058594 339.875 165.757812 339.726562 Z M 165.757812 339.726562 " fill-opacity="1" fill-rule="nonzero"/><path fill="#25197b" d="M 352.472656 104.886719 C 352.789062 104.996094 353.117188 105.066406 353.449219 105.101562 C 353.785156 105.136719 354.117188 105.132812 354.453125 105.09375 C 354.785156 105.050781 355.109375 104.976562 355.425781 104.859375 C 355.742188 104.746094 356.042969 104.601562 356.324219 104.417969 C 356.609375 104.238281 356.867188 104.027344 357.105469 103.789062 C 357.339844 103.550781 357.546875 103.289062 357.722656 103.003906 C 357.902344 102.71875 358.046875 102.417969 358.15625 102.097656 C 358.265625 101.78125 358.335938 101.453125 358.375 101.121094 C 358.410156 100.785156 358.410156 100.453125 358.371094 100.117188 C 358.332031 99.785156 358.257812 99.460938 358.144531 99.144531 C 358.035156 98.824219 357.890625 98.523438 357.710938 98.242188 C 357.53125 97.957031 357.324219 97.695312 357.085938 97.457031 C 356.847656 97.21875 356.585938 97.011719 356.300781 96.832031 C 356.019531 96.652344 355.71875 96.507812 355.398438 96.398438 C 355.082031 96.285156 354.757812 96.210938 354.421875 96.171875 C 354.089844 96.132812 353.757812 96.132812 353.421875 96.167969 C 353.089844 96.207031 352.761719 96.277344 352.445312 96.386719 C 352.125 96.496094 351.824219 96.640625 351.539062 96.820312 C 351.253906 96.996094 350.992188 97.203125 350.753906 97.4375 C 350.515625 97.675781 350.304688 97.933594 350.125 98.21875 C 349.941406 98.5 349.796875 98.800781 349.683594 99.117188 C 349.570312 99.433594 349.492188 99.757812 349.449219 100.089844 C 349.410156 100.425781 349.40625 100.757812 349.441406 101.09375 C 349.476562 101.425781 349.546875 101.753906 349.65625 102.070312 L 323.515625 128.21875 L 284.441406 128.21875 L 284.441406 132.199219 L 325.167969 132.199219 Z M 352.472656 104.886719 " fill-opacity="1" fill-rule="nonzero"/><path fill="#25197b" d="M 368.636719 138.433594 C 368.957031 138.542969 369.28125 138.613281 369.617188 138.648438 C 369.949219 138.683594 370.285156 138.679688 370.617188 138.640625 C 370.953125 138.597656 371.277344 138.519531 371.59375 138.40625 C 371.910156 138.292969 372.210938 138.148438 372.492188 137.964844 C 372.777344 137.785156 373.035156 137.574219 373.273438 137.335938 C 373.507812 137.097656 373.714844 136.835938 373.890625 136.550781 C 374.070312 136.265625 374.210938 135.964844 374.324219 135.644531 C 374.433594 135.328125 374.503906 135.003906 374.542969 134.667969 C 374.578125 134.332031 374.578125 134 374.539062 133.667969 C 374.5 133.332031 374.425781 133.007812 374.3125 132.691406 C 374.203125 132.371094 374.054688 132.070312 373.878906 131.789062 C 373.699219 131.503906 373.492188 131.242188 373.253906 131.003906 C 373.015625 130.765625 372.753906 130.558594 372.46875 130.378906 C 372.183594 130.199219 371.882812 130.054688 371.566406 129.945312 C 371.25 129.832031 370.925781 129.757812 370.589844 129.71875 C 370.257812 129.679688 369.921875 129.679688 369.589844 129.714844 C 369.253906 129.753906 368.929688 129.824219 368.613281 129.933594 C 368.292969 130.042969 367.992188 130.1875 367.707031 130.367188 C 367.421875 130.542969 367.160156 130.75 366.921875 130.984375 C 366.679688 131.222656 366.472656 131.480469 366.289062 131.765625 C 366.109375 132.046875 365.960938 132.347656 365.847656 132.664062 C 365.734375 132.980469 365.660156 133.304688 365.617188 133.640625 C 365.578125 133.972656 365.574219 134.304688 365.609375 134.640625 C 365.644531 134.976562 365.714844 135.300781 365.824219 135.621094 L 357.265625 144.175781 L 284.441406 144.175781 L 284.441406 148.15625 L 358.914062 148.15625 Z M 368.636719 138.433594 " fill-opacity="1" fill-rule="nonzero"/><path fill="#25197b" d="M 314.367188 184.773438 C 314.902344 184.773438 315.421875 184.679688 315.925781 184.492188 C 316.425781 184.308594 316.882812 184.039062 317.289062 183.691406 C 317.695312 183.34375 318.03125 182.933594 318.292969 182.464844 C 318.550781 181.996094 318.722656 181.496094 318.804688 180.964844 C 318.886719 180.4375 318.875 179.910156 318.765625 179.382812 C 318.660156 178.859375 318.464844 178.367188 318.179688 177.910156 C 317.898438 177.457031 317.546875 177.0625 317.121094 176.734375 C 316.699219 176.40625 316.230469 176.160156 315.71875 176 C 315.207031 175.835938 314.683594 175.769531 314.148438 175.796875 C 313.613281 175.820312 313.097656 175.9375 312.605469 176.148438 C 312.113281 176.359375 311.671875 176.648438 311.28125 177.015625 C 310.890625 177.386719 310.578125 177.808594 310.339844 178.289062 L 284.441406 178.289062 L 284.441406 182.273438 L 310.339844 182.273438 C 310.71875 183.039062 311.269531 183.644531 311.996094 184.097656 C 312.722656 184.546875 313.511719 184.773438 314.367188 184.773438 Z M 314.367188 184.773438 " fill-opacity="1" fill-rule="nonzero"/><path fill="#25197b" d="M 343.746094 168.261719 C 344.28125 168.261719 344.800781 168.167969 345.304688 167.984375 C 345.808594 167.796875 346.261719 167.53125 346.667969 167.179688 C 347.078125 166.832031 347.410156 166.421875 347.671875 165.953125 C 347.933594 165.484375 348.101562 164.984375 348.183594 164.457031 C 348.265625 163.925781 348.253906 163.398438 348.148438 162.875 C 348.039062 162.347656 347.84375 161.855469 347.5625 161.402344 C 347.277344 160.945312 346.925781 160.554688 346.503906 160.226562 C 346.078125 159.894531 345.613281 159.648438 345.101562 159.488281 C 344.589844 159.328125 344.066406 159.257812 343.53125 159.285156 C 342.992188 159.3125 342.480469 159.429688 341.984375 159.640625 C 341.492188 159.847656 341.050781 160.136719 340.660156 160.507812 C 340.273438 160.875 339.957031 161.300781 339.71875 161.78125 L 284.441406 161.78125 L 284.441406 165.761719 L 339.71875 165.761719 C 340.097656 166.527344 340.652344 167.136719 341.375 167.585938 C 342.101562 168.035156 342.890625 168.261719 343.746094 168.261719 Z M 343.746094 168.261719 " fill-opacity="1" fill-rule="nonzero"/><path fill="#25197b" d="M 352.472656 270.125 L 325.164062 242.820312 L 284.441406 242.820312 L 284.441406 246.800781 L 323.519531 246.800781 L 349.660156 272.941406 C 349.550781 273.257812 349.480469 273.585938 349.445312 273.921875 C 349.410156 274.253906 349.414062 274.589844 349.457031 274.921875 C 349.496094 275.253906 349.574219 275.582031 349.6875 275.898438 C 349.800781 276.214844 349.949219 276.511719 350.128906 276.796875 C 350.308594 277.078125 350.519531 277.339844 350.757812 277.574219 C 351 277.8125 351.261719 278.015625 351.546875 278.195312 C 351.832031 278.371094 352.132812 278.515625 352.453125 278.625 C 352.769531 278.734375 353.09375 278.808594 353.429688 278.84375 C 353.761719 278.878906 354.097656 278.878906 354.429688 278.839844 C 354.765625 278.800781 355.089844 278.726562 355.40625 278.613281 C 355.722656 278.5 356.023438 278.355469 356.308594 278.175781 C 356.59375 277.996094 356.855469 277.789062 357.089844 277.550781 C 357.328125 277.3125 357.539062 277.050781 357.714844 276.769531 C 357.894531 276.484375 358.039062 276.183594 358.152344 275.867188 C 358.261719 275.546875 358.335938 275.222656 358.375 274.890625 C 358.414062 274.554688 358.414062 274.222656 358.378906 273.886719 C 358.339844 273.554688 358.269531 273.226562 358.15625 272.910156 C 358.046875 272.59375 357.90625 272.289062 357.726562 272.003906 C 357.550781 271.71875 357.34375 271.457031 357.105469 271.21875 C 356.871094 270.980469 356.609375 270.769531 356.328125 270.589844 C 356.042969 270.410156 355.742188 270.261719 355.425781 270.148438 C 355.109375 270.035156 354.785156 269.960938 354.453125 269.917969 C 354.117188 269.878906 353.785156 269.875 353.449219 269.910156 C 353.117188 269.945312 352.789062 270.015625 352.472656 270.125 Z M 352.472656 270.125 " fill-opacity="1" fill-rule="nonzero"/><path fill="#25197b" d="M 368.636719 236.578125 L 358.914062 226.855469 L 284.441406 226.855469 L 284.441406 230.835938 L 357.265625 230.835938 L 365.824219 239.398438 C 365.714844 239.71875 365.644531 240.042969 365.609375 240.378906 C 365.574219 240.714844 365.578125 241.046875 365.617188 241.378906 C 365.660156 241.714844 365.734375 242.039062 365.847656 242.355469 C 365.960938 242.671875 366.109375 242.972656 366.289062 243.253906 C 366.472656 243.539062 366.679688 243.796875 366.921875 244.035156 C 367.160156 244.269531 367.421875 244.476562 367.707031 244.65625 C 367.992188 244.832031 368.292969 244.976562 368.613281 245.085938 C 368.929688 245.195312 369.253906 245.269531 369.589844 245.304688 C 369.921875 245.339844 370.257812 245.339844 370.589844 245.300781 C 370.925781 245.261719 371.25 245.1875 371.566406 245.074219 C 371.882812 244.964844 372.183594 244.820312 372.46875 244.640625 C 372.753906 244.460938 373.015625 244.253906 373.253906 244.015625 C 373.492188 243.777344 373.699219 243.515625 373.878906 243.230469 C 374.054688 242.949219 374.203125 242.648438 374.3125 242.332031 C 374.425781 242.011719 374.5 241.6875 374.539062 241.355469 C 374.578125 241.019531 374.578125 240.6875 374.542969 240.351562 C 374.503906 240.019531 374.433594 239.691406 374.324219 239.375 C 374.210938 239.058594 374.070312 238.753906 373.890625 238.46875 C 373.714844 238.183594 373.507812 237.921875 373.273438 237.683594 C 373.035156 237.445312 372.777344 237.234375 372.492188 237.054688 C 372.210938 236.871094 371.910156 236.726562 371.59375 236.613281 C 371.277344 236.5 370.953125 236.421875 370.617188 236.382812 C 370.285156 236.339844 369.949219 236.335938 369.617188 236.371094 C 369.28125 236.40625 368.957031 236.476562 368.636719 236.585938 Z M 368.636719 236.578125 " fill-opacity="1" fill-rule="nonzero"/><path fill="#25197b" d="M 314.367188 199.222656 C 314.902344 199.222656 315.421875 199.128906 315.925781 198.941406 C 316.425781 198.757812 316.882812 198.488281 317.289062 198.140625 C 317.695312 197.792969 318.03125 197.382812 318.292969 196.914062 C 318.550781 196.445312 318.722656 195.945312 318.804688 195.414062 C 318.886719 194.886719 318.875 194.359375 318.765625 193.832031 C 318.660156 193.308594 318.464844 192.816406 318.183594 192.359375 C 317.898438 191.90625 317.546875 191.511719 317.121094 191.183594 C 316.699219 190.855469 316.230469 190.609375 315.71875 190.449219 C 315.207031 190.285156 314.683594 190.21875 314.148438 190.246094 C 313.613281 190.269531 313.097656 190.390625 312.605469 190.597656 C 312.113281 190.808594 311.671875 191.097656 311.28125 191.46875 C 310.890625 191.835938 310.578125 192.261719 310.339844 192.742188 L 284.441406 192.742188 L 284.441406 196.722656 L 310.339844 196.722656 C 310.71875 197.488281 311.269531 198.097656 311.996094 198.546875 C 312.722656 198.996094 313.511719 199.222656 314.367188 199.222656 Z M 314.367188 199.222656 " fill-opacity="1" fill-rule="nonzero"/><path fill="#25197b" d="M 343.746094 215.730469 C 344.28125 215.730469 344.800781 215.636719 345.304688 215.453125 C 345.808594 215.265625 346.261719 215 346.667969 214.648438 C 347.078125 214.300781 347.410156 213.890625 347.671875 213.421875 C 347.933594 212.953125 348.101562 212.453125 348.183594 211.925781 C 348.265625 211.394531 348.253906 210.867188 348.148438 210.339844 C 348.039062 209.816406 347.84375 209.324219 347.5625 208.871094 C 347.277344 208.414062 346.925781 208.023438 346.503906 207.691406 C 346.078125 207.363281 345.613281 207.117188 345.101562 206.957031 C 344.589844 206.796875 344.066406 206.726562 343.53125 206.753906 C 342.992188 206.78125 342.480469 206.898438 341.984375 207.109375 C 341.492188 207.316406 341.050781 207.605469 340.660156 207.976562 C 340.273438 208.34375 339.957031 208.769531 339.71875 209.25 L 284.441406 209.25 L 284.441406 213.230469 L 339.71875 213.230469 C 340.097656 213.996094 340.652344 214.605469 341.375 215.054688 C 342.101562 215.503906 342.890625 215.730469 343.746094 215.730469 Z M 343.746094 215.730469 " fill-opacity="1" fill-rule="nonzero"/><path fill="#25197b" d="M 22.527344 270.125 C 22.210938 270.015625 21.882812 269.945312 21.550781 269.910156 C 21.214844 269.878906 20.882812 269.878906 20.546875 269.921875 C 20.214844 269.960938 19.890625 270.039062 19.574219 270.152344 C 19.257812 270.265625 18.957031 270.414062 18.675781 270.59375 C 18.390625 270.773438 18.132812 270.984375 17.894531 271.222656 C 17.660156 271.460938 17.453125 271.726562 17.277344 272.011719 C 17.097656 272.296875 16.953125 272.597656 16.84375 272.914062 C 16.734375 273.234375 16.664062 273.558594 16.625 273.890625 C 16.589844 274.226562 16.589844 274.558594 16.628906 274.894531 C 16.667969 275.226562 16.742188 275.554688 16.855469 275.871094 C 16.964844 276.1875 17.109375 276.488281 17.289062 276.773438 C 17.46875 277.058594 17.675781 277.316406 17.914062 277.554688 C 18.152344 277.792969 18.414062 278 18.699219 278.179688 C 18.980469 278.359375 19.28125 278.503906 19.601562 278.617188 C 19.917969 278.726562 20.242188 278.800781 20.578125 278.839844 C 20.910156 278.878906 21.242188 278.878906 21.578125 278.84375 C 21.910156 278.808594 22.238281 278.734375 22.554688 278.625 C 22.875 278.515625 23.175781 278.371094 23.460938 278.195312 C 23.746094 278.015625 24.007812 277.8125 24.246094 277.574219 C 24.484375 277.339844 24.695312 277.078125 24.875 276.796875 C 25.058594 276.511719 25.203125 276.210938 25.316406 275.894531 C 25.429688 275.582031 25.507812 275.253906 25.550781 274.921875 C 25.589844 274.589844 25.59375 274.253906 25.558594 273.917969 C 25.523438 273.585938 25.453125 273.257812 25.34375 272.941406 L 51.484375 246.800781 L 90.558594 246.800781 L 90.558594 242.820312 L 49.832031 242.820312 Z M 22.527344 270.125 " fill-opacity="1" fill-rule="nonzero"/><path fill="#25197b" d="M 6.363281 236.578125 C 6.042969 236.46875 5.71875 236.398438 5.382812 236.363281 C 5.050781 236.328125 4.714844 236.332031 4.382812 236.375 C 4.050781 236.414062 3.722656 236.488281 3.40625 236.601562 C 3.089844 236.714844 2.792969 236.863281 2.507812 237.042969 C 2.226562 237.222656 1.964844 237.433594 1.726562 237.671875 C 1.492188 237.910156 1.285156 238.171875 1.109375 238.457031 C 0.929688 238.742188 0.785156 239.046875 0.675781 239.363281 C 0.566406 239.679688 0.492188 240.007812 0.457031 240.339844 C 0.417969 240.675781 0.421875 241.007812 0.457031 241.339844 C 0.496094 241.675781 0.570312 242 0.683594 242.316406 C 0.792969 242.636719 0.9375 242.9375 1.117188 243.21875 C 1.296875 243.503906 1.503906 243.765625 1.742188 244.003906 C 1.976562 244.242188 2.238281 244.449219 2.523438 244.628906 C 2.808594 244.808594 3.109375 244.953125 3.425781 245.066406 C 3.742188 245.179688 4.066406 245.253906 4.402344 245.292969 C 4.734375 245.332031 5.066406 245.332031 5.402344 245.296875 C 5.734375 245.261719 6.0625 245.1875 6.378906 245.078125 C 6.699219 244.96875 7 244.828125 7.285156 244.652344 C 7.570312 244.472656 7.832031 244.265625 8.074219 244.03125 C 8.3125 243.796875 8.523438 243.535156 8.703125 243.253906 C 8.882812 242.96875 9.03125 242.671875 9.144531 242.355469 C 9.257812 242.039062 9.335938 241.714844 9.378906 241.378906 C 9.417969 241.046875 9.421875 240.714844 9.390625 240.378906 C 9.355469 240.042969 9.285156 239.71875 9.175781 239.398438 L 17.734375 230.84375 L 90.558594 230.84375 L 90.558594 226.863281 L 16.085938 226.863281 Z M 6.363281 236.578125 " fill-opacity="1" fill-rule="nonzero"/><path fill="#25197b" d="M 60.632812 190.242188 C 60.097656 190.242188 59.578125 190.332031 59.074219 190.519531 C 58.574219 190.707031 58.117188 190.972656 57.710938 191.320312 C 57.304688 191.671875 56.96875 192.082031 56.707031 192.546875 C 56.449219 193.015625 56.277344 193.515625 56.195312 194.046875 C 56.113281 194.578125 56.125 195.105469 56.234375 195.628906 C 56.339844 196.15625 56.535156 196.644531 56.820312 197.101562 C 57.101562 197.558594 57.453125 197.949219 57.878906 198.277344 C 58.300781 198.605469 58.769531 198.851562 59.28125 199.015625 C 59.792969 199.175781 60.316406 199.242188 60.851562 199.21875 C 61.386719 199.191406 61.902344 199.074219 62.394531 198.863281 C 62.886719 198.652344 63.328125 198.363281 63.71875 197.996094 C 64.109375 197.628906 64.421875 197.203125 64.660156 196.722656 L 90.558594 196.722656 L 90.558594 192.742188 L 64.660156 192.742188 C 64.28125 191.976562 63.730469 191.367188 63.003906 190.917969 C 62.277344 190.464844 61.488281 190.242188 60.632812 190.242188 Z M 60.632812 190.242188 " fill-opacity="1" fill-rule="nonzero"/><path fill="#25197b" d="M 31.253906 206.75 C 30.71875 206.75 30.199219 206.84375 29.695312 207.03125 C 29.191406 207.214844 28.738281 207.484375 28.332031 207.832031 C 27.921875 208.183594 27.589844 208.589844 27.328125 209.058594 C 27.066406 209.527344 26.898438 210.027344 26.816406 210.558594 C 26.734375 211.085938 26.746094 211.613281 26.851562 212.140625 C 26.960938 212.664062 27.15625 213.15625 27.4375 213.613281 C 27.722656 214.066406 28.074219 214.460938 28.496094 214.789062 C 28.921875 215.117188 29.386719 215.363281 29.898438 215.523438 C 30.410156 215.6875 30.933594 215.753906 31.46875 215.726562 C 32.007812 215.703125 32.519531 215.585938 33.015625 215.375 C 33.507812 215.164062 33.949219 214.875 34.339844 214.507812 C 34.726562 214.136719 35.042969 213.714844 35.28125 213.234375 L 90.558594 213.234375 L 90.558594 209.25 L 35.28125 209.25 C 34.902344 208.484375 34.347656 207.878906 33.625 207.425781 C 32.898438 206.976562 32.109375 206.75 31.253906 206.75 Z M 31.253906 206.75 " fill-opacity="1" fill-rule="nonzero"/><path fill="#25197b" d="M 25.339844 102.070312 C 25.449219 101.753906 25.519531 101.425781 25.554688 101.09375 C 25.589844 100.757812 25.585938 100.425781 25.542969 100.089844 C 25.503906 99.757812 25.425781 99.433594 25.3125 99.117188 C 25.199219 98.800781 25.050781 98.5 24.871094 98.21875 C 24.691406 97.933594 24.480469 97.675781 24.242188 97.4375 C 24 97.203125 23.738281 96.996094 23.453125 96.820312 C 23.167969 96.640625 22.867188 96.5 22.546875 96.390625 C 22.230469 96.28125 21.90625 96.207031 21.570312 96.171875 C 21.238281 96.132812 20.902344 96.136719 20.570312 96.175781 C 20.234375 96.210938 19.910156 96.289062 19.59375 96.398438 C 19.277344 96.511719 18.976562 96.65625 18.691406 96.835938 C 18.40625 97.015625 18.144531 97.222656 17.910156 97.460938 C 17.671875 97.699219 17.460938 97.960938 17.285156 98.246094 C 17.105469 98.53125 16.960938 98.832031 16.847656 99.148438 C 16.738281 99.464844 16.664062 99.789062 16.625 100.125 C 16.585938 100.457031 16.585938 100.792969 16.621094 101.125 C 16.660156 101.460938 16.730469 101.785156 16.84375 102.105469 C 16.953125 102.421875 17.09375 102.722656 17.273438 103.007812 C 17.449219 103.292969 17.65625 103.554688 17.894531 103.792969 C 18.128906 104.035156 18.390625 104.242188 18.671875 104.421875 C 18.957031 104.605469 19.257812 104.75 19.574219 104.863281 C 19.890625 104.976562 20.214844 105.054688 20.546875 105.09375 C 20.882812 105.132812 21.214844 105.136719 21.550781 105.101562 C 21.882812 105.066406 22.210938 104.996094 22.527344 104.886719 L 49.835938 132.191406 L 90.558594 132.191406 L 90.558594 128.210938 L 51.480469 128.210938 Z M 25.339844 102.070312 " fill-opacity="1" fill-rule="nonzero"/><path fill="#25197b" d="M 9.175781 135.621094 C 9.285156 135.300781 9.355469 134.976562 9.390625 134.640625 C 9.425781 134.304688 9.421875 133.972656 9.382812 133.640625 C 9.339844 133.304688 9.265625 132.980469 9.152344 132.664062 C 9.039062 132.347656 8.890625 132.046875 8.710938 131.765625 C 8.527344 131.480469 8.320312 131.222656 8.078125 130.984375 C 7.839844 130.75 7.578125 130.542969 7.292969 130.367188 C 7.007812 130.1875 6.707031 130.042969 6.386719 129.933594 C 6.070312 129.824219 5.746094 129.753906 5.410156 129.714844 C 5.078125 129.679688 4.742188 129.679688 4.410156 129.71875 C 4.074219 129.757812 3.75 129.832031 3.433594 129.945312 C 3.117188 130.054688 2.816406 130.199219 2.53125 130.378906 C 2.246094 130.558594 1.984375 130.765625 1.746094 131.003906 C 1.511719 131.242188 1.300781 131.503906 1.121094 131.789062 C 0.945312 132.070312 0.796875 132.371094 0.6875 132.691406 C 0.574219 133.007812 0.5 133.332031 0.460938 133.664062 C 0.421875 134 0.421875 134.332031 0.457031 134.667969 C 0.496094 135 0.566406 135.328125 0.675781 135.644531 C 0.789062 135.964844 0.929688 136.265625 1.109375 136.550781 C 1.285156 136.835938 1.492188 137.097656 1.726562 137.335938 C 1.964844 137.574219 2.222656 137.785156 2.507812 137.964844 C 2.789062 138.148438 3.089844 138.292969 3.40625 138.40625 C 3.722656 138.519531 4.046875 138.597656 4.382812 138.640625 C 4.714844 138.679688 5.050781 138.683594 5.382812 138.648438 C 5.71875 138.613281 6.042969 138.542969 6.363281 138.433594 L 16.085938 148.15625 L 90.558594 148.15625 L 90.558594 144.175781 L 17.734375 144.175781 Z M 9.175781 135.621094 " fill-opacity="1" fill-rule="nonzero"/><path fill="#25197b" d="M 60.632812 175.792969 C 60.097656 175.792969 59.578125 175.882812 59.074219 176.070312 C 58.574219 176.257812 58.117188 176.523438 57.710938 176.871094 C 57.304688 177.222656 56.96875 177.628906 56.707031 178.097656 C 56.449219 178.566406 56.277344 179.066406 56.195312 179.597656 C 56.113281 180.128906 56.125 180.65625 56.234375 181.179688 C 56.339844 181.707031 56.535156 182.195312 56.816406 182.652344 C 57.101562 183.109375 57.453125 183.5 57.878906 183.828125 C 58.300781 184.160156 58.769531 184.402344 59.28125 184.566406 C 59.792969 184.726562 60.316406 184.792969 60.851562 184.769531 C 61.386719 184.742188 61.902344 184.625 62.394531 184.414062 C 62.886719 184.203125 63.328125 183.914062 63.71875 183.546875 C 64.109375 183.175781 64.421875 182.753906 64.660156 182.273438 L 90.558594 182.273438 L 90.558594 178.289062 L 64.660156 178.289062 C 64.28125 177.523438 63.730469 176.917969 63.003906 176.464844 C 62.277344 176.015625 61.488281 175.792969 60.632812 175.792969 Z M 60.632812 175.792969 " fill-opacity="1" fill-rule="nonzero"/><path fill="#25197b" d="M 31.253906 159.285156 C 30.71875 159.285156 30.199219 159.375 29.695312 159.5625 C 29.191406 159.75 28.738281 160.015625 28.328125 160.363281 C 27.921875 160.714844 27.589844 161.125 27.328125 161.589844 C 27.066406 162.058594 26.894531 162.558594 26.8125 163.089844 C 26.734375 163.621094 26.746094 164.148438 26.851562 164.671875 C 26.960938 165.199219 27.15625 165.6875 27.4375 166.144531 C 27.722656 166.601562 28.074219 166.992188 28.496094 167.320312 C 28.921875 167.652344 29.386719 167.894531 29.898438 168.058594 C 30.410156 168.21875 30.933594 168.285156 31.46875 168.261719 C 32.007812 168.234375 32.519531 168.117188 33.015625 167.90625 C 33.507812 167.695312 33.949219 167.40625 34.339844 167.039062 C 34.726562 166.667969 35.042969 166.246094 35.28125 165.765625 L 90.558594 165.765625 L 90.558594 161.78125 L 35.28125 161.78125 C 34.902344 161.015625 34.347656 160.410156 33.625 159.957031 C 32.898438 159.507812 32.109375 159.285156 31.253906 159.285156 Z M 31.253906 159.285156 " fill-opacity="1" fill-rule="nonzero"/><path fill="#01e9fd" d="M 78.726562 79.175781 L 296.273438 79.175781 L 296.273438 296.71875 L 78.726562 296.71875 Z M 78.726562 79.175781 " fill-opacity="1" fill-rule="nonzero"/><path fill="#3945f2" d="M 90.59375 91.042969 L 284.40625 91.042969 L 284.40625 284.851562 L 90.59375 284.851562 Z M 90.59375 91.042969 " fill-opacity="1" fill-rule="nonzero"/><path fill="#01e9fd" d="M 160.902344 207.582031 L 155.207031 224.4375 L 139.695312 224.4375 L 164.476562 151.453125 L 184.300781 151.453125 L 210.152344 224.4375 L 193.5625 224.4375 L 187.566406 207.582031 Z M 184.167969 194.644531 C 178.992188 179.25 175.683594 169.402344 173.921875 162.84375 L 173.816406 162.84375 C 172.015625 170.039062 168.375 181.488281 164.21875 194.644531 Z M 184.167969 194.644531 " fill-opacity="1" fill-rule="nonzero"/><path fill="#01e9fd" d="M 219.523438 151.453125 L 235.304688 151.453125 L 235.304688 224.4375 L 219.523438 224.4375 Z M 219.523438 151.453125 " fill-opacity="1" fill-rule="nonzero"/><path fill="#25197b" d="M 110.089844 263.574219 L 264.910156 263.574219 L 264.910156 277.960938 L 110.089844 277.960938 Z M 110.089844 263.574219 " fill-opacity="1" fill-rule="nonzero"/><path fill="#25197b" d="M 110.089844 97.933594 L 264.910156 97.933594 L 264.910156 112.320312 L 110.089844 112.320312 Z M 110.089844 97.933594 " fill-opacity="1" fill-rule="nonzero"/><path fill="#25197b" d="M 263.160156 110.535156 L 277.546875 110.535156 L 277.546875 265.359375 L 263.160156 265.359375 Z M 263.160156 110.535156 " fill-opacity="1" fill-rule="nonzero"/><path fill="#25197b" d="M 97.453125 110.535156 L 111.839844 110.535156 L 111.839844 265.359375 L 97.453125 265.359375 Z M 97.453125 110.535156 " fill-opacity="1" fill-rule="nonzero"/><path fill="#01e9fd" d="M 270.140625 88.910156 L 286.570312 88.910156 L 286.570312 105.34375 L 270.140625 105.34375 Z M 270.140625 88.910156 " fill-opacity="1" fill-rule="nonzero"/><path fill="#01e9fd" d="M 270.140625 270.550781 L 286.570312 270.550781 L 286.570312 286.984375 L 270.140625 286.984375 Z M 270.140625 270.550781 " fill-opacity="1" fill-rule="nonzero"/><path fill="#01e9fd" d="M 88.429688 88.910156 L 104.863281 88.910156 L 104.863281 105.34375 L 88.429688 105.34375 Z M 88.429688 88.910156 " fill-opacity="1" fill-rule="nonzero"/><path fill="#01e9fd" d="M 88.429688 270.550781 L 104.863281 270.550781 L 104.863281 286.984375 L 88.429688 286.984375 Z M 88.429688 270.550781 " fill-opacity="1" fill-rule="nonzero"/><path fill="#25197b" d="M 255.433594 255.882812 L 119.566406 255.882812 L 119.566406 120.011719 L 255.433594 120.011719 Z M 123.8125 251.632812 L 251.1875 251.632812 L 251.1875 124.261719 L 123.8125 124.261719 Z M 123.8125 251.632812 " fill-opacity="1" fill-rule="nonzero"/></svg>