<svg xmlns="http://www.w3.org/2000/svg" xmlns:xlink="http://www.w3.org/1999/xlink" width="500" zoomAndPan="magnify" viewBox="0 0 375 374.999991" height="500" preserveAspectRatio="xMidYMid meet" version="1.0"><defs><clipPath id="e286b148fa"><path d="M 0 70.3125 L 317 70.3125 L 317 305.0625 L 0 305.0625 Z M 0 70.3125 " clip-rule="nonzero"/></clipPath><clipPath id="1e78f178ce"><path d="M 135.054688 290.324219 L 145.554688 290.324219 L 145.554688 300.824219 L 135.054688 300.824219 Z M 135.054688 290.324219 " clip-rule="nonzero"/></clipPath></defs><path fill="#000000" d="M 134.765625 246.375 C 131.542969 246.375 128.90625 249.015625 128.90625 252.242188 C 128.90625 255.472656 131.542969 258.113281 134.765625 258.113281 L 181.640625 258.113281 C 184.863281 258.113281 187.5 255.472656 187.5 252.242188 C 187.5 249.015625 184.863281 246.375 181.640625 246.375 Z M 134.765625 246.375 " fill-opacity="1" fill-rule="nonzero"/><path fill="#000000" d="M 53.027344 250.484375 C 53.027344 250.8125 52.996094 251.136719 52.933594 251.457031 C 52.867188 251.777344 52.773438 252.089844 52.648438 252.390625 C 52.523438 252.695312 52.371094 252.980469 52.1875 253.253906 C 52.007812 253.527344 51.800781 253.777344 51.570312 254.011719 C 51.335938 254.242188 51.085938 254.449219 50.8125 254.628906 C 50.542969 254.8125 50.253906 254.964844 49.953125 255.09375 C 49.652344 255.21875 49.339844 255.3125 49.019531 255.375 C 48.699219 255.441406 48.375 255.472656 48.046875 255.472656 C 47.71875 255.472656 47.394531 255.441406 47.074219 255.375 C 46.753906 255.3125 46.441406 255.21875 46.140625 255.09375 C 45.839844 254.964844 45.550781 254.8125 45.28125 254.628906 C 45.007812 254.449219 44.757812 254.242188 44.523438 254.011719 C 44.292969 253.777344 44.085938 253.527344 43.90625 253.253906 C 43.722656 252.980469 43.570312 252.695312 43.445312 252.390625 C 43.320312 252.089844 43.226562 251.777344 43.160156 251.457031 C 43.097656 251.136719 43.066406 250.8125 43.066406 250.484375 C 43.066406 250.15625 43.097656 249.832031 43.160156 249.511719 C 43.226562 249.1875 43.320312 248.875 43.445312 248.574219 C 43.570312 248.273438 43.722656 247.984375 43.90625 247.710938 C 44.085938 247.4375 44.292969 247.1875 44.523438 246.957031 C 44.757812 246.722656 45.007812 246.515625 45.28125 246.335938 C 45.550781 246.152344 45.839844 246 46.140625 245.875 C 46.441406 245.75 46.753906 245.65625 47.074219 245.589844 C 47.394531 245.527344 47.71875 245.496094 48.046875 245.496094 C 48.375 245.496094 48.699219 245.527344 49.019531 245.589844 C 49.339844 245.65625 49.652344 245.75 49.953125 245.875 C 50.253906 246 50.542969 246.152344 50.8125 246.335938 C 51.085938 246.515625 51.335938 246.722656 51.570312 246.957031 C 51.800781 247.1875 52.007812 247.4375 52.1875 247.710938 C 52.371094 247.984375 52.523438 248.273438 52.648438 248.574219 C 52.773438 248.875 52.867188 249.1875 52.933594 249.511719 C 52.996094 249.832031 53.027344 250.15625 53.027344 250.484375 Z M 53.027344 250.484375 " fill-opacity="1" fill-rule="nonzero"/><path fill="#000000" d="M 33.398438 250.484375 C 33.398438 250.8125 33.367188 251.136719 33.304688 251.457031 C 33.238281 251.777344 33.144531 252.089844 33.019531 252.390625 C 32.894531 252.695312 32.742188 252.980469 32.558594 253.253906 C 32.378906 253.527344 32.171875 253.777344 31.941406 254.011719 C 31.707031 254.242188 31.457031 254.449219 31.183594 254.628906 C 30.914062 254.8125 30.625 254.964844 30.324219 255.09375 C 30.023438 255.21875 29.710938 255.3125 29.390625 255.375 C 29.070312 255.441406 28.746094 255.472656 28.417969 255.472656 C 28.089844 255.472656 27.765625 255.441406 27.445312 255.375 C 27.125 255.3125 26.8125 255.21875 26.511719 255.09375 C 26.210938 254.964844 25.921875 254.8125 25.652344 254.628906 C 25.378906 254.449219 25.128906 254.242188 24.894531 254.011719 C 24.664062 253.777344 24.457031 253.527344 24.277344 253.253906 C 24.09375 252.980469 23.941406 252.695312 23.816406 252.390625 C 23.691406 252.089844 23.597656 251.777344 23.53125 251.457031 C 23.46875 251.136719 23.4375 250.8125 23.4375 250.484375 C 23.4375 250.15625 23.46875 249.832031 23.53125 249.511719 C 23.597656 249.1875 23.691406 248.875 23.816406 248.574219 C 23.941406 248.273438 24.09375 247.984375 24.277344 247.710938 C 24.457031 247.4375 24.664062 247.1875 24.894531 246.957031 C 25.128906 246.722656 25.378906 246.515625 25.652344 246.335938 C 25.921875 246.152344 26.210938 246 26.511719 245.875 C 26.8125 245.75 27.125 245.65625 27.445312 245.589844 C 27.765625 245.527344 28.089844 245.496094 28.417969 245.496094 C 28.746094 245.496094 29.070312 245.527344 29.390625 245.589844 C 29.710938 245.65625 30.023438 245.75 30.324219 245.875 C 30.625 246 30.914062 246.152344 31.183594 246.335938 C 31.457031 246.515625 31.707031 246.722656 31.941406 246.957031 C 32.171875 247.1875 32.378906 247.4375 32.558594 247.710938 C 32.742188 247.984375 32.894531 248.273438 33.019531 248.574219 C 33.144531 248.875 33.238281 249.1875 33.304688 249.511719 C 33.367188 249.832031 33.398438 250.15625 33.398438 250.484375 Z M 33.398438 250.484375 " fill-opacity="1" fill-rule="nonzero"/><path fill="#000000" d="M 130.957031 116.96875 C 129.199219 114.328125 125.390625 113.449219 122.753906 115.207031 L 70.019531 150.421875 C 68.261719 151.59375 67.382812 153.355469 67.382812 155.410156 C 67.382812 157.464844 68.261719 159.222656 70.019531 160.398438 C 70.019531 160.398438 122.753906 195.609375 122.753906 195.609375 C 125.390625 197.371094 129.199219 196.785156 130.957031 193.851562 C 132.714844 191.207031 132.128906 187.394531 129.199219 185.632812 L 83.789062 155.410156 L 129.199219 125.183594 C 131.835938 123.425781 132.714844 119.609375 130.957031 116.96875 Z M 130.957031 116.96875 " fill-opacity="1" fill-rule="nonzero"/><path fill="#000000" d="M 185.449219 193.851562 C 187.207031 196.492188 191.015625 197.371094 193.652344 195.609375 L 246.386719 160.398438 C 248.144531 159.222656 249.023438 157.464844 249.023438 155.410156 C 249.023438 153.355469 248.144531 151.59375 246.386719 150.421875 L 193.652344 115.207031 C 191.015625 113.449219 187.207031 114.035156 185.449219 116.96875 C 183.691406 119.609375 184.277344 123.425781 187.207031 125.183594 L 232.617188 155.410156 L 187.207031 185.632812 C 184.570312 187.394531 183.691406 191.207031 185.449219 193.851562 Z M 185.449219 193.851562 " fill-opacity="1" fill-rule="nonzero"/><path fill="#000000" d="M 164.355469 109.925781 L 140.917969 197.957031 C 140.039062 201.1875 142.089844 204.414062 145.019531 205 C 145.605469 205 145.898438 205.292969 146.484375 205.292969 C 149.121094 205.292969 151.464844 203.53125 152.050781 200.890625 L 175.488281 112.859375 C 176.367188 109.632812 174.316406 106.40625 171.386719 105.820312 C 168.457031 104.9375 165.234375 106.699219 164.355469 109.925781 Z M 164.355469 109.925781 " fill-opacity="1" fill-rule="nonzero"/><g clip-path="url(#e286b148fa)"><path fill="#000000" d="M 134.765625 293.324219 L 117.1875 293.324219 C 113.964844 293.324219 111.328125 295.964844 111.328125 299.195312 C 111.328125 302.421875 113.964844 305.0625 117.1875 305.0625 L 199.21875 305.0625 C 202.441406 305.0625 205.078125 302.421875 205.078125 299.195312 C 205.078125 295.964844 202.441406 293.324219 199.21875 293.324219 L 181.640625 293.324219 L 181.640625 275.71875 L 298.828125 275.71875 C 306.445312 275.71875 312.890625 270.730469 315.234375 263.980469 L 309.082031 263.980469 C 306.445312 263.980469 304.101562 263.6875 301.757812 262.808594 C 300.878906 263.394531 299.707031 263.980469 298.535156 263.980469 L 17.578125 263.980469 C 14.355469 263.980469 11.71875 261.339844 11.71875 258.113281 L 11.71875 240.507812 L 259.570312 240.507812 L 258.691406 239.625 C 255.761719 236.691406 253.417969 232.875 252.246094 228.769531 L 11.71875 228.769531 L 11.71875 87.917969 C 11.71875 84.691406 14.355469 82.050781 17.578125 82.050781 L 298.828125 82.050781 C 302.050781 82.050781 304.6875 84.691406 304.6875 87.917969 L 304.6875 117.847656 C 306.152344 117.554688 307.617188 117.261719 309.375 117.261719 L 316.40625 117.261719 L 316.40625 87.917969 C 316.40625 78.234375 308.496094 70.3125 298.828125 70.3125 L 17.578125 70.3125 C 7.910156 70.3125 0 78.234375 0 87.917969 L 0 258.113281 C 0 267.796875 7.910156 275.71875 17.578125 275.71875 L 134.765625 275.71875 Z M 146.484375 275.71875 L 169.921875 275.71875 L 169.921875 293.324219 L 146.484375 293.324219 Z M 146.484375 275.71875 " fill-opacity="1" fill-rule="nonzero"/></g><path fill="#000000" d="M 363.574219 172.136719 C 362.988281 170.667969 362.402344 169.496094 361.816406 168.027344 C 365.625 162.453125 365.039062 154.824219 360.058594 149.835938 L 354.199219 143.964844 C 351.5625 141.324219 347.753906 139.855469 343.945312 139.855469 C 341.015625 139.855469 338.378906 140.738281 336.035156 142.203125 C 334.863281 141.617188 333.398438 141.03125 331.933594 140.445312 C 330.46875 133.695312 324.609375 129 317.871094 129 L 309.667969 129 C 302.636719 129 296.777344 133.988281 295.605469 140.445312 C 294.140625 141.03125 292.96875 141.617188 291.503906 142.203125 C 289.160156 140.738281 286.523438 139.855469 283.59375 139.855469 C 279.785156 139.855469 275.976562 141.324219 273.339844 143.964844 L 267.480469 149.835938 C 262.5 154.824219 261.914062 162.453125 265.722656 168.027344 C 265.136719 169.199219 264.550781 170.667969 263.964844 172.136719 C 257.226562 173.601562 252.539062 179.472656 252.539062 186.21875 L 252.539062 194.4375 C 252.539062 201.480469 257.519531 207.347656 263.964844 208.523438 C 264.550781 209.988281 265.136719 211.164062 265.722656 212.628906 C 264.257812 214.976562 263.378906 217.617188 263.378906 220.550781 C 263.378906 224.367188 264.84375 228.183594 267.480469 230.824219 L 273.339844 236.691406 C 275.976562 239.332031 279.785156 240.800781 283.59375 240.800781 C 286.523438 240.800781 289.160156 239.917969 291.503906 238.453125 C 292.675781 239.039062 294.140625 239.625 295.605469 240.210938 C 297.070312 246.960938 302.929688 251.65625 309.667969 251.65625 L 317.871094 251.65625 C 324.902344 251.65625 330.761719 246.667969 331.933594 240.210938 C 333.398438 239.625 334.570312 239.039062 336.035156 238.453125 C 338.378906 239.917969 341.015625 240.800781 343.945312 240.800781 C 347.753906 240.800781 351.5625 239.332031 354.199219 236.691406 L 360.058594 230.824219 C 362.695312 228.183594 364.160156 224.367188 364.160156 220.550781 C 364.160156 217.617188 363.28125 214.976562 361.816406 212.628906 C 362.402344 211.457031 362.988281 209.988281 363.574219 208.523438 C 370.3125 207.054688 375 201.1875 375 194.4375 L 375 186.21875 C 375 179.472656 370.019531 173.601562 363.574219 172.136719 Z M 363.28125 194.730469 C 363.28125 196.195312 362.109375 197.371094 360.644531 197.371094 L 354.492188 197.371094 C 353.320312 203.828125 350.976562 209.402344 347.460938 214.390625 L 351.855469 218.792969 C 353.027344 219.964844 353.027344 221.726562 351.855469 222.605469 L 345.996094 228.476562 C 345.410156 229.0625 344.824219 229.355469 343.945312 229.355469 C 343.066406 229.355469 342.480469 229.0625 341.894531 228.476562 L 337.5 224.074219 C 332.519531 227.59375 326.660156 230.234375 320.507812 231.117188 L 320.507812 237.277344 C 320.507812 238.746094 319.335938 239.917969 317.871094 239.917969 L 309.667969 239.917969 C 308.203125 239.917969 307.03125 238.746094 307.03125 237.277344 L 307.03125 231.703125 C 300.585938 230.53125 295.019531 228.183594 290.039062 224.660156 L 285.058594 228.769531 C 284.472656 229.355469 283.886719 229.648438 283.007812 229.648438 C 282.128906 229.648438 281.835938 229.355469 281.25 228.769531 L 275.390625 222.898438 C 274.21875 221.726562 274.21875 219.964844 275.390625 219.085938 L 279.785156 214.683594 C 276.269531 209.695312 273.632812 203.828125 272.753906 197.664062 L 266.601562 197.664062 C 265.136719 197.664062 263.964844 196.492188 263.964844 195.023438 L 263.964844 186.808594 C 263.964844 185.339844 265.136719 184.167969 266.601562 184.167969 L 272.460938 184.167969 C 273.632812 177.710938 275.976562 172.136719 279.492188 167.148438 L 275.390625 162.160156 C 274.21875 160.984375 274.21875 159.222656 275.390625 158.34375 L 281.25 152.476562 C 281.835938 151.886719 282.421875 151.59375 283.300781 151.59375 C 284.179688 151.59375 284.765625 151.886719 285.351562 152.476562 L 289.746094 156.875 C 294.726562 153.355469 300.585938 150.714844 306.738281 149.835938 L 306.738281 143.671875 C 306.738281 142.203125 307.910156 141.03125 309.375 141.03125 L 317.578125 141.03125 C 319.042969 141.03125 320.214844 142.203125 320.214844 143.671875 L 320.214844 149.539062 C 326.660156 150.714844 332.226562 153.0625 337.207031 156.582031 L 341.601562 152.179688 C 342.1875 151.59375 342.773438 151.300781 343.652344 151.300781 C 344.53125 151.300781 345.117188 151.59375 345.703125 152.179688 L 351.5625 158.050781 C 352.734375 159.222656 352.734375 160.984375 351.5625 161.863281 L 347.167969 166.265625 C 350.683594 171.253906 353.320312 177.125 354.199219 183.285156 L 360.351562 183.285156 C 361.816406 183.285156 362.988281 184.460938 362.988281 185.925781 L 362.988281 194.730469 Z M 363.28125 194.730469 " fill-opacity="1" fill-rule="nonzero"/><path fill="#000000" d="M 313.476562 167.148438 C 300.585938 167.148438 290.039062 177.710938 290.039062 190.621094 C 290.039062 203.53125 300.585938 214.097656 313.476562 214.097656 C 326.367188 214.097656 336.914062 203.53125 336.914062 190.621094 C 336.914062 177.710938 326.367188 167.148438 313.476562 167.148438 Z M 313.476562 202.359375 C 307.03125 202.359375 301.757812 197.078125 301.757812 190.621094 C 301.757812 184.167969 307.03125 178.882812 313.476562 178.882812 C 319.921875 178.882812 325.195312 184.167969 325.195312 190.621094 C 325.195312 197.078125 319.921875 202.359375 313.476562 202.359375 Z M 313.476562 202.359375 " fill-opacity="1" fill-rule="nonzero"/><g clip-path="url(#1e78f178ce)"><path fill="#000000" d="M 140.921875 300.824219 L 139.6875 300.824219 C 139.625 300.824219 139.574219 300.78125 139.5625 300.726562 L 139.34375 299.71875 C 138.886719 299.613281 138.449219 299.433594 138.050781 299.183594 L 137.183594 299.742188 C 137.132812 299.773438 137.074219 299.765625 137.03125 299.722656 L 136.15625 298.84375 C 136.113281 298.808594 136.105469 298.738281 136.136719 298.691406 L 136.691406 297.824219 C 136.445312 297.421875 136.261719 296.992188 136.15625 296.53125 L 135.152344 296.316406 C 135.09375 296.304688 135.054688 296.25 135.054688 296.191406 L 135.054688 294.957031 C 135.054688 294.894531 135.09375 294.847656 135.152344 294.832031 L 136.15625 294.613281 C 136.261719 294.15625 136.445312 293.71875 136.691406 293.320312 L 136.136719 292.453125 C 136.105469 292.402344 136.113281 292.34375 136.15625 292.300781 L 137.03125 291.425781 C 137.074219 291.382812 137.132812 291.375 137.183594 291.40625 L 138.050781 291.960938 C 138.449219 291.714844 138.886719 291.53125 139.34375 291.425781 L 139.5625 290.421875 C 139.574219 290.367188 139.625 290.324219 139.6875 290.324219 L 140.921875 290.324219 C 140.984375 290.324219 141.035156 290.367188 141.046875 290.421875 L 141.261719 291.425781 C 141.722656 291.535156 142.160156 291.714844 142.558594 291.96875 L 143.425781 291.40625 C 143.476562 291.375 143.539062 291.382812 143.582031 291.425781 L 144.453125 292.300781 C 144.496094 292.34375 144.503906 292.402344 144.472656 292.453125 L 143.914062 293.320312 C 144.164062 293.71875 144.34375 294.15625 144.453125 294.613281 L 145.457031 294.832031 C 145.511719 294.847656 145.554688 294.894531 145.554688 294.957031 L 145.554688 296.191406 C 145.554688 296.253906 145.511719 296.304688 145.457031 296.316406 L 144.453125 296.539062 C 144.34375 296.992188 144.164062 297.429688 143.914062 297.828125 L 144.472656 298.695312 C 144.503906 298.746094 144.496094 298.808594 144.453125 298.851562 L 143.582031 299.722656 C 143.539062 299.765625 143.476562 299.773438 143.425781 299.742188 L 142.558594 299.1875 C 142.160156 299.433594 141.722656 299.617188 141.261719 299.722656 L 141.046875 300.726562 C 141.035156 300.78125 140.980469 300.824219 140.921875 300.824219 Z M 140.300781 298.578125 C 138.648438 298.578125 137.300781 297.230469 137.300781 295.570312 C 137.300781 293.917969 138.648438 292.570312 140.300781 292.570312 C 141.960938 292.570312 143.308594 293.917969 143.308594 295.570312 C 143.308594 297.230469 141.960938 298.578125 140.300781 298.578125 Z M 140.300781 298.578125 " fill-opacity="1" fill-rule="evenodd"/></g><path fill="#000000" d="M 138.578125 295.570312 L 139.238281 296.230469 C 139.390625 296.382812 139.28125 296.648438 139.058594 296.648438 C 138.996094 296.648438 138.9375 296.625 138.886719 296.574219 L 138.0625 295.75 C 137.964844 295.652344 137.964844 295.496094 138.0625 295.398438 L 138.886719 294.570312 C 138.949219 294.507812 139.035156 294.484375 139.121094 294.507812 C 139.304688 294.554688 139.375 294.777344 139.238281 294.917969 Z M 142.023438 295.570312 L 141.371094 294.917969 C 141.3125 294.859375 141.28125 294.773438 141.304688 294.6875 C 141.355469 294.507812 141.582031 294.433594 141.714844 294.570312 L 142.546875 295.398438 C 142.644531 295.496094 142.644531 295.652344 142.546875 295.75 L 141.714844 296.574219 C 141.671875 296.625 141.613281 296.648438 141.542969 296.648438 C 141.328125 296.648438 141.21875 296.382812 141.371094 296.230469 Z M 142.023438 295.570312 " fill-opacity="1" fill-rule="evenodd"/><path fill="#000000" d="M 139.75 296.777344 C 139.5625 296.777344 139.441406 296.574219 139.53125 296.40625 L 140.640625 294.488281 C 140.6875 294.414062 140.761719 294.367188 140.855469 294.367188 C 141.039062 294.371094 141.167969 294.570312 141.070312 294.734375 L 139.964844 296.652344 C 139.921875 296.726562 139.835938 296.777344 139.75 296.777344 Z M 139.75 296.777344 " fill-opacity="1" fill-rule="evenodd"/></svg>