<svg xmlns="http://www.w3.org/2000/svg" xmlns:xlink="http://www.w3.org/1999/xlink" width="500" zoomAndPan="magnify" viewBox="0 0 375 374.999991" height="500" preserveAspectRatio="xMidYMid meet" version="1.0"><defs><clipPath id="25e5e661f4"><path d="M 312 48.378906 L 318 48.378906 L 318 54.378906 L 312 54.378906 Z M 312 48.378906 " clip-rule="nonzero"/></clipPath><clipPath id="0ee97419d4"><path d="M 311.585938 52 L 315 52 L 315 54.378906 L 311.585938 54.378906 Z M 311.585938 52 " clip-rule="nonzero"/></clipPath></defs><path fill="#000000" d="M 267.808594 264.390625 C 274.25 279.289062 272.488281 294.816406 272.589844 310.15625 C 272.6875 325.449219 272.683594 340.742188 272.578125 356.035156 C 272.492188 367.40625 263.335938 374.992188 252.78125 372.675781 C 245.417969 371.058594 240.246094 364.648438 240.226562 356.730469 C 240.183594 335.113281 240.105469 313.5 240.324219 291.886719 C 240.4375 281.117188 237.265625 271.773438 229.992188 263.855469 C 225.308594 258.761719 223.601562 252.949219 226.109375 246.402344 C 228.542969 240.054688 233.507812 237.109375 240.1875 235.867188 C 252.4375 233.589844 264.871094 231.625 276.683594 227.832031 C 303.976562 219.078125 319.957031 199.582031 325.789062 171.796875 C 329.363281 154.761719 331.027344 137.554688 326.660156 120.347656 C 323.84375 109.25 318.589844 99.351562 310.773438 91.003906 C 305.0625 84.898438 303.695312 78.429688 306.523438 70.511719 C 310.738281 58.710938 311.167969 46.59375 308.066406 33.640625 C 303.8125 35.089844 299.59375 36.007812 295.863281 37.898438 C 286.425781 42.683594 276.988281 47.542969 267.984375 53.070312 C 261.945312 56.78125 256.183594 57.886719 249.320312 56.113281 C 216.257812 47.554688 183.167969 47.570312 150.058594 56.152344 C 143.347656 57.894531 137.554688 57.039062 131.769531 53.117188 C 120.460938 45.453125 108.5625 38.828125 95.351562 34.902344 C 94.171875 34.550781 92.957031 34.320312 91.472656 33.96875 C 89.015625 43.007812 88.820312 51.871094 90.492188 60.753906 C 91.234375 64.703125 92.425781 68.585938 93.640625 72.425781 C 95.605469 78.609375 94.78125 84.277344 90.378906 89.035156 C 75.96875 104.609375 69.570312 122.992188 70.40625 144.097656 C 70.988281 158.695312 72.757812 173.050781 78.199219 186.734375 C 87.019531 208.910156 103.828125 222.367188 126.074219 229.132812 C 136.523438 232.308594 147.398438 234.234375 158.191406 236.085938 C 169.148438 237.964844 175.632812 244.703125 174.183594 254.628906 C 173.722656 257.800781 172.082031 261.238281 169.957031 263.648438 C 162.269531 272.359375 158.988281 282.277344 159.167969 293.859375 C 159.484375 314.710938 159.320312 335.570312 159.242188 356.425781 C 159.207031 365.996094 152.351562 373.054688 143.308594 373.175781 C 134.207031 373.296875 127.171875 366.070312 127.078125 356.332031 C 126.992188 347.25 127.058594 338.167969 127.058594 329.566406 C 118.796875 329.566406 110.863281 329.992188 102.992188 329.480469 C 84.214844 328.257812 68.582031 320.070312 55.832031 306.472656 C 50.050781 300.308594 44.867188 293.582031 39.480469 287.058594 C 35.027344 281.671875 30.402344 276.894531 23.363281 274.457031 C 15.558594 271.757812 11.988281 262.476562 14.679688 254.640625 C 17.445312 246.589844 25.796875 242.160156 34.085938 244.285156 C 44.789062 247.035156 53.144531 253.386719 60.210938 261.554688 C 65.335938 267.476562 70.253906 273.582031 75.09375 279.738281 C 88.640625 296.976562 106.320312 300.558594 126.597656 295.703125 C 126.976562 290.308594 127.027344 284.996094 127.808594 279.792969 C 128.570312 274.710938 130.082031 269.738281 131.292969 264.597656 C 125.523438 262.839844 119.460938 261.207031 113.550781 259.148438 C 70.320312 244.101562 46.851562 212.917969 40.171875 168.371094 C 37.535156 150.816406 36.640625 133.179688 40.695312 115.625 C 43.921875 101.652344 49.695312 88.859375 58.222656 77.347656 C 59.6875 75.367188 60.210938 73.613281 59.648438 71.140625 C 55.097656 51.089844 56.75 31.503906 64.398438 12.429688 C 67.578125 4.511719 72.828125 1.328125 81.292969 0.929688 C 101.265625 -0.00390625 118.707031 7.667969 135.121094 17.507812 C 142.988281 22.226562 149.941406 23.078125 158.71875 21.332031 C 188.691406 15.378906 218.746094 16.246094 248.605469 22.675781 C 252.050781 23.414062 254.699219 23.074219 257.746094 21.210938 C 272.554688 12.136719 287.980469 4.316406 305.359375 1.558594 C 310.664062 0.71875 316.226562 0.71875 321.589844 1.203125 C 327.988281 1.78125 332.410156 5.660156 334.847656 11.675781 C 342.71875 31.085938 344.496094 50.996094 339.988281 71.492188 C 339.640625 73.074219 340.03125 75.324219 340.972656 76.613281 C 356.773438 98.273438 362.929688 122.574219 361.3125 149.117188 C 360.238281 166.742188 357.523438 184.011719 350.621094 200.398438 C 337.5625 231.386719 313.886719 250.328125 282.378906 260.28125 C 277.714844 261.753906 272.960938 262.945312 267.808594 264.390625 Z M 267.808594 264.390625 " fill-opacity="1" fill-rule="nonzero"/><g clip-path="url(#25e5e661f4)"><path fill="#3f6db4" d="M 312.4375 49.003906 C 312.457031 48.730469 312.535156 48.609375 312.753906 48.511719 C 312.992188 48.410156 313.367188 48.457031 313.808594 48.648438 C 313.996094 48.730469 314.015625 48.734375 314.347656 48.695312 C 314.789062 48.648438 315.359375 48.648438 315.769531 48.695312 C 316.078125 48.734375 316.097656 48.730469 316.285156 48.648438 C 316.910156 48.378906 317.40625 48.394531 317.585938 48.695312 C 317.671875 48.84375 317.691406 49.234375 317.621094 49.554688 C 317.582031 49.730469 317.585938 49.753906 317.679688 49.871094 C 318.328125 50.691406 317.859375 52.019531 316.746094 52.515625 C 316.660156 52.554688 316.589844 52.578125 316.53125 52.597656 C 316.351562 52.65625 316.296875 52.671875 316.363281 52.941406 C 316.394531 53.074219 316.433594 53.398438 316.449219 53.660156 C 316.476562 54.140625 316.476562 54.144531 316.375 54.242188 C 316.242188 54.375 316.050781 54.378906 315.917969 54.246094 C 315.835938 54.164062 315.824219 54.121094 315.824219 53.796875 C 315.824219 53.3125 315.765625 52.992188 315.617188 52.714844 C 315.445312 52.390625 315.574219 52.265625 315.96875 52.191406 C 316.523438 52.089844 316.957031 51.800781 317.195312 51.363281 C 317.425781 50.953125 317.460938 50.378906 317.046875 50.03125 C 316.929688 49.914062 316.917969 49.804688 317.003906 49.476562 C 317.035156 49.355469 317.0625 49.199219 317.0625 49.128906 C 317.0625 49.015625 317.050781 49 316.972656 49 C 316.921875 49 316.726562 49.0625 316.542969 49.140625 L 316.246094 49.261719 C 316.21875 49.273438 316.1875 49.277344 316.160156 49.273438 C 315.40625 49.199219 314.691406 49.199219 313.933594 49.273438 C 313.90625 49.277344 313.875 49.273438 313.847656 49.261719 L 313.550781 49.140625 C 313.367188 49.0625 313.175781 49 313.125 49 C 313.007812 49 313.003906 49.074219 313.113281 49.511719 C 313.175781 49.78125 313.21875 49.839844 313.03125 50.054688 C 312.75 50.375 312.679688 50.773438 312.832031 51.191406 C 313.023438 51.71875 313.488281 52.078125 314.144531 52.195312 C 314.539062 52.269531 314.644531 52.363281 314.492188 52.75 C 314.371094 53.054688 314.296875 53.132812 314.125 53.132812 C 313.894531 53.132812 313.746094 52.960938 313.828125 52.78125 C 313.863281 52.703125 313.851562 52.691406 313.632812 52.625 C 312.96875 52.417969 312.460938 51.953125 312.230469 51.339844 C 312.050781 50.867188 312.128906 50.25 312.417969 49.878906 C 312.515625 49.75 312.515625 49.738281 312.46875 49.496094 C 312.445312 49.359375 312.429688 49.136719 312.4375 49.003906 Z M 312.4375 49.003906 " fill-opacity="1" fill-rule="nonzero"/></g><g clip-path="url(#0ee97419d4)"><path fill="#3f6db4" d="M 312.207031 52.46875 C 312.113281 52.347656 311.917969 52.3125 311.773438 52.394531 C 311.628906 52.476562 311.589844 52.644531 311.6875 52.765625 C 311.757812 52.859375 311.84375 52.933594 311.914062 52.992188 C 311.925781 53.003906 311.941406 53.015625 311.953125 53.027344 C 312.011719 53.078125 312.066406 53.121094 312.121094 53.175781 C 312.238281 53.296875 312.355469 53.453125 312.421875 53.742188 C 312.453125 53.867188 312.558594 53.9375 312.617188 53.96875 C 312.683594 54 312.753906 54.019531 312.8125 54.03125 C 312.929688 54.058594 313.074219 54.070312 313.210938 54.078125 C 313.359375 54.085938 313.519531 54.089844 313.667969 54.089844 C 313.667969 54.238281 313.804688 54.359375 313.980469 54.359375 C 314.152344 54.359375 314.292969 54.238281 314.292969 54.089844 L 314.292969 53.824219 C 314.292969 53.675781 314.152344 53.554688 313.980469 53.554688 C 313.949219 53.554688 313.917969 53.554688 313.882812 53.554688 C 313.699219 53.554688 313.460938 53.554688 313.25 53.542969 C 313.148438 53.539062 313.066406 53.53125 313.003906 53.519531 C 312.910156 53.203125 312.757812 52.992188 312.59375 52.828125 C 312.523438 52.757812 312.449219 52.695312 312.390625 52.644531 C 312.378906 52.632812 312.367188 52.625 312.355469 52.617188 C 312.285156 52.554688 312.242188 52.511719 312.207031 52.46875 Z M 312.207031 52.46875 " fill-opacity="1" fill-rule="nonzero"/></g></svg>