<svg xmlns="http://www.w3.org/2000/svg" xmlns:xlink="http://www.w3.org/1999/xlink" width="500" zoomAndPan="magnify" viewBox="0 0 375 374.999991" height="500" preserveAspectRatio="xMidYMid meet" version="1.0"><defs><clipPath id="e3b0c269f8"><path d="M 202.609375 228.902344 L 213.109375 228.902344 L 213.109375 239.402344 L 202.609375 239.402344 Z M 202.609375 228.902344 " clip-rule="nonzero"/></clipPath><clipPath id="2fc80e4663"><path d="M 312 14.242188 L 346 14.242188 L 346 48 L 312 48 Z M 312 14.242188 " clip-rule="nonzero"/></clipPath><clipPath id="833079db41"><path d="M 39 14.242188 L 73 14.242188 L 73 48 L 39 48 Z M 39 14.242188 " clip-rule="nonzero"/></clipPath><clipPath id="172c991e40"><path d="M 3.980469 117 L 37 117 L 37 151 L 3.980469 151 Z M 3.980469 117 " clip-rule="nonzero"/></clipPath></defs><g clip-path="url(#e3b0c269f8)"><path fill="#000000" d="M 208.476562 239.402344 L 207.242188 239.402344 C 207.179688 239.402344 207.128906 239.359375 207.117188 239.304688 L 206.894531 238.292969 C 206.441406 238.191406 206.003906 238.011719 205.605469 237.757812 L 204.738281 238.320312 C 204.6875 238.351562 204.625 238.34375 204.582031 238.300781 L 203.710938 237.421875 C 203.667969 237.382812 203.660156 237.316406 203.691406 237.265625 L 204.246094 236.398438 C 204 236 203.8125 235.570312 203.710938 235.109375 L 202.707031 234.894531 C 202.644531 234.882812 202.609375 234.824219 202.609375 234.769531 L 202.609375 233.535156 C 202.609375 233.472656 202.644531 233.421875 202.707031 233.410156 L 203.710938 233.1875 C 203.8125 232.734375 204 232.296875 204.246094 231.898438 L 203.691406 231.03125 C 203.660156 230.980469 203.667969 230.917969 203.710938 230.875 L 204.582031 230.003906 C 204.625 229.960938 204.6875 229.953125 204.738281 229.984375 L 205.605469 230.539062 C 206.003906 230.292969 206.441406 230.109375 206.894531 230.003906 L 207.117188 229 C 207.128906 228.945312 207.179688 228.902344 207.242188 228.902344 L 208.476562 228.902344 C 208.539062 228.902344 208.585938 228.945312 208.601562 229 L 208.816406 230.003906 C 209.277344 230.113281 209.714844 230.292969 210.113281 230.542969 L 210.980469 229.984375 C 211.03125 229.953125 211.089844 229.960938 211.132812 230.003906 L 212.007812 230.875 C 212.050781 230.917969 212.058594 230.980469 212.027344 231.03125 L 211.464844 231.898438 C 211.71875 232.296875 211.898438 232.734375 212.007812 233.1875 L 213.011719 233.410156 C 213.066406 233.421875 213.109375 233.472656 213.109375 233.535156 L 213.109375 234.769531 C 213.109375 234.832031 213.066406 234.882812 213.011719 234.894531 L 212.007812 235.113281 C 211.898438 235.570312 211.71875 236.007812 211.464844 236.40625 L 212.027344 237.273438 C 212.058594 237.324219 212.050781 237.382812 212.007812 237.425781 L 211.132812 238.300781 C 211.089844 238.34375 211.03125 238.351562 210.980469 238.320312 L 210.113281 237.765625 C 209.714844 238.011719 209.277344 238.195312 208.816406 238.300781 L 208.601562 239.304688 C 208.585938 239.359375 208.53125 239.402344 208.476562 239.402344 Z M 207.855469 237.15625 C 206.199219 237.15625 204.855469 235.808594 204.855469 234.148438 C 204.855469 232.496094 206.199219 231.148438 207.855469 231.148438 C 209.515625 231.148438 210.863281 232.496094 210.863281 234.148438 C 210.863281 235.808594 209.515625 237.15625 207.855469 237.15625 Z M 207.855469 237.15625 " fill-opacity="1" fill-rule="evenodd"/></g><path fill="#000000" d="M 206.132812 234.148438 L 206.792969 234.808594 C 206.945312 234.960938 206.835938 235.226562 206.613281 235.226562 C 206.550781 235.226562 206.488281 235.199219 206.441406 235.152344 L 205.617188 234.328125 C 205.519531 234.230469 205.519531 234.074219 205.617188 233.976562 L 206.441406 233.144531 C 206.503906 233.085938 206.589844 233.058594 206.675781 233.085938 C 206.859375 233.132812 206.925781 233.355469 206.792969 233.496094 Z M 209.578125 234.148438 L 208.925781 233.496094 C 208.863281 233.433594 208.832031 233.347656 208.859375 233.261719 C 208.90625 233.085938 209.136719 233.011719 209.269531 233.144531 L 210.101562 233.976562 C 210.199219 234.074219 210.199219 234.230469 210.101562 234.328125 L 209.269531 235.152344 C 209.226562 235.199219 209.164062 235.226562 209.097656 235.226562 C 208.882812 235.226562 208.773438 234.960938 208.925781 234.808594 Z M 209.578125 234.148438 " fill-opacity="1" fill-rule="evenodd"/><path fill="#000000" d="M 207.300781 235.355469 C 207.117188 235.355469 206.996094 235.152344 207.085938 234.984375 L 208.195312 233.066406 C 208.242188 232.992188 208.316406 232.941406 208.410156 232.941406 C 208.59375 232.949219 208.722656 233.144531 208.625 233.3125 L 207.515625 235.230469 C 207.472656 235.304688 207.386719 235.355469 207.300781 235.355469 Z M 207.300781 235.355469 " fill-opacity="1" fill-rule="evenodd"/><path fill="#000000" d="M 148.445312 90.6875 C 146.671875 90.6875 145.015625 89.578125 144.410156 87.800781 C 143.394531 84.847656 142.878906 81.765625 142.878906 78.640625 C 142.878906 63.058594 155.554688 50.390625 171.125 50.390625 C 181.878906 50.390625 191.554688 56.367188 196.378906 65.988281 C 197.4375 68.097656 196.582031 70.660156 194.476562 71.71875 C 192.367188 72.777344 189.804688 71.921875 188.75 69.8125 C 185.375 63.09375 178.625 58.929688 171.113281 58.929688 C 160.25 58.929688 151.40625 67.773438 151.40625 78.640625 C 151.40625 80.816406 151.765625 82.96875 152.472656 85.035156 C 153.242188 87.261719 152.046875 89.695312 149.820312 90.457031 C 149.367188 90.609375 148.90625 90.6875 148.445312 90.6875 Z M 148.445312 90.6875 " fill-opacity="1" fill-rule="nonzero"/><path fill="#000000" d="M 128.054688 115.402344 C 126.714844 115.402344 125.390625 114.769531 124.566406 113.59375 C 121.183594 108.804688 119.402344 103.167969 119.402344 97.3125 C 119.402344 81.730469 132.074219 69.0625 147.644531 69.0625 C 150 69.0625 151.910156 70.972656 151.910156 73.332031 C 151.910156 75.6875 150 77.597656 147.644531 77.597656 C 136.777344 77.597656 127.9375 86.445312 127.9375 97.3125 C 127.9375 101.402344 129.183594 105.335938 131.539062 108.675781 C 132.894531 110.605469 132.433594 113.269531 130.511719 114.625 C 129.761719 115.15625 128.898438 115.402344 128.054688 115.402344 Z M 128.054688 115.402344 " fill-opacity="1" fill-rule="nonzero"/><path fill="#000000" d="M 130.359375 156.765625 C 129.703125 156.765625 129.046875 156.613281 128.421875 156.296875 C 118.941406 151.441406 113.042969 141.800781 113.042969 131.144531 C 113.042969 116.480469 124.496094 104.097656 139.117188 102.972656 C 141.464844 102.792969 143.519531 104.550781 143.699219 106.898438 C 143.878906 109.246094 142.121094 111.304688 139.773438 111.484375 C 129.566406 112.269531 121.578125 120.910156 121.578125 131.144531 C 121.578125 138.582031 125.691406 145.308594 132.304688 148.699219 C 134.40625 149.773438 135.234375 152.34375 134.15625 154.445312 C 133.40625 155.914062 131.914062 156.765625 130.359375 156.765625 Z M 130.359375 156.765625 " fill-opacity="1" fill-rule="nonzero"/><path fill="#000000" d="M 147.394531 196.160156 C 147.320312 196.160156 147.234375 196.160156 147.15625 196.148438 C 132.1875 195.332031 120.46875 182.933594 120.46875 167.941406 C 120.46875 154.835938 129.371094 143.542969 142.105469 140.46875 C 144.398438 139.921875 146.703125 141.332031 147.25 143.621094 C 147.804688 145.914062 146.386719 148.222656 144.101562 148.765625 C 135.207031 150.910156 129.003906 158.789062 129.003906 167.933594 C 129.003906 178.402344 137.179688 187.050781 147.625 187.621094 C 149.980469 187.75 151.78125 189.765625 151.65625 192.121094 C 151.527344 194.390625 149.640625 196.160156 147.394531 196.160156 Z M 147.394531 196.160156 " fill-opacity="1" fill-rule="nonzero"/><path fill="#000000" d="M 170.527344 213.796875 C 154.949219 213.796875 142.285156 201.121094 142.285156 185.546875 C 142.285156 173.003906 150.347656 162.136719 162.347656 158.5 C 164.601562 157.816406 166.984375 159.089844 167.667969 161.351562 C 168.347656 163.605469 167.078125 165.988281 164.816406 166.671875 C 156.441406 169.207031 150.808594 176.789062 150.808594 185.546875 C 150.808594 196.414062 159.652344 205.261719 170.515625 205.261719 C 178.429688 205.261719 185.539062 200.5625 188.644531 193.300781 C 189.566406 191.128906 192.078125 190.121094 194.246094 191.054688 C 196.414062 191.976562 197.417969 194.484375 196.488281 196.652344 C 192.050781 207.070312 181.851562 213.796875 170.527344 213.796875 Z M 170.527344 213.796875 " fill-opacity="1" fill-rule="nonzero"/><path fill="#000000" d="M 161.035156 120.5 C 159.113281 120.5 157.375 119.195312 156.894531 117.246094 C 153.582031 103.722656 163.21875 95.578125 168.777344 93.164062 C 170.933594 92.222656 173.453125 93.214844 174.390625 95.375 C 175.332031 97.527344 174.347656 100.035156 172.199219 100.984375 C 171.207031 101.425781 162.820312 105.542969 165.183594 115.214844 C 165.746094 117.503906 164.347656 119.816406 162.050781 120.378906 C 161.710938 120.457031 161.367188 120.5 161.035156 120.5 Z M 161.035156 120.5 " fill-opacity="1" fill-rule="nonzero"/><path fill="#000000" d="M 173.984375 159.890625 C 173.101562 159.890625 172.207031 159.617188 171.449219 159.054688 C 169.5625 157.65625 169.160156 155 170.542969 153.105469 C 171.175781 152.226562 176.390625 144.457031 169.5 137.265625 C 167.871094 135.570312 167.929688 132.863281 169.628906 131.230469 C 171.328125 129.601562 174.035156 129.660156 175.664062 131.359375 C 185.292969 141.417969 181.015625 153.285156 177.414062 158.160156 C 176.578125 159.285156 175.289062 159.890625 173.984375 159.890625 Z M 173.984375 159.890625 " fill-opacity="1" fill-rule="nonzero"/><path fill="#000000" d="M 192.570312 199.25 C 190.214844 199.25 188.304688 197.335938 188.304688 194.980469 L 188.304688 67.890625 C 188.304688 65.535156 190.214844 63.625 192.570312 63.625 C 194.925781 63.625 196.839844 65.535156 196.839844 67.890625 L 196.839844 194.972656 C 196.839844 197.335938 194.925781 199.25 192.570312 199.25 Z M 192.570312 199.25 " fill-opacity="1" fill-rule="nonzero"/><path fill="#000000" d="M 236.699219 90.6875 C 236.238281 90.6875 235.777344 90.609375 235.316406 90.457031 C 233.089844 89.6875 231.902344 87.261719 232.660156 85.035156 C 233.371094 82.976562 233.726562 80.828125 233.726562 78.640625 C 233.726562 67.773438 224.886719 58.929688 214.019531 58.929688 C 206.519531 58.929688 199.757812 63.101562 196.386719 69.8125 C 195.328125 71.921875 192.769531 72.765625 190.660156 71.71875 C 188.550781 70.667969 187.707031 68.097656 188.757812 65.988281 C 193.578125 56.367188 203.257812 50.390625 214.011719 50.390625 C 229.589844 50.390625 242.253906 63.070312 242.253906 78.640625 C 242.253906 81.765625 241.742188 84.847656 240.726562 87.800781 C 240.128906 89.578125 238.472656 90.6875 236.699219 90.6875 Z M 236.699219 90.6875 " fill-opacity="1" fill-rule="nonzero"/><path fill="#000000" d="M 257.089844 115.402344 C 256.234375 115.402344 255.382812 115.148438 254.628906 114.625 C 252.703125 113.269531 252.242188 110.605469 253.605469 108.675781 C 255.960938 105.328125 257.207031 101.402344 257.207031 97.3125 C 257.207031 86.445312 248.367188 77.597656 237.5 77.597656 C 235.144531 77.597656 233.234375 75.6875 233.234375 73.332031 C 233.234375 70.972656 235.144531 69.0625 237.5 69.0625 C 253.078125 69.0625 265.742188 81.738281 265.742188 97.3125 C 265.742188 103.175781 263.960938 108.804688 260.578125 113.59375 C 259.75 114.78125 258.429688 115.402344 257.089844 115.402344 Z M 257.089844 115.402344 " fill-opacity="1" fill-rule="nonzero"/><path fill="#000000" d="M 254.785156 156.765625 C 253.230469 156.765625 251.738281 155.921875 250.976562 154.445312 C 249.902344 152.34375 250.730469 149.773438 252.828125 148.699219 C 259.453125 145.308594 263.558594 138.582031 263.558594 131.144531 C 263.558594 120.910156 255.570312 112.277344 245.363281 111.484375 C 243.015625 111.304688 241.257812 109.246094 241.433594 106.898438 C 241.613281 104.550781 243.695312 102.792969 246.019531 102.972656 C 260.640625 104.097656 272.09375 116.46875 272.09375 131.144531 C 272.09375 141.808594 266.203125 151.441406 256.714844 156.296875 C 256.105469 156.613281 255.441406 156.765625 254.785156 156.765625 Z M 254.785156 156.765625 " fill-opacity="1" fill-rule="nonzero"/><path fill="#000000" d="M 237.746094 196.160156 C 235.496094 196.160156 233.617188 194.398438 233.488281 192.121094 C 233.359375 189.765625 235.160156 187.757812 237.519531 187.621094 C 247.964844 187.050781 256.140625 178.402344 256.140625 167.933594 C 256.140625 158.789062 249.925781 150.902344 241.042969 148.765625 C 238.753906 148.210938 237.339844 145.90625 237.894531 143.621094 C 238.449219 141.332031 240.742188 139.914062 243.039062 140.46875 C 255.78125 143.535156 264.675781 154.828125 264.675781 167.941406 C 264.675781 182.941406 252.949219 195.332031 237.988281 196.148438 C 237.910156 196.148438 237.832031 196.160156 237.746094 196.160156 Z M 237.746094 196.160156 " fill-opacity="1" fill-rule="nonzero"/><path fill="#000000" d="M 214.617188 213.796875 C 203.285156 213.796875 193.09375 207.070312 188.644531 196.652344 C 187.722656 194.484375 188.722656 191.976562 190.890625 191.054688 C 193.058594 190.132812 195.566406 191.140625 196.488281 193.300781 C 199.597656 200.5625 206.707031 205.261719 214.617188 205.261719 C 225.484375 205.261719 234.324219 196.414062 234.324219 185.546875 C 234.324219 176.796875 228.699219 169.207031 220.320312 166.671875 C 218.066406 165.988281 216.785156 163.605469 217.46875 161.351562 C 218.152344 159.097656 220.53125 157.816406 222.785156 158.5 C 234.785156 162.128906 242.851562 172.996094 242.851562 185.546875 C 242.867188 201.128906 230.195312 213.796875 214.617188 213.796875 Z M 214.617188 213.796875 " fill-opacity="1" fill-rule="nonzero"/><path fill="#000000" d="M 224.109375 120.5 C 223.777344 120.5 223.433594 120.457031 223.09375 120.378906 C 220.804688 119.816406 219.40625 117.511719 219.960938 115.214844 C 222.410156 105.226562 213.355469 101.164062 212.972656 100.992188 C 210.8125 100.054688 209.820312 97.535156 210.761719 95.375 C 211.699219 93.214844 214.207031 92.222656 216.375 93.164062 C 221.933594 95.578125 231.570312 103.722656 228.257812 117.246094 C 227.777344 119.195312 226.03125 120.5 224.109375 120.5 Z M 224.109375 120.5 " fill-opacity="1" fill-rule="nonzero"/><path fill="#000000" d="M 211.160156 159.890625 C 209.855469 159.890625 208.566406 159.292969 207.730469 158.160156 C 204.128906 153.285156 199.851562 141.417969 209.480469 131.359375 C 211.109375 129.660156 213.808594 129.601562 215.515625 131.230469 C 217.210938 132.863281 217.273438 135.570312 215.640625 137.265625 C 208.53125 144.695312 214.335938 152.746094 214.582031 153.085938 C 215.984375 154.984375 215.582031 157.65625 213.695312 159.054688 C 212.9375 159.617188 212.039062 159.890625 211.160156 159.890625 Z M 211.160156 159.890625 " fill-opacity="1" fill-rule="nonzero"/><path fill="#000000" d="M 223.878906 322.332031 L 161.273438 322.332031 C 146.132812 322.332031 133.816406 310.015625 133.816406 294.867188 C 133.816406 224.347656 118.742188 214.285156 104.164062 204.550781 C 90.433594 195.382812 76.238281 185.898438 76.238281 134.058594 C 76.238281 69.890625 128.429688 17.683594 192.582031 17.683594 C 256.730469 17.683594 308.921875 69.890625 308.921875 134.058594 C 308.921875 185.898438 294.726562 195.375 280.996094 204.550781 C 266.417969 214.285156 251.34375 224.359375 251.34375 294.867188 C 251.328125 310.015625 239.011719 322.332031 223.878906 322.332031 Z M 192.570312 26.230469 C 133.125 26.230469 84.765625 74.601562 84.765625 134.066406 C 84.765625 181.335938 95.945312 188.808594 108.894531 197.457031 C 124.574219 207.921875 142.34375 219.800781 142.34375 294.878906 C 142.34375 305.308594 150.828125 313.804688 161.265625 313.804688 L 223.871094 313.804688 C 234.300781 313.804688 242.792969 305.320312 242.792969 294.878906 C 242.792969 219.789062 260.5625 207.921875 276.242188 197.457031 C 289.1875 188.808594 300.371094 181.335938 300.371094 134.066406 C 300.378906 74.601562 252.019531 26.230469 192.570312 26.230469 Z M 192.570312 26.230469 " fill-opacity="1" fill-rule="nonzero"/><path fill="#000000" d="M 208.609375 274.796875 C 206.253906 274.796875 204.339844 272.886719 204.339844 270.527344 L 204.339844 208.777344 C 204.339844 206.421875 206.253906 204.507812 208.609375 204.507812 C 210.964844 204.507812 212.875 206.421875 212.875 208.777344 L 212.875 270.527344 C 212.875 272.886719 210.972656 274.796875 208.609375 274.796875 Z M 176.535156 274.796875 C 174.179688 274.796875 172.265625 272.886719 172.265625 270.527344 L 172.265625 208.777344 C 172.265625 206.421875 174.179688 204.507812 176.535156 204.507812 C 178.890625 204.507812 180.800781 206.421875 180.800781 208.777344 L 180.800781 270.527344 C 180.800781 272.886719 178.890625 274.796875 176.535156 274.796875 Z M 176.535156 274.796875 " fill-opacity="1" fill-rule="nonzero"/><path fill="#000000" d="M 247.488281 274.796875 L 137.359375 274.796875 C 135.003906 274.796875 133.089844 272.886719 133.089844 270.527344 C 133.089844 268.171875 135.003906 266.261719 137.359375 266.261719 L 247.488281 266.261719 C 249.84375 266.261719 251.753906 268.171875 251.753906 270.527344 C 251.753906 272.886719 249.84375 274.796875 247.488281 274.796875 Z M 247.488281 274.796875 " fill-opacity="1" fill-rule="nonzero"/><path fill="#000000" d="M 204.71875 366.328125 L 180.417969 366.328125 C 164.558594 366.328125 151.65625 353.417969 151.65625 337.554688 L 151.65625 317.449219 C 151.65625 315.09375 153.566406 313.183594 155.921875 313.183594 C 158.277344 313.183594 160.191406 315.09375 160.191406 317.449219 L 160.191406 337.554688 C 160.191406 348.714844 169.261719 357.789062 180.417969 357.789062 L 204.71875 357.789062 C 215.871094 357.789062 224.945312 348.714844 224.945312 337.554688 L 224.945312 317.449219 C 224.945312 315.09375 226.855469 313.183594 229.214844 313.183594 C 231.570312 313.183594 233.480469 315.09375 233.480469 317.449219 L 233.480469 337.554688 C 233.480469 353.417969 220.585938 366.328125 204.71875 366.328125 Z M 204.71875 366.328125 " fill-opacity="1" fill-rule="nonzero"/><path fill="#000000" d="M 192.570312 389.054688 C 183.710938 389.054688 176.5 381.839844 176.5 372.976562 L 176.5 362.058594 C 176.5 359.703125 178.414062 357.789062 180.769531 357.789062 C 183.125 357.789062 185.035156 359.703125 185.035156 362.058594 L 185.035156 372.976562 C 185.035156 377.136719 188.414062 380.515625 192.570312 380.515625 C 196.726562 380.515625 200.109375 377.136719 200.109375 372.976562 L 200.109375 362.058594 C 200.109375 359.703125 202.019531 357.789062 204.375 357.789062 C 206.730469 357.789062 208.644531 359.703125 208.644531 362.058594 L 208.644531 372.976562 C 208.644531 381.839844 201.429688 389.054688 192.570312 389.054688 Z M 192.570312 389.054688 " fill-opacity="1" fill-rule="nonzero"/><path fill="#000000" d="M 328.953125 228.953125 C 326.597656 228.953125 324.6875 227.039062 324.6875 224.683594 L 324.6875 168.121094 L 302.519531 168.121094 C 300.164062 168.121094 298.253906 166.210938 298.253906 163.851562 C 298.253906 161.496094 300.164062 159.585938 302.519531 159.585938 L 328.953125 159.585938 C 331.308594 159.585938 333.222656 161.496094 333.222656 163.851562 L 333.222656 224.683594 C 333.222656 227.039062 331.308594 228.953125 328.953125 228.953125 Z M 328.953125 228.953125 " fill-opacity="1" fill-rule="nonzero"/><path fill="#000000" d="M 328.050781 106.53125 L 300.078125 106.53125 C 297.722656 106.53125 295.8125 104.621094 295.8125 102.265625 C 295.8125 99.90625 297.722656 97.996094 300.078125 97.996094 L 323.78125 97.996094 L 323.78125 43.125 C 323.78125 40.769531 325.695312 38.855469 328.050781 38.855469 C 330.40625 38.855469 332.316406 40.769531 332.316406 43.125 L 332.316406 102.265625 C 332.316406 104.621094 330.40625 106.53125 328.050781 106.53125 Z M 328.050781 106.53125 " fill-opacity="1" fill-rule="nonzero"/><path fill="#000000" d="M 328.953125 253.402344 C 319.863281 253.402344 312.464844 246 312.464844 236.90625 C 312.464844 227.816406 319.863281 220.414062 328.953125 220.414062 C 338.042969 220.414062 345.445312 227.816406 345.445312 236.90625 C 345.445312 246 338.042969 253.402344 328.953125 253.402344 Z M 328.953125 228.953125 C 324.566406 228.953125 321 232.519531 321 236.90625 C 321 241.296875 324.566406 244.863281 328.953125 244.863281 C 333.339844 244.863281 336.910156 241.296875 336.910156 236.90625 C 336.910156 232.519531 333.332031 228.953125 328.953125 228.953125 Z M 328.953125 228.953125 " fill-opacity="1" fill-rule="nonzero"/><g clip-path="url(#2fc80e4663)"><path fill="#000000" d="M 328.953125 47.394531 C 319.863281 47.394531 312.464844 39.992188 312.464844 30.898438 C 312.464844 21.808594 319.863281 14.40625 328.953125 14.40625 C 338.042969 14.40625 345.445312 21.808594 345.445312 30.898438 C 345.445312 39.992188 338.042969 47.394531 328.953125 47.394531 Z M 328.953125 22.941406 C 324.566406 22.941406 321 26.511719 321 30.898438 C 321 35.289062 324.566406 38.855469 328.953125 38.855469 C 333.339844 38.855469 336.910156 35.289062 336.910156 30.898438 C 336.910156 26.511719 333.332031 22.941406 328.953125 22.941406 Z M 328.953125 22.941406 " fill-opacity="1" fill-rule="nonzero"/></g><path fill="#000000" d="M 352.484375 138.324219 L 304.644531 138.324219 C 302.289062 138.324219 300.378906 136.414062 300.378906 134.058594 C 300.378906 131.699219 302.289062 129.789062 304.644531 129.789062 L 352.484375 129.789062 C 354.839844 129.789062 356.753906 131.699219 356.753906 134.058594 C 356.753906 136.414062 354.839844 138.324219 352.484375 138.324219 Z M 352.484375 138.324219 " fill-opacity="1" fill-rule="nonzero"/><path fill="#000000" d="M 364.707031 150.550781 C 355.617188 150.550781 348.21875 143.148438 348.21875 134.058594 C 348.21875 124.964844 355.617188 117.5625 364.707031 117.5625 C 373.796875 117.5625 381.195312 124.964844 381.195312 134.058594 C 381.195312 143.148438 373.796875 150.550781 364.707031 150.550781 Z M 364.707031 126.109375 C 360.320312 126.109375 356.753906 129.675781 356.753906 134.066406 C 356.753906 138.453125 360.320312 142.023438 364.707031 142.023438 C 369.09375 142.023438 372.660156 138.453125 372.660156 134.066406 C 372.660156 129.675781 369.09375 126.109375 364.707031 126.109375 Z M 364.707031 126.109375 " fill-opacity="1" fill-rule="nonzero"/><path fill="#000000" d="M 56.191406 228.953125 C 53.835938 228.953125 51.921875 227.039062 51.921875 224.683594 L 51.921875 163.851562 C 51.921875 161.496094 53.835938 159.585938 56.191406 159.585938 L 82.625 159.585938 C 84.980469 159.585938 86.890625 161.496094 86.890625 163.851562 C 86.890625 166.210938 84.980469 168.121094 82.625 168.121094 L 60.457031 168.121094 L 60.457031 224.683594 C 60.457031 227.039062 58.554688 228.953125 56.191406 228.953125 Z M 56.191406 228.953125 " fill-opacity="1" fill-rule="nonzero"/><path fill="#000000" d="M 85.074219 106.53125 L 57.09375 106.53125 C 54.738281 106.53125 52.828125 104.621094 52.828125 102.265625 L 52.828125 43.125 C 52.828125 40.769531 54.738281 38.855469 57.09375 38.855469 C 59.449219 38.855469 61.363281 40.769531 61.363281 43.125 L 61.363281 97.996094 L 85.0625 97.996094 C 87.417969 97.996094 89.332031 99.90625 89.332031 102.265625 C 89.332031 104.621094 87.429688 106.53125 85.074219 106.53125 Z M 85.074219 106.53125 " fill-opacity="1" fill-rule="nonzero"/><path fill="#000000" d="M 56.191406 253.402344 C 47.101562 253.402344 39.699219 246 39.699219 236.90625 C 39.699219 227.816406 47.101562 220.414062 56.191406 220.414062 C 65.28125 220.414062 72.679688 227.816406 72.679688 236.90625 C 72.679688 246 65.289062 253.402344 56.191406 253.402344 Z M 56.191406 228.953125 C 51.804688 228.953125 48.234375 232.519531 48.234375 236.90625 C 48.234375 241.296875 51.804688 244.863281 56.191406 244.863281 C 60.578125 244.863281 64.144531 241.296875 64.144531 236.90625 C 64.144531 232.519531 60.578125 228.953125 56.191406 228.953125 Z M 56.191406 228.953125 " fill-opacity="1" fill-rule="nonzero"/><g clip-path="url(#833079db41)"><path fill="#000000" d="M 56.191406 47.394531 C 47.101562 47.394531 39.699219 39.992188 39.699219 30.898438 C 39.699219 21.808594 47.101562 14.40625 56.191406 14.40625 C 65.28125 14.40625 72.679688 21.808594 72.679688 30.898438 C 72.679688 39.992188 65.289062 47.394531 56.191406 47.394531 Z M 56.191406 22.941406 C 51.804688 22.941406 48.234375 26.511719 48.234375 30.898438 C 48.234375 35.289062 51.804688 38.855469 56.191406 38.855469 C 60.578125 38.855469 64.144531 35.289062 64.144531 30.898438 C 64.144531 26.511719 60.578125 22.941406 56.191406 22.941406 Z M 56.191406 22.941406 " fill-opacity="1" fill-rule="nonzero"/></g><path fill="#000000" d="M 80.496094 138.324219 L 32.660156 138.324219 C 30.304688 138.324219 28.390625 136.414062 28.390625 134.058594 C 28.390625 131.699219 30.304688 129.789062 32.660156 129.789062 L 80.496094 129.789062 C 82.855469 129.789062 84.765625 131.699219 84.765625 134.058594 C 84.765625 136.414062 82.855469 138.324219 80.496094 138.324219 Z M 80.496094 138.324219 " fill-opacity="1" fill-rule="nonzero"/><g clip-path="url(#172c991e40)"><path fill="#000000" d="M 20.4375 150.550781 C 11.347656 150.550781 3.945312 143.148438 3.945312 134.058594 C 3.945312 124.964844 11.347656 117.5625 20.4375 117.5625 C 29.527344 117.5625 36.925781 124.964844 36.925781 134.058594 C 36.925781 143.148438 29.527344 150.550781 20.4375 150.550781 Z M 20.4375 126.109375 C 16.050781 126.109375 12.480469 129.675781 12.480469 134.066406 C 12.480469 138.453125 16.050781 142.023438 20.4375 142.023438 C 24.824219 142.023438 28.390625 138.453125 28.390625 134.066406 C 28.390625 129.675781 24.824219 126.109375 20.4375 126.109375 Z M 20.4375 126.109375 " fill-opacity="1" fill-rule="nonzero"/></g></svg>