<svg xmlns="http://www.w3.org/2000/svg" xmlns:xlink="http://www.w3.org/1999/xlink" width="500" zoomAndPan="magnify" viewBox="0 0 375 374.999991" height="500" preserveAspectRatio="xMidYMid meet" version="1.0"><defs><clipPath id="fa366c8c5b"><path d="M 313.085938 19.128906 L 316 19.128906 L 316 21.378906 L 313.085938 21.378906 Z M 313.085938 19.128906 " clip-rule="nonzero"/></clipPath><clipPath id="f30d84fe85"><path d="M 313.085938 20 L 315 20 L 315 21.378906 L 313.085938 21.378906 Z M 313.085938 20 " clip-rule="nonzero"/></clipPath><clipPath id="43078c03d6"><path d="M 102.1875 0 L 273.1875 0 L 273.1875 323 L 102.1875 323 Z M 102.1875 0 " clip-rule="nonzero"/></clipPath></defs><g clip-path="url(#fa366c8c5b)"><path fill="#3f6db4" d="M 313.464844 19.363281 C 313.472656 19.261719 313.507812 19.214844 313.605469 19.179688 C 313.710938 19.140625 313.875 19.160156 314.070312 19.230469 C 314.15625 19.261719 314.164062 19.261719 314.3125 19.246094 C 314.507812 19.230469 314.761719 19.230469 314.945312 19.246094 C 315.082031 19.261719 315.089844 19.261719 315.175781 19.230469 C 315.453125 19.128906 315.671875 19.136719 315.753906 19.246094 C 315.792969 19.304688 315.800781 19.449219 315.769531 19.570312 C 315.75 19.636719 315.753906 19.644531 315.792969 19.6875 C 316.085938 19.996094 315.875 20.492188 315.378906 20.679688 C 315.34375 20.695312 315.308594 20.703125 315.285156 20.710938 C 315.203125 20.730469 315.179688 20.738281 315.210938 20.839844 C 315.222656 20.890625 315.242188 21.011719 315.246094 21.109375 C 315.257812 21.289062 315.257812 21.289062 315.214844 21.328125 C 315.15625 21.378906 315.070312 21.378906 315.011719 21.328125 C 314.972656 21.296875 314.96875 21.28125 314.96875 21.160156 C 314.96875 20.980469 314.941406 20.859375 314.878906 20.753906 C 314.800781 20.632812 314.859375 20.585938 315.035156 20.558594 C 315.28125 20.519531 315.472656 20.410156 315.578125 20.25 C 315.679688 20.09375 315.695312 19.878906 315.511719 19.75 C 315.460938 19.703125 315.457031 19.664062 315.496094 19.539062 C 315.507812 19.496094 315.519531 19.4375 315.519531 19.410156 C 315.519531 19.367188 315.515625 19.363281 315.480469 19.363281 C 315.457031 19.363281 315.371094 19.386719 315.289062 19.414062 L 315.15625 19.460938 C 315.144531 19.464844 315.132812 19.464844 315.117188 19.464844 C 314.785156 19.4375 314.464844 19.4375 314.128906 19.464844 C 314.117188 19.464844 314.101562 19.464844 314.089844 19.460938 L 313.957031 19.414062 C 313.875 19.386719 313.789062 19.363281 313.769531 19.363281 C 313.714844 19.363281 313.714844 19.390625 313.761719 19.554688 C 313.792969 19.652344 313.8125 19.675781 313.726562 19.757812 C 313.601562 19.878906 313.570312 20.027344 313.636719 20.183594 C 313.722656 20.382812 313.929688 20.515625 314.222656 20.558594 C 314.398438 20.585938 314.445312 20.621094 314.375 20.769531 C 314.324219 20.882812 314.289062 20.910156 314.214844 20.910156 C 314.109375 20.910156 314.046875 20.847656 314.082031 20.78125 C 314.097656 20.75 314.09375 20.746094 313.996094 20.722656 C 313.699219 20.644531 313.472656 20.46875 313.371094 20.238281 C 313.289062 20.0625 313.324219 19.832031 313.453125 19.691406 C 313.496094 19.644531 313.496094 19.640625 313.476562 19.546875 C 313.464844 19.496094 313.460938 19.414062 313.464844 19.363281 Z M 313.464844 19.363281 " fill-opacity="1" fill-rule="nonzero"/></g><g clip-path="url(#f30d84fe85)"><path fill="#3f6db4" d="M 313.359375 20.664062 C 313.316406 20.617188 313.230469 20.605469 313.167969 20.636719 C 313.105469 20.664062 313.085938 20.726562 313.128906 20.773438 C 313.160156 20.808594 313.199219 20.835938 313.230469 20.859375 C 313.234375 20.863281 313.242188 20.867188 313.246094 20.871094 C 313.273438 20.890625 313.296875 20.90625 313.320312 20.929688 C 313.375 20.972656 313.425781 21.03125 313.457031 21.140625 C 313.46875 21.1875 313.515625 21.214844 313.542969 21.222656 C 313.570312 21.238281 313.601562 21.242188 313.628906 21.25 C 313.683594 21.257812 313.746094 21.261719 313.804688 21.265625 C 313.871094 21.269531 313.945312 21.269531 314.007812 21.269531 C 314.007812 21.324219 314.070312 21.371094 314.148438 21.371094 C 314.226562 21.371094 314.289062 21.324219 314.289062 21.269531 L 314.289062 21.171875 C 314.289062 21.113281 314.226562 21.070312 314.148438 21.070312 C 314.136719 21.070312 314.121094 21.070312 314.105469 21.070312 C 314.023438 21.070312 313.917969 21.070312 313.824219 21.066406 C 313.78125 21.0625 313.742188 21.0625 313.714844 21.058594 C 313.671875 20.9375 313.605469 20.859375 313.53125 20.796875 C 313.5 20.769531 313.46875 20.746094 313.441406 20.726562 C 313.4375 20.722656 313.429688 20.722656 313.425781 20.71875 C 313.394531 20.695312 313.375 20.679688 313.359375 20.664062 Z M 313.359375 20.664062 " fill-opacity="1" fill-rule="nonzero"/></g><g clip-path="url(#43078c03d6)"><path fill="#689f38" d="M 273.101562 204.546875 C 273.101562 93.75 187.6875 0 187.6875 0 C 187.6875 0 102.273438 93.75 102.273438 204.546875 C 102.273438 295.722656 160.082031 317.625 180.5625 322.527344 L 187.6875 59.660156 L 194.8125 322.527344 C 215.292969 317.625 273.101562 295.722656 273.101562 204.546875 Z M 273.101562 204.546875 " fill-opacity="1" fill-rule="nonzero"/></g><path fill="#689f38" d="M 180.5625 322.527344 L 179.144531 375 L 196.230469 375 L 194.8125 322.527344 C 190.402344 323.582031 187.6875 323.863281 187.6875 323.863281 C 187.6875 323.863281 184.972656 323.582031 180.5625 322.527344 Z M 180.5625 322.527344 " fill-opacity="1" fill-rule="nonzero"/></svg>