<svg xmlns="http://www.w3.org/2000/svg" xmlns:xlink="http://www.w3.org/1999/xlink" width="500" zoomAndPan="magnify" viewBox="0 0 375 374.999991" height="500" preserveAspectRatio="xMidYMid meet" version="1.0"><defs><clipPath id="875d7a4c9d"><path d="M 229.3125 337.5 L 239.8125 337.5 L 239.8125 348 L 229.3125 348 Z M 229.3125 337.5 " clip-rule="nonzero"/></clipPath><clipPath id="328bae65e2"><path d="M 4.824219 32 L 375 32 L 375 352.949219 L 4.824219 352.949219 Z M 4.824219 32 " clip-rule="nonzero"/></clipPath></defs><g clip-path="url(#875d7a4c9d)"><path fill="#000000" d="M 235.179688 348 L 233.945312 348 C 233.882812 348 233.835938 347.957031 233.820312 347.902344 L 233.601562 346.894531 C 233.144531 346.789062 232.707031 346.609375 232.308594 346.359375 L 231.441406 346.917969 C 231.390625 346.949219 231.332031 346.941406 231.289062 346.898438 L 230.414062 346.019531 C 230.371094 345.980469 230.363281 345.914062 230.394531 345.867188 L 230.949219 345 C 230.703125 344.597656 230.519531 344.167969 230.414062 343.707031 L 229.410156 343.492188 C 229.351562 343.480469 229.3125 343.421875 229.3125 343.367188 L 229.3125 342.132812 C 229.3125 342.070312 229.351562 342.019531 229.410156 342.007812 L 230.414062 341.789062 C 230.519531 341.332031 230.703125 340.894531 230.949219 340.496094 L 230.394531 339.628906 C 230.363281 339.578125 230.371094 339.515625 230.414062 339.472656 L 231.289062 338.601562 C 231.332031 338.558594 231.390625 338.550781 231.441406 338.582031 L 232.308594 339.136719 C 232.707031 338.890625 233.144531 338.707031 233.601562 338.601562 L 233.820312 337.597656 C 233.835938 337.542969 233.882812 337.5 233.945312 337.5 L 235.179688 337.5 C 235.242188 337.5 235.292969 337.542969 235.304688 337.597656 L 235.519531 338.601562 C 235.980469 338.710938 236.417969 338.890625 236.816406 339.140625 L 237.683594 338.582031 C 237.734375 338.550781 237.796875 338.558594 237.839844 338.601562 L 238.710938 339.472656 C 238.753906 339.515625 238.761719 339.578125 238.730469 339.628906 L 238.171875 340.496094 C 238.421875 340.894531 238.601562 341.332031 238.710938 341.789062 L 239.714844 342.007812 C 239.769531 342.019531 239.8125 342.070312 239.8125 342.132812 L 239.8125 343.367188 C 239.8125 343.429688 239.769531 343.480469 239.714844 343.492188 L 238.710938 343.710938 C 238.601562 344.167969 238.421875 344.605469 238.171875 345.003906 L 238.730469 345.871094 C 238.761719 345.921875 238.753906 345.980469 238.710938 346.027344 L 237.839844 346.898438 C 237.796875 346.941406 237.734375 346.949219 237.683594 346.917969 L 236.816406 346.363281 C 236.417969 346.609375 235.980469 346.792969 235.519531 346.898438 L 235.304688 347.902344 C 235.292969 347.957031 235.238281 348 235.179688 348 Z M 234.558594 345.753906 C 232.90625 345.753906 231.558594 344.40625 231.558594 342.746094 C 231.558594 341.09375 232.90625 339.746094 234.558594 339.746094 C 236.222656 339.746094 237.566406 341.09375 237.566406 342.746094 C 237.566406 344.40625 236.222656 345.753906 234.558594 345.753906 Z M 234.558594 345.753906 " fill-opacity="1" fill-rule="evenodd"/></g><path fill="#000000" d="M 232.835938 342.746094 L 233.496094 343.40625 C 233.648438 343.558594 233.539062 343.824219 233.316406 343.824219 C 233.257812 343.824219 233.195312 343.796875 233.144531 343.75 L 232.320312 342.925781 C 232.222656 342.828125 232.222656 342.671875 232.320312 342.574219 L 233.144531 341.746094 C 233.207031 341.683594 233.292969 341.65625 233.378906 341.683594 C 233.5625 341.730469 233.632812 341.953125 233.496094 342.09375 Z M 236.28125 342.746094 L 235.628906 342.09375 C 235.570312 342.035156 235.539062 341.945312 235.5625 341.859375 C 235.613281 341.683594 235.839844 341.609375 235.976562 341.746094 L 236.804688 342.574219 C 236.902344 342.671875 236.902344 342.828125 236.804688 342.925781 L 235.976562 343.75 C 235.933594 343.796875 235.871094 343.824219 235.800781 343.824219 C 235.585938 343.824219 235.476562 343.558594 235.628906 343.40625 Z M 236.28125 342.746094 " fill-opacity="1" fill-rule="evenodd"/><path fill="#000000" d="M 234.007812 343.953125 C 233.820312 343.953125 233.699219 343.75 233.792969 343.582031 L 234.898438 341.664062 C 234.949219 341.589844 235.019531 341.542969 235.113281 341.542969 C 235.296875 341.546875 235.425781 341.746094 235.328125 341.910156 L 234.222656 343.828125 C 234.179688 343.902344 234.09375 343.953125 234.007812 343.953125 Z M 234.007812 343.953125 " fill-opacity="1" fill-rule="evenodd"/><g clip-path="url(#328bae65e2)"><path fill="#000000" d="M 46.773438 202.925781 L 11.011719 202.925781 C 7.671875 202.925781 4.964844 205.632812 4.964844 208.976562 L 4.964844 258.769531 C 4.964844 262.109375 7.671875 264.820312 11.011719 264.820312 L 46.773438 264.820312 C 50.109375 264.820312 52.816406 262.109375 52.816406 258.769531 L 52.816406 208.976562 C 52.816406 205.632812 50.109375 202.925781 46.773438 202.925781 Z M 40.726562 252.71875 L 17.054688 252.71875 L 17.054688 215.027344 L 40.726562 215.027344 Z M 16.03125 160.117188 C 14.363281 157.222656 15.351562 153.523438 18.242188 151.851562 L 199.761719 46.929688 L 185.285156 44.425781 C 181.996094 43.855469 179.792969 40.722656 180.359375 37.429688 C 180.929688 34.136719 184.054688 31.929688 187.34375 32.5 L 218.265625 37.855469 C 220.035156 38.160156 221.574219 39.234375 222.472656 40.789062 C 223.367188 42.347656 223.527344 44.21875 222.910156 45.90625 L 212.078125 75.390625 C 211.183594 77.839844 208.867188 79.355469 206.40625 79.355469 C 205.714844 79.355469 205.011719 79.234375 204.320312 78.980469 C 201.1875 77.828125 199.582031 74.351562 200.734375 71.214844 L 205.804688 57.410156 L 24.289062 162.332031 C 23.335938 162.882812 22.296875 163.144531 21.269531 163.144531 C 19.183594 163.144531 17.152344 162.058594 16.03125 160.117188 Z M 284.699219 204.472656 L 284.699219 102.582031 C 284.699219 99.242188 281.992188 96.53125 278.65625 96.53125 L 242.894531 96.53125 C 239.558594 96.53125 236.851562 99.242188 236.851562 102.582031 L 236.851562 198.0625 C 226.714844 198.507812 216.859375 200.0625 207.40625 202.609375 L 207.40625 138.046875 C 207.40625 134.707031 204.699219 131.996094 201.359375 131.996094 L 165.601562 131.996094 C 162.261719 131.996094 159.554688 134.707031 159.554688 138.046875 L 159.554688 226.355469 C 148.199219 235.117188 138.25 245.625 130.109375 257.472656 L 130.109375 173.511719 C 130.109375 170.171875 127.40625 167.460938 124.066406 167.460938 L 88.304688 167.460938 C 84.96875 167.460938 82.261719 170.171875 82.261719 173.511719 L 82.261719 258.769531 C 82.261719 262.109375 84.96875 264.820312 88.304688 264.820312 L 124.066406 264.820312 C 124.566406 264.820312 125.046875 264.753906 125.507812 264.636719 C 113.195312 285.1875 106.105469 309.214844 106.105469 334.871094 C 106.105469 336.476562 106.742188 338.015625 107.875 339.152344 C 109.007812 340.285156 110.546875 340.921875 112.148438 340.921875 L 166.878906 340.921875 C 170.21875 340.921875 172.925781 338.210938 172.925781 334.871094 C 172.925781 296.246094 204.3125 264.820312 242.894531 264.820312 C 281.476562 264.820312 312.867188 296.246094 312.867188 334.871094 C 312.867188 338.214844 315.570312 340.921875 318.910156 340.921875 L 373.640625 340.921875 C 376.976562 340.921875 379.683594 338.214844 379.683594 334.871094 C 379.683594 273.949219 339.742188 222.199219 284.699219 204.472656 Z M 118.023438 252.71875 L 94.347656 252.71875 L 94.347656 179.5625 L 118.023438 179.5625 Z M 236.851562 252.9375 C 226.296875 253.710938 216.292969 256.492188 207.214844 260.898438 L 185.863281 223.871094 C 201.277344 215.902344 218.550781 211.050781 236.851562 210.171875 Z M 248.9375 210.171875 C 267.238281 211.050781 284.511719 215.902344 299.925781 223.871094 L 278.574219 260.898438 C 269.496094 256.492188 259.492188 253.710938 248.9375 252.9375 Z M 272.613281 108.632812 L 272.613281 201.1875 C 264.941406 199.480469 257.03125 198.417969 248.9375 198.0625 L 248.9375 108.632812 Z M 171.644531 144.097656 L 195.316406 144.097656 L 195.316406 206.472656 C 187.019531 209.566406 179.097656 213.441406 171.644531 218.011719 Z M 161.054688 328.820312 L 118.339844 328.820312 C 119.214844 310.5 124.0625 293.207031 132.023438 277.773438 L 169.007812 299.148438 C 164.605469 308.238281 161.828125 318.253906 161.054688 328.820312 Z M 175.070312 288.679688 L 138.082031 267.300781 C 147.730469 252.355469 160.476562 239.597656 175.402344 229.9375 L 196.757812 266.96875 C 188.246094 272.785156 180.878906 280.160156 175.070312 288.679688 Z M 289.03125 266.96875 L 310.386719 229.9375 C 325.3125 239.59375 338.0625 252.355469 347.707031 267.300781 L 310.71875 288.679688 C 304.910156 280.160156 297.542969 272.785156 289.03125 266.96875 Z M 324.734375 328.820312 C 323.960938 318.253906 321.183594 308.238281 316.78125 299.148438 L 353.765625 277.773438 C 361.726562 293.203125 366.574219 310.5 367.453125 328.820312 Z M 267.648438 301.53125 L 250.648438 318.554688 C 248.296875 317.429688 245.667969 316.796875 242.894531 316.796875 C 232.941406 316.796875 224.84375 324.90625 224.84375 334.871094 C 224.84375 344.835938 232.941406 352.945312 242.894531 352.945312 C 252.847656 352.945312 260.949219 344.835938 260.949219 334.871094 C 260.949219 332.09375 260.316406 329.464844 259.195312 327.109375 L 276.195312 310.089844 C 278.554688 307.726562 278.554688 303.894531 276.195312 301.535156 C 273.835938 299.171875 270.007812 299.167969 267.648438 301.53125 Z M 242.894531 340.84375 C 239.605469 340.84375 236.929688 338.164062 236.929688 334.871094 C 236.929688 331.578125 239.605469 328.898438 242.894531 328.898438 C 246.183594 328.898438 248.859375 331.578125 248.859375 334.871094 C 248.859375 338.164062 246.183594 340.84375 242.894531 340.84375 Z M 242.894531 340.84375 " fill-opacity="1" fill-rule="nonzero"/></g></svg>