<svg xmlns="http://www.w3.org/2000/svg" xmlns:xlink="http://www.w3.org/1999/xlink" width="500" zoomAndPan="magnify" viewBox="0 0 375 374.999991" height="500" preserveAspectRatio="xMidYMid meet" version="1.0"><defs><clipPath id="7e4d3665c8"><path d="M 135.054688 369.644531 L 145.554688 369.644531 L 145.554688 375 L 135.054688 375 Z M 135.054688 369.644531 " clip-rule="nonzero"/></clipPath></defs><g clip-path="url(#7e4d3665c8)"><path fill="#000000" d="M 140.921875 380.144531 L 139.6875 380.144531 C 139.625 380.144531 139.574219 380.101562 139.5625 380.046875 L 139.34375 379.039062 C 138.886719 378.933594 138.449219 378.753906 138.050781 378.503906 L 137.183594 379.0625 C 137.132812 379.09375 137.074219 379.085938 137.03125 379.042969 L 136.15625 378.164062 C 136.113281 378.128906 136.105469 378.058594 136.136719 378.011719 L 136.691406 377.144531 C 136.445312 376.742188 136.261719 376.3125 136.15625 375.851562 L 135.152344 375.636719 C 135.09375 375.625 135.054688 375.570312 135.054688 375.515625 L 135.054688 374.277344 C 135.054688 374.214844 135.09375 374.167969 135.152344 374.15625 L 136.15625 373.933594 C 136.261719 373.476562 136.445312 373.042969 136.691406 372.640625 L 136.136719 371.773438 C 136.105469 371.726562 136.113281 371.664062 136.15625 371.621094 L 137.03125 370.746094 C 137.074219 370.703125 137.132812 370.699219 137.183594 370.726562 L 138.050781 371.28125 C 138.449219 371.035156 138.886719 370.851562 139.34375 370.746094 L 139.5625 369.742188 C 139.574219 369.6875 139.625 369.644531 139.6875 369.644531 L 140.921875 369.644531 C 140.984375 369.644531 141.035156 369.6875 141.046875 369.742188 L 141.261719 370.746094 C 141.722656 370.859375 142.160156 371.035156 142.558594 371.289062 L 143.425781 370.726562 C 143.476562 370.699219 143.539062 370.703125 143.582031 370.746094 L 144.453125 371.621094 C 144.496094 371.664062 144.503906 371.726562 144.472656 371.773438 L 143.914062 372.640625 C 144.164062 373.042969 144.34375 373.476562 144.453125 373.933594 L 145.457031 374.15625 C 145.511719 374.167969 145.554688 374.214844 145.554688 374.277344 L 145.554688 375.515625 C 145.554688 375.574219 145.511719 375.625 145.457031 375.636719 L 144.453125 375.859375 C 144.34375 376.3125 144.164062 376.75 143.914062 377.148438 L 144.472656 378.015625 C 144.503906 378.066406 144.496094 378.128906 144.453125 378.171875 L 143.582031 379.042969 C 143.539062 379.085938 143.476562 379.09375 143.425781 379.0625 L 142.558594 378.507812 C 142.160156 378.753906 141.722656 378.941406 141.261719 379.042969 L 141.046875 380.046875 C 141.035156 380.101562 140.980469 380.144531 140.921875 380.144531 Z M 140.300781 377.902344 C 138.648438 377.902344 137.300781 376.554688 137.300781 374.890625 C 137.300781 373.238281 138.648438 371.890625 140.300781 371.890625 C 141.960938 371.890625 143.308594 373.238281 143.308594 374.890625 C 143.308594 376.554688 141.960938 377.902344 140.300781 377.902344 Z M 140.300781 377.902344 " fill-opacity="1" fill-rule="evenodd"/></g><path fill="#000000" d="M 138.578125 374.890625 L 139.238281 375.550781 C 139.390625 375.703125 139.28125 375.96875 139.058594 375.96875 C 138.996094 375.96875 138.9375 375.945312 138.886719 375.894531 L 138.0625 375.070312 C 137.964844 374.972656 137.964844 374.820312 138.0625 374.71875 L 138.886719 373.890625 C 138.949219 373.828125 139.035156 373.804688 139.121094 373.828125 C 139.304688 373.878906 139.375 374.097656 139.238281 374.242188 Z M 142.023438 374.890625 L 141.371094 374.242188 C 141.3125 374.179688 141.28125 374.09375 141.304688 374.007812 C 141.355469 373.828125 141.582031 373.753906 141.714844 373.890625 L 142.546875 374.71875 C 142.644531 374.820312 142.644531 374.972656 142.546875 375.070312 L 141.714844 375.894531 C 141.671875 375.945312 141.613281 375.96875 141.542969 375.96875 C 141.328125 375.96875 141.21875 375.703125 141.371094 375.550781 Z M 142.023438 374.890625 " fill-opacity="1" fill-rule="evenodd"/><path fill="#000000" d="M 139.75 376.097656 C 139.5625 376.097656 139.441406 375.894531 139.53125 375.730469 L 140.640625 373.808594 C 140.6875 373.734375 140.761719 373.6875 140.855469 373.6875 C 141.039062 373.691406 141.167969 373.890625 141.070312 374.054688 L 139.964844 375.976562 C 139.921875 376.050781 139.835938 376.097656 139.75 376.097656 Z M 139.75 376.097656 " fill-opacity="1" fill-rule="evenodd"/><path fill="#000000" d="M 112.5 325 L 175 325 L 175 312.5 L 112.5 312.5 L 112.5 325 " fill-opacity="1" fill-rule="nonzero"/><path fill="#000000" d="M 187.5 325 L 231.25 325 L 231.25 312.5 L 187.5 312.5 L 187.5 325 " fill-opacity="1" fill-rule="nonzero"/><path fill="#000000" d="M 131.25 275 L 112.5 275 L 112.5 287.5 L 131.25 287.5 L 131.25 275 " fill-opacity="1" fill-rule="nonzero"/><path fill="#000000" d="M 143.75 287.5 L 206.25 287.5 L 206.25 275 L 143.75 275 L 143.75 287.5 " fill-opacity="1" fill-rule="nonzero"/><path fill="#000000" d="M 162.5 237.5 L 112.5 237.5 L 112.5 250 L 162.5 250 L 162.5 237.5 " fill-opacity="1" fill-rule="nonzero"/><path fill="#000000" d="M 262.5 187.5 L 275 187.5 L 275 175 L 262.5 175 L 262.5 187.5 " fill-opacity="1" fill-rule="nonzero"/><path fill="#000000" d="M 275 137.5 L 237.5 137.5 L 237.5 150 L 275 150 L 275 137.5 " fill-opacity="1" fill-rule="nonzero"/><path fill="#000000" d="M 106.25 12.5 C 157.945312 12.5 200 54.554688 200 106.25 C 200 157.945312 157.945312 200 106.25 200 C 54.554688 200 12.5 157.945312 12.5 106.25 C 12.5 54.554688 54.554688 12.5 106.25 12.5 Z M 235.984375 56.25 C 236.496094 56.25 237 56.289062 237.5 56.351562 L 237.5 100 C 237.5 110.339844 245.910156 118.75 256.25 118.75 L 275 118.75 L 275 106.25 L 256.25 106.25 C 252.804688 106.25 250 103.445312 250 100 L 250 65.085938 L 296.335938 111.429688 C 298.699219 113.789062 300 116.929688 300 120.265625 L 300 253.660156 L 235.667969 189.332031 C 233.226562 186.890625 229.273438 186.890625 226.832031 189.332031 L 225 191.160156 L 221.335938 187.5 L 250 187.5 L 250 175 L 206.25 175 C 206.078125 175 205.90625 175.011719 205.742188 175.023438 L 195.125 164.410156 C 198.125 159.835938 200.789062 155.023438 203.070312 150 L 225 150 L 225 137.5 L 207.804688 137.5 C 210.855469 127.617188 212.5 117.121094 212.5 106.25 C 212.5 88.183594 207.960938 71.160156 199.976562 56.25 Z M 347.410156 318.75 L 318.75 347.410156 L 202.585938 231.25 L 231.25 202.585938 Z M 356.5625 327.902344 C 360.390625 331.730469 362.5 336.820312 362.5 342.234375 C 362.5 353.410156 353.410156 362.5 342.234375 362.5 C 336.820312 362.5 331.730469 360.390625 327.902344 356.5625 L 327.585938 356.25 L 356.25 327.585938 Z M 206.25 190.085938 L 216.160156 200 L 200 216.160156 L 190.085938 206.25 Z M 182.8125 195.847656 L 174.539062 187.578125 C 179.25 183.613281 183.613281 179.25 187.578125 174.542969 L 195.847656 182.8125 Z M 300 350 C 300 356.890625 294.390625 362.5 287.5 362.5 L 100 362.5 C 93.109375 362.5 87.5 356.890625 87.5 350 L 87.5 210.84375 C 93.589844 211.933594 99.851562 212.5 106.25 212.5 C 127.703125 212.5 147.6875 206.101562 164.40625 195.125 L 175.023438 205.738281 C 174.882812 207.503906 175.480469 209.320312 176.832031 210.667969 L 191.160156 225 L 189.332031 226.832031 C 186.890625 229.273438 186.890625 233.226562 189.332031 235.667969 L 191.160156 237.5 L 175 237.5 L 175 250 L 203.660156 250 L 228.660156 275 L 218.75 275 L 218.75 287.5 L 241.160156 287.5 L 266.160156 312.5 L 243.75 312.5 L 243.75 325 L 278.660156 325 L 300 346.335938 Z M 75 207.804688 L 75 350 C 75 363.785156 86.214844 375 100 375 L 287.5 375 C 298.621094 375 308.0625 367.699219 311.300781 357.640625 L 314.332031 360.667969 L 319.0625 365.402344 C 325.253906 371.589844 333.480469 375 342.234375 375 C 360.300781 375 375 360.300781 375 342.234375 C 375 333.480469 371.589844 325.253906 365.402344 319.0625 L 312.5 266.160156 L 312.5 120.265625 C 312.5 113.589844 309.898438 107.3125 305.179688 102.585938 L 253.660156 51.070312 C 248.941406 46.351562 242.660156 43.75 235.984375 43.75 L 192.117188 43.75 C 172.773438 17.25 141.492188 0 106.25 0 C 47.664062 0 0 47.664062 0 106.25 C 0 153.964844 31.617188 194.429688 75 207.804688 " fill-opacity="1" fill-rule="nonzero"/><path fill="#000000" d="M 106.25 37.5 C 130.335938 37.5 151.558594 49.949219 163.84375 68.75 L 81.25 68.75 C 67.464844 68.75 56.25 79.964844 56.25 93.75 L 56.25 153.382812 C 44.632812 141.066406 37.5 124.476562 37.5 106.25 C 37.5 68.339844 68.339844 37.5 106.25 37.5 Z M 175 106.25 C 175 108.355469 174.898438 110.441406 174.714844 112.5 L 137.5 112.5 L 137.5 125 L 172.402344 125 C 170.492188 131.722656 167.582031 138.03125 163.84375 143.75 L 87.5 143.75 L 87.5 156.25 L 153.382812 156.25 C 141.066406 167.867188 124.476562 175 106.25 175 C 92.425781 175 79.539062 170.894531 68.75 163.84375 L 68.75 93.75 C 68.75 86.859375 74.359375 81.25 81.25 81.25 L 170.292969 81.25 C 173.332031 89 175 97.433594 175 106.25 Z M 106.25 187.5 C 151.054688 187.5 187.5 151.054688 187.5 106.25 C 187.5 61.445312 151.054688 25 106.25 25 C 61.449219 25 25 61.445312 25 106.25 C 25 151.054688 61.449219 187.5 106.25 187.5 " fill-opacity="1" fill-rule="nonzero"/><path fill="#000000" d="M 125 112.5 L 87.5 112.5 L 87.5 125 L 125 125 L 125 112.5 " fill-opacity="1" fill-rule="nonzero"/></svg>