<svg xmlns="http://www.w3.org/2000/svg" xmlns:xlink="http://www.w3.org/1999/xlink" width="500" zoomAndPan="magnify" viewBox="0 0 375 374.999991" height="500" preserveAspectRatio="xMidYMid meet" version="1.0"><defs><clipPath id="152c508026"><path d="M 187.5 337.5 L 198 337.5 L 198 348 L 187.5 348 Z M 187.5 337.5 " clip-rule="nonzero"/></clipPath><clipPath id="71ca73b2ee"><path d="M 118 244 L 266 244 L 266 368.578125 L 118 368.578125 Z M 118 244 " clip-rule="nonzero"/></clipPath><clipPath id="90ba721030"><path d="M 39 6.328125 L 158 6.328125 L 158 135 L 39 135 Z M 39 6.328125 " clip-rule="nonzero"/></clipPath></defs><g clip-path="url(#152c508026)"><path fill="#000000" d="M 193.367188 348 L 192.132812 348 C 192.070312 348 192.019531 347.957031 192.007812 347.902344 L 191.789062 346.894531 C 191.332031 346.789062 190.894531 346.609375 190.496094 346.359375 L 189.628906 346.917969 C 189.578125 346.949219 189.515625 346.941406 189.472656 346.898438 L 188.601562 346.019531 C 188.558594 345.980469 188.550781 345.914062 188.582031 345.867188 L 189.136719 345 C 188.890625 344.597656 188.707031 344.167969 188.601562 343.707031 L 187.597656 343.492188 C 187.535156 343.480469 187.5 343.421875 187.5 343.367188 L 187.5 342.132812 C 187.5 342.070312 187.535156 342.019531 187.597656 342.007812 L 188.601562 341.789062 C 188.707031 341.332031 188.890625 340.894531 189.136719 340.496094 L 188.582031 339.628906 C 188.550781 339.578125 188.558594 339.515625 188.601562 339.472656 L 189.472656 338.601562 C 189.515625 338.558594 189.578125 338.550781 189.628906 338.582031 L 190.496094 339.136719 C 190.894531 338.890625 191.332031 338.707031 191.789062 338.601562 L 192.007812 337.597656 C 192.019531 337.542969 192.070312 337.5 192.132812 337.5 L 193.367188 337.5 C 193.429688 337.5 193.480469 337.542969 193.492188 337.597656 L 193.707031 338.601562 C 194.167969 338.710938 194.605469 338.890625 195.003906 339.140625 L 195.871094 338.582031 C 195.921875 338.550781 195.980469 338.558594 196.027344 338.601562 L 196.898438 339.472656 C 196.941406 339.515625 196.949219 339.578125 196.917969 339.628906 L 196.359375 340.496094 C 196.609375 340.894531 196.789062 341.332031 196.898438 341.789062 L 197.902344 342.007812 C 197.957031 342.019531 198 342.070312 198 342.132812 L 198 343.367188 C 198 343.429688 197.957031 343.480469 197.902344 343.492188 L 196.898438 343.710938 C 196.789062 344.167969 196.609375 344.605469 196.359375 345.003906 L 196.917969 345.871094 C 196.949219 345.921875 196.941406 345.980469 196.898438 346.027344 L 196.027344 346.898438 C 195.980469 346.941406 195.921875 346.949219 195.871094 346.917969 L 195.003906 346.363281 C 194.605469 346.609375 194.167969 346.792969 193.707031 346.898438 L 193.492188 347.902344 C 193.480469 347.957031 193.421875 348 193.367188 348 Z M 192.746094 345.753906 C 191.09375 345.753906 189.746094 344.40625 189.746094 342.746094 C 189.746094 341.09375 191.09375 339.746094 192.746094 339.746094 C 194.40625 339.746094 195.753906 341.09375 195.753906 342.746094 C 195.753906 344.40625 194.40625 345.753906 192.746094 345.753906 Z M 192.746094 345.753906 " fill-opacity="1" fill-rule="evenodd"/></g><path fill="#000000" d="M 191.023438 342.746094 L 191.683594 343.40625 C 191.835938 343.558594 191.726562 343.824219 191.503906 343.824219 C 191.441406 343.824219 191.382812 343.796875 191.332031 343.75 L 190.507812 342.925781 C 190.410156 342.828125 190.410156 342.671875 190.507812 342.574219 L 191.332031 341.746094 C 191.394531 341.683594 191.480469 341.65625 191.566406 341.683594 C 191.75 341.730469 191.816406 341.953125 191.683594 342.09375 Z M 194.46875 342.746094 L 193.816406 342.09375 C 193.753906 342.035156 193.726562 341.945312 193.75 341.859375 C 193.796875 341.683594 194.027344 341.609375 194.160156 341.746094 L 194.992188 342.574219 C 195.089844 342.671875 195.089844 342.828125 194.992188 342.925781 L 194.160156 343.75 C 194.117188 343.796875 194.058594 343.824219 193.988281 343.824219 C 193.773438 343.824219 193.664062 343.558594 193.816406 343.40625 Z M 194.46875 342.746094 " fill-opacity="1" fill-rule="evenodd"/><path fill="#000000" d="M 192.191406 343.953125 C 192.007812 343.953125 191.886719 343.75 191.976562 343.582031 L 193.085938 341.664062 C 193.132812 341.589844 193.207031 341.542969 193.300781 341.542969 C 193.484375 341.546875 193.613281 341.746094 193.515625 341.910156 L 192.410156 343.828125 C 192.367188 343.902344 192.28125 343.953125 192.191406 343.953125 Z M 192.191406 343.953125 " fill-opacity="1" fill-rule="evenodd"/><path fill="#000000" d="M 163.058594 254.636719 C 164.308594 252.847656 163.875 250.382812 162.085938 249.132812 L 142.652344 235.527344 C 140.863281 234.273438 138.394531 234.707031 137.144531 236.496094 L 96.316406 294.789062 C 95.0625 296.578125 95.5 299.042969 97.289062 300.292969 C 99.078125 301.546875 101.542969 301.113281 102.792969 299.324219 L 141.351562 244.269531 L 157.550781 255.609375 C 159.339844 256.859375 161.804688 256.425781 163.058594 254.636719 Z M 163.058594 254.636719 " fill-opacity="1" fill-rule="nonzero"/><path fill="#000000" d="M 139.726562 267.273438 C 142.410156 269.152344 146.109375 268.5 147.988281 265.816406 C 149.867188 263.132812 149.214844 259.433594 146.53125 257.554688 C 143.847656 255.675781 140.148438 256.328125 138.269531 259.011719 C 136.390625 261.695312 137.042969 265.394531 139.726562 267.273438 Z M 139.726562 267.273438 " fill-opacity="1" fill-rule="nonzero"/><path fill="#000000" d="M 88.425781 288.375 C 88.773438 288.113281 89.066406 287.808594 89.300781 287.472656 C 90.253906 286.113281 90.277344 284.246094 89.230469 282.839844 C 87.921875 281.089844 85.445312 280.730469 83.695312 282.039062 C 83.621094 282.09375 75.375 286.996094 56.132812 273.523438 L 12.761719 243.164062 L 12.4375 242.9375 C 9.757812 241.0625 9.105469 237.355469 10.980469 234.679688 C 12.855469 232 16.5625 231.347656 19.242188 233.222656 C 19.375 233.316406 19.511719 233.398438 19.652344 233.472656 L 31.09375 241.480469 C 32.882812 242.730469 35.347656 242.296875 36.601562 240.507812 C 37.851562 238.71875 37.417969 236.253906 35.628906 235.003906 L 13.957031 219.832031 C 13.824219 219.738281 13.683594 219.65625 13.542969 219.582031 L 13.085938 219.261719 C 10.410156 217.386719 9.753906 213.679688 11.628906 211.003906 C 13.507812 208.324219 17.210938 207.671875 19.890625 209.546875 C 20.050781 209.65625 20.21875 209.75 20.386719 209.835938 L 39.203125 223.007812 C 40.992188 224.261719 43.457031 223.828125 44.707031 222.039062 C 45.960938 220.25 45.527344 217.785156 43.738281 216.53125 L 16.679688 197.589844 C 16.5625 197.507812 16.4375 197.433594 16.316406 197.363281 C 13.035156 194.792969 12.292969 190.066406 14.710938 186.617188 C 16.902344 183.484375 20.609375 181.09375 24.429688 183.765625 C 24.429688 183.769531 24.433594 183.769531 24.433594 183.769531 L 49.546875 201.347656 C 51.335938 202.601562 53.800781 202.167969 55.050781 200.378906 C 56.304688 198.589844 55.871094 196.125 54.082031 194.871094 L 35.785156 182.0625 C 35.78125 182.0625 35.777344 182.054688 35.769531 182.050781 L 26.695312 175.699219 C 23.128906 173.195312 22.257812 168.261719 24.757812 164.691406 C 27.257812 161.121094 32.199219 160.25 35.773438 162.75 L 69.105469 186.082031 C 69.234375 186.203125 69.371094 186.320312 69.519531 186.421875 C 82.117188 195.242188 92.9375 198.636719 101.679688 196.515625 C 104.238281 195.894531 106.28125 194.882812 107.878906 193.789062 C 109.421875 197.691406 111.492188 203.332031 113.21875 209.414062 C 118.519531 228.054688 116.316406 235.113281 114.535156 237.660156 C 113.28125 239.449219 113.714844 241.914062 115.503906 243.167969 C 117.292969 244.417969 119.757812 243.984375 121.011719 242.195312 C 125.613281 235.625 125.550781 223.867188 120.828125 207.253906 C 117.484375 195.492188 113.042969 185.566406 112.855469 185.152344 C 112.222656 183.75 110.867188 182.777344 109.332031 182.757812 C 107.804688 182.738281 106.433594 183.535156 105.761719 184.90625 C 105.554688 185.246094 103.8125 187.941406 99.597656 188.882812 C 95.261719 189.851562 87.460938 189.144531 74.789062 180.449219 C 74.667969 180.339844 74.542969 180.234375 74.40625 180.140625 L 40.308594 156.273438 C 33.164062 151.273438 23.28125 153.015625 18.28125 160.15625 C 15.039062 164.78125 14.628906 170.554688 16.683594 175.40625 C 13.527344 176.484375 10.574219 178.738281 8.234375 182.082031 C 3.796875 188.417969 4.667969 196.90625 9.90625 202.234375 C 8.070312 203.222656 6.429688 204.644531 5.152344 206.46875 C 0.777344 212.71875 2.300781 221.363281 8.550781 225.738281 L 9 226.050781 C 7.265625 227.035156 5.71875 228.40625 4.503906 230.144531 C 0.125 236.394531 1.648438 245.039062 7.902344 249.414062 L 8.226562 249.640625 L 51.59375 280.003906 C 75.691406 296.871094 87.191406 289.292969 88.425781 288.375 Z M 88.425781 288.375 " fill-opacity="1" fill-rule="nonzero"/><path fill="#000000" d="M 255.171875 225.007812 C 256.914062 223.695312 257.265625 221.214844 255.949219 219.472656 C 254.636719 217.730469 252.15625 217.378906 250.414062 218.695312 L 231.464844 232.96875 C 229.722656 234.285156 229.371094 236.761719 230.6875 238.507812 L 273.523438 295.339844 C 274.835938 297.082031 277.316406 297.429688 279.0625 296.117188 C 279.402344 295.859375 279.6875 295.558594 279.921875 295.226562 C 280.878906 293.859375 280.894531 291.984375 279.839844 290.578125 L 239.382812 236.90625 Z M 255.171875 225.007812 " fill-opacity="1" fill-rule="nonzero"/><path fill="#000000" d="M 263.121094 240.824219 C 263.121094 241.214844 263.085938 241.601562 263.007812 241.980469 C 262.933594 242.363281 262.820312 242.734375 262.671875 243.09375 C 262.523438 243.453125 262.339844 243.796875 262.125 244.121094 C 261.90625 244.445312 261.660156 244.742188 261.386719 245.019531 C 261.109375 245.292969 260.808594 245.539062 260.488281 245.753906 C 260.164062 245.972656 259.820312 246.15625 259.460938 246.304688 C 259.101562 246.453125 258.730469 246.566406 258.347656 246.640625 C 257.964844 246.71875 257.582031 246.753906 257.191406 246.753906 C 256.800781 246.753906 256.414062 246.71875 256.035156 246.640625 C 255.652344 246.566406 255.28125 246.453125 254.921875 246.304688 C 254.5625 246.15625 254.21875 245.972656 253.894531 245.753906 C 253.570312 245.539062 253.273438 245.292969 252.996094 245.019531 C 252.722656 244.742188 252.476562 244.445312 252.257812 244.121094 C 252.042969 243.796875 251.859375 243.453125 251.710938 243.09375 C 251.5625 242.734375 251.449219 242.363281 251.375 241.980469 C 251.296875 241.601562 251.257812 241.214844 251.257812 240.824219 C 251.257812 240.4375 251.296875 240.050781 251.375 239.667969 C 251.449219 239.285156 251.5625 238.914062 251.710938 238.554688 C 251.859375 238.195312 252.042969 237.855469 252.257812 237.53125 C 252.476562 237.207031 252.722656 236.90625 252.996094 236.632812 C 253.273438 236.355469 253.570312 236.109375 253.894531 235.894531 C 254.21875 235.679688 254.5625 235.496094 254.921875 235.347656 C 255.28125 235.199219 255.652344 235.085938 256.035156 235.007812 C 256.414062 234.933594 256.800781 234.894531 257.191406 234.894531 C 257.582031 234.894531 257.964844 234.933594 258.347656 235.007812 C 258.730469 235.085938 259.101562 235.199219 259.460938 235.347656 C 259.820312 235.496094 260.164062 235.679688 260.488281 235.894531 C 260.808594 236.109375 261.109375 236.355469 261.386719 236.632812 C 261.660156 236.90625 261.90625 237.207031 262.125 237.53125 C 262.339844 237.855469 262.523438 238.195312 262.671875 238.554688 C 262.820312 238.914062 262.933594 239.285156 263.007812 239.667969 C 263.085938 240.050781 263.121094 240.4375 263.121094 240.824219 Z M 263.121094 240.824219 " fill-opacity="1" fill-rule="nonzero"/><g clip-path="url(#71ca73b2ee)"><path fill="#000000" d="M 259.96875 298.386719 C 257.898438 299.085938 256.792969 301.332031 257.492188 303.398438 C 257.523438 303.488281 259.636719 312.84375 240.878906 326.976562 L 198.277344 359.070312 C 197.011719 360.023438 195.449219 360.425781 193.882812 360.207031 C 192.3125 359.984375 190.925781 359.167969 189.972656 357.902344 C 188.003906 355.292969 188.523438 351.570312 191.132812 349.601562 L 191.136719 349.597656 C 191.269531 349.5 191.386719 349.394531 191.5 349.28125 L 202.65625 340.878906 C 202.996094 340.625 203.285156 340.324219 203.515625 339.992188 C 204.472656 338.625 204.492188 336.746094 203.433594 335.34375 C 202.121094 333.601562 199.640625 333.25 197.894531 334.566406 L 176.765625 350.484375 C 176.636719 350.582031 176.515625 350.6875 176.402344 350.800781 L 175.957031 351.132812 C 173.34375 353.101562 169.617188 352.578125 167.648438 349.96875 C 165.679688 347.355469 166.203125 343.632812 168.816406 341.664062 C 168.972656 341.546875 169.113281 341.417969 169.242188 341.285156 L 187.589844 327.464844 C 187.929688 327.207031 188.21875 326.90625 188.453125 326.574219 C 189.40625 325.207031 189.425781 323.328125 188.371094 321.925781 C 187.054688 320.183594 184.574219 319.835938 182.832031 321.148438 L 156.449219 341.023438 C 156.335938 341.109375 156.226562 341.203125 156.121094 341.300781 C 152.664062 343.625 147.9375 342.867188 145.402344 339.503906 C 143.96875 337.601562 143.21875 335.550781 143.289062 333.722656 C 143.355469 331.992188 144.167969 330.535156 145.695312 329.382812 L 170.179688 310.9375 C 170.523438 310.679688 170.808594 310.378906 171.042969 310.046875 C 172 308.679688 172.019531 306.800781 170.960938 305.398438 C 169.644531 303.65625 167.167969 303.308594 165.421875 304.621094 L 147.585938 318.058594 C 147.578125 318.0625 147.574219 318.066406 147.566406 318.070312 L 138.71875 324.738281 C 137.03125 326.003906 134.953125 326.539062 132.863281 326.246094 C 130.773438 325.953125 128.921875 324.863281 127.648438 323.175781 C 125.023438 319.695312 125.722656 314.726562 129.207031 312.101562 L 161.703125 287.621094 C 161.855469 287.535156 162.007812 287.441406 162.15625 287.332031 C 174.4375 278.078125 181.011719 268.839844 181.695312 259.871094 C 181.894531 257.25 181.5625 254.996094 181.015625 253.132812 C 185.203125 252.875 191.210938 252.648438 197.53125 252.886719 C 216.902344 253.605469 222.933594 257.882812 224.808594 260.363281 C 226.121094 262.109375 228.601562 262.457031 230.34375 261.144531 C 230.683594 260.886719 230.972656 260.585938 231.207031 260.253906 C 232.160156 258.886719 232.179688 257.007812 231.121094 255.605469 C 226.292969 249.199219 215.089844 245.625 197.824219 244.984375 C 185.605469 244.527344 174.789062 245.6875 174.335938 245.734375 C 172.832031 245.898438 171.554688 246.90625 171.042969 248.328125 C 170.53125 249.753906 170.875 251.34375 171.933594 252.425781 C 171.953125 252.449219 174.140625 254.902344 173.808594 259.269531 C 173.46875 263.726562 170.441406 270.992188 158.097656 280.476562 C 157.957031 280.558594 157.820312 280.644531 157.6875 280.746094 L 124.445312 305.789062 C 117.480469 311.035156 116.082031 320.972656 121.332031 327.933594 C 123.875 331.308594 127.578125 333.488281 131.761719 334.078125 C 132.976562 334.246094 134.1875 334.277344 135.378906 334.171875 C 135.433594 337.589844 136.734375 341.140625 139.085938 344.261719 C 143.738281 350.4375 152.078125 352.234375 158.765625 348.902344 C 159.148438 350.992188 160.015625 352.980469 161.332031 354.726562 C 165.925781 360.820312 174.621094 362.042969 180.714844 357.449219 L 181.152344 357.121094 C 181.550781 359.074219 182.375 360.96875 183.652344 362.660156 C 185.878906 365.613281 189.121094 367.523438 192.78125 368.035156 C 196.441406 368.550781 200.085938 367.609375 203.035156 365.386719 L 203.058594 365.367188 L 203.351562 365.148438 C 203.351562 365.148438 203.355469 365.148438 203.355469 365.144531 L 245.636719 333.292969 C 252.5625 328.074219 257.128906 323.238281 260.113281 318.980469 C 267.25 308.792969 265.332031 301.886719 264.984375 300.859375 C 264.28125 298.792969 262.035156 297.683594 259.96875 298.386719 Z M 259.96875 298.386719 " fill-opacity="1" fill-rule="nonzero"/></g><path fill="#000000" d="M 326.230469 119.542969 L 262.667969 141.421875 L 256.230469 122.734375 C 255.519531 120.667969 253.269531 119.570312 251.203125 120.28125 C 249.140625 120.992188 248.042969 123.242188 248.753906 125.308594 L 256.476562 147.734375 C 256.820312 148.726562 257.539062 149.542969 258.484375 150.003906 C 259.425781 150.460938 260.511719 150.527344 261.503906 150.1875 L 328.804688 127.019531 C 329.625 126.738281 330.292969 126.210938 330.757812 125.550781 C 331.457031 124.550781 331.6875 123.238281 331.257812 121.996094 C 330.546875 119.929688 328.296875 118.832031 326.230469 119.542969 Z M 326.230469 119.542969 " fill-opacity="1" fill-rule="nonzero"/><path fill="#000000" d="M 274.453125 120.367188 C 274.804688 120.535156 275.132812 120.734375 275.445312 120.96875 C 275.757812 121.203125 276.042969 121.464844 276.300781 121.757812 C 276.5625 122.046875 276.792969 122.359375 276.988281 122.695312 C 277.1875 123.03125 277.351562 123.382812 277.480469 123.75 C 277.609375 124.117188 277.699219 124.492188 277.753906 124.878906 C 277.808594 125.261719 277.824219 125.652344 277.804688 126.039062 C 277.78125 126.429688 277.722656 126.8125 277.625 127.1875 C 277.53125 127.566406 277.398438 127.929688 277.226562 128.28125 C 277.058594 128.628906 276.859375 128.960938 276.625 129.273438 C 276.390625 129.585938 276.128906 129.871094 275.835938 130.128906 C 275.546875 130.390625 275.234375 130.617188 274.898438 130.816406 C 274.5625 131.015625 274.210938 131.175781 273.84375 131.304688 C 273.476562 131.433594 273.101562 131.527344 272.714844 131.582031 C 272.328125 131.636719 271.941406 131.652344 271.554688 131.632812 C 271.164062 131.609375 270.78125 131.550781 270.40625 131.453125 C 270.027344 131.355469 269.664062 131.222656 269.3125 131.054688 C 268.960938 130.886719 268.628906 130.683594 268.320312 130.449219 C 268.007812 130.214844 267.722656 129.953125 267.460938 129.664062 C 267.203125 129.375 266.972656 129.0625 266.773438 128.726562 C 266.578125 128.390625 266.414062 128.039062 266.285156 127.671875 C 266.15625 127.304688 266.0625 126.929688 266.007812 126.542969 C 265.953125 126.15625 265.9375 125.769531 265.960938 125.382812 C 265.980469 124.992188 266.039062 124.609375 266.136719 124.234375 C 266.234375 123.855469 266.367188 123.492188 266.535156 123.140625 C 266.707031 122.789062 266.90625 122.457031 267.140625 122.148438 C 267.375 121.835938 267.636719 121.550781 267.925781 121.292969 C 268.21875 121.03125 268.53125 120.804688 268.867188 120.605469 C 269.199219 120.40625 269.550781 120.242188 269.917969 120.113281 C 270.289062 119.984375 270.664062 119.894531 271.050781 119.839844 C 271.433594 119.785156 271.820312 119.769531 272.210938 119.789062 C 272.601562 119.8125 272.984375 119.871094 273.359375 119.96875 C 273.738281 120.066406 274.101562 120.199219 274.453125 120.367188 Z M 274.453125 120.367188 " fill-opacity="1" fill-rule="nonzero"/><path fill="#000000" d="M 331.519531 144.75 C 331.519531 144.75 331.472656 144.753906 331.382812 144.75 C 331.480469 144.753906 341.152344 145.589844 348.816406 167.835938 L 366.050781 217.878906 C 366.050781 217.878906 366.050781 217.882812 366.050781 217.882812 L 366.179688 218.257812 C 366.695312 219.753906 366.597656 221.363281 365.902344 222.789062 C 365.210938 224.210938 364 225.277344 362.503906 225.792969 C 361.003906 226.308594 359.398438 226.210938 357.972656 225.519531 C 356.550781 224.824219 355.480469 223.617188 354.964844 222.121094 L 354.964844 222.117188 C 354.910156 221.964844 354.847656 221.816406 354.777344 221.671875 L 350.230469 208.472656 C 349.519531 206.410156 347.269531 205.3125 345.203125 206.023438 C 343.140625 206.730469 342.042969 208.980469 342.753906 211.046875 L 351.367188 236.054688 C 351.417969 236.210938 351.484375 236.359375 351.554688 236.503906 L 351.734375 237.027344 C 352.25 238.527344 352.152344 240.136719 351.457031 241.558594 C 350.761719 242.984375 349.554688 244.050781 348.058594 244.566406 C 344.964844 245.628906 341.582031 243.980469 340.519531 240.890625 C 340.453125 240.707031 340.375 240.53125 340.289062 240.363281 L 332.808594 218.652344 C 332.097656 216.585938 329.847656 215.488281 327.785156 216.199219 C 325.71875 216.910156 324.621094 219.160156 325.332031 221.226562 L 336.085938 252.449219 C 336.132812 252.589844 336.191406 252.722656 336.25 252.851562 C 336.785156 254.726562 336.621094 256.707031 335.761719 258.476562 C 334.835938 260.375 333.222656 261.796875 331.226562 262.484375 C 328.976562 263.261719 326.792969 263.339844 325.074219 262.707031 C 323.457031 262.109375 322.316406 260.894531 321.695312 259.089844 L 321.691406 259.078125 C 321.691406 259.078125 321.691406 259.078125 321.6875 259.078125 C 321.6875 259.078125 321.6875 259.078125 321.6875 259.074219 L 311.707031 230.097656 C 310.996094 228.035156 308.746094 226.9375 306.683594 227.648438 C 304.617188 228.355469 303.519531 230.605469 304.230469 232.671875 L 311.503906 253.785156 C 311.503906 253.792969 311.503906 253.796875 311.507812 253.804688 L 315.113281 264.269531 C 315.800781 266.269531 315.667969 268.414062 314.742188 270.308594 C 313.816406 272.210938 312.207031 273.632812 310.210938 274.320312 C 308.210938 275.007812 306.066406 274.875 304.167969 273.949219 C 302.269531 273.023438 300.84375 271.414062 300.15625 269.417969 L 286.910156 230.964844 C 286.878906 230.789062 286.832031 230.609375 286.773438 230.433594 C 281.765625 215.898438 275.007812 206.792969 266.6875 203.371094 C 264.257812 202.371094 262.007812 201.988281 260.070312 201.9375 C 261.117188 197.871094 262.757812 192.089844 264.9375 186.15625 C 271.609375 167.960938 277.539062 163.546875 280.480469 162.53125 C 282.546875 161.820312 283.644531 159.570312 282.933594 157.507812 C 282.222656 155.441406 279.972656 154.34375 277.90625 155.054688 C 270.320312 157.667969 263.457031 167.214844 257.511719 183.433594 C 253.300781 194.910156 251.0625 205.550781 250.96875 206 C 250.660156 207.480469 251.222656 209.007812 252.417969 209.933594 C 253.613281 210.859375 255.234375 211.023438 256.589844 210.351562 C 256.617188 210.335938 259.628906 209.015625 263.679688 210.683594 C 267.8125 212.382812 273.792969 217.507812 279 232.175781 C 279.035156 232.332031 279.074219 232.492188 279.128906 232.648438 L 292.679688 271.992188 C 294.054688 275.984375 296.902344 279.207031 300.699219 281.058594 C 304.5 282.910156 308.789062 283.171875 312.785156 281.796875 C 316.78125 280.421875 320 277.570312 321.851562 273.777344 C 322.386719 272.675781 322.792969 271.535156 323.058594 270.367188 C 326.324219 271.371094 330.109375 271.234375 333.800781 269.960938 C 337.796875 268.585938 341.019531 265.738281 342.867188 261.941406 C 344.292969 259.023438 344.777344 255.816406 344.300781 252.671875 C 346.367188 252.953125 348.527344 252.765625 350.632812 252.042969 C 354.128906 250.839844 356.945312 248.347656 358.566406 245.023438 C 360.1875 241.703125 360.417969 237.949219 359.210938 234.453125 L 359.035156 233.9375 C 361.015625 234.164062 363.074219 233.960938 365.078125 233.269531 C 367.871094 232.308594 370.234375 230.523438 371.894531 228.152344 C 372.3125 227.554688 372.6875 226.921875 373.011719 226.253906 C 374.632812 222.933594 374.863281 219.179688 373.660156 215.683594 L 373.53125 215.308594 L 356.292969 165.261719 C 346.71875 137.457031 332.957031 136.824219 331.417969 136.84375 Z M 331.519531 144.75 " fill-opacity="1" fill-rule="nonzero"/><path fill="#000000" d="M 283.972656 7.191406 L 283.578125 7.199219 C 283.578125 7.199219 283.578125 7.199219 283.574219 7.199219 L 230.640625 8.125 C 201.230469 8.636719 196.378906 21.523438 195.921875 22.992188 L 203.472656 25.339844 C 203.472656 25.339844 203.464844 25.386719 203.429688 25.46875 C 203.464844 25.378906 207.25 16.4375 230.777344 16.027344 L 283.714844 15.105469 L 284.113281 15.097656 C 287.382812 15.039062 290.089844 17.652344 290.144531 20.921875 C 290.171875 22.507812 289.582031 24.007812 288.480469 25.144531 C 287.382812 26.285156 285.90625 26.925781 284.324219 26.957031 L 284.316406 26.957031 C 284.15625 26.957031 283.996094 26.976562 283.835938 26.996094 L 269.875 27.242188 C 267.691406 27.277344 265.953125 29.078125 265.988281 31.261719 C 266.027344 33.445312 267.828125 35.183594 270.011719 35.144531 L 296.464844 34.683594 C 296.636719 34.683594 296.800781 34.667969 296.964844 34.644531 L 297.503906 34.632812 C 299.085938 34.605469 300.589844 35.195312 301.726562 36.296875 C 302.867188 37.398438 303.511719 38.875 303.539062 40.460938 C 303.566406 42.042969 302.972656 43.542969 301.875 44.683594 C 300.773438 45.820312 299.296875 46.464844 297.710938 46.492188 C 297.515625 46.496094 297.328125 46.519531 297.140625 46.546875 L 274.175781 46.949219 C 271.992188 46.984375 270.25 48.789062 270.289062 50.96875 C 270.328125 53.152344 272.128906 54.890625 274.3125 54.855469 L 307.339844 54.277344 C 307.476562 54.277344 307.613281 54.261719 307.75 54.246094 C 311.921875 54.390625 315.308594 57.78125 315.382812 62 C 315.425781 64.378906 314.820312 66.480469 313.695312 67.917969 C 312.625 69.277344 311.109375 69.980469 309.195312 70.015625 C 309.195312 70.015625 309.191406 70.015625 309.191406 70.015625 L 278.542969 70.550781 C 276.359375 70.585938 274.617188 72.386719 274.65625 74.570312 C 274.695312 76.753906 276.496094 78.492188 278.679688 78.457031 L 301.015625 78.066406 C 301.019531 78.066406 301.027344 78.066406 301.03125 78.066406 L 312.105469 77.875 C 314.21875 77.835938 316.214844 78.625 317.734375 80.089844 C 319.253906 81.558594 320.109375 83.527344 320.148438 85.640625 C 320.222656 90 316.738281 93.609375 312.378906 93.683594 L 271.695312 94.394531 C 271.515625 94.375 271.339844 94.359375 271.15625 94.363281 C 255.78125 94.632812 245.03125 98.242188 239.203125 105.097656 C 237.503906 107.097656 236.445312 109.117188 235.792969 110.945312 C 232.230469 108.679688 227.207031 105.308594 222.21875 101.386719 C 207.03125 89.453125 204.671875 82.464844 204.617188 79.363281 C 204.578125 77.179688 202.777344 75.441406 200.59375 75.476562 C 198.410156 75.515625 196.671875 77.316406 196.710938 79.5 C 196.847656 87.519531 203.8125 96.996094 217.402344 107.660156 C 227.019531 115.210938 236.449219 120.628906 236.847656 120.855469 C 238.160156 121.605469 239.789062 121.542969 241.039062 120.691406 C 242.289062 119.84375 242.941406 118.351562 242.726562 116.855469 C 242.722656 116.824219 242.394531 113.554688 245.230469 110.214844 C 248.125 106.808594 254.847656 102.707031 270.410156 102.289062 C 270.570312 102.308594 270.734375 102.316406 270.902344 102.316406 L 312.515625 101.589844 C 317.773438 101.496094 322.394531 98.835938 325.203125 94.828125 C 327.054688 92.1875 328.117188 88.960938 328.054688 85.5 C 327.957031 79.84375 324.882812 74.925781 320.355469 72.207031 C 320.359375 72.199219 320.367188 72.191406 320.371094 72.183594 C 322.328125 69.390625 323.359375 65.757812 323.292969 61.859375 C 323.15625 54.132812 317.464844 47.777344 310.097656 46.539062 C 311.019531 44.625 311.484375 42.507812 311.445312 40.320312 C 311.382812 36.625 309.882812 33.175781 307.222656 30.609375 C 304.5625 28.042969 301.0625 26.664062 297.367188 26.726562 L 296.828125 26.738281 C 297.667969 24.894531 298.089844 22.871094 298.054688 20.785156 C 297.921875 13.15625 291.605469 7.058594 283.972656 7.191406 Z M 283.972656 7.191406 " fill-opacity="1" fill-rule="nonzero"/><path fill="#000000" d="M 159.261719 90.121094 C 157.078125 90.160156 155.339844 91.960938 155.378906 94.144531 C 155.417969 96.328125 157.21875 98.066406 159.402344 98.027344 L 183.125 97.613281 C 184.441406 97.589844 185.59375 96.925781 186.296875 95.925781 C 186.757812 95.265625 187.023438 94.457031 187.007812 93.59375 L 185.765625 22.441406 C 185.726562 20.257812 183.925781 18.519531 181.742188 18.558594 C 179.558594 18.59375 177.820312 20.398438 177.859375 22.578125 L 179.03125 89.777344 Z M 159.261719 90.121094 " fill-opacity="1" fill-rule="nonzero"/><path fill="#000000" d="M 172.859375 76.039062 C 172.800781 72.761719 170.101562 70.15625 166.824219 70.210938 C 163.550781 70.269531 160.941406 72.96875 160.996094 76.246094 C 161.054688 79.519531 163.757812 82.128906 167.03125 82.070312 C 170.308594 82.011719 172.917969 79.3125 172.859375 76.039062 Z M 172.859375 76.039062 " fill-opacity="1" fill-rule="nonzero"/><path fill="#000000" d="M 105.296875 175.667969 C 105.527344 175.335938 105.714844 174.960938 105.839844 174.554688 L 112.773438 151.871094 C 113.082031 150.867188 112.976562 149.785156 112.484375 148.859375 C 111.992188 147.933594 111.152344 147.242188 110.148438 146.933594 L 42.078125 126.128906 C 39.992188 125.492188 37.78125 126.664062 37.140625 128.753906 C 36.503906 130.84375 37.679688 133.050781 39.765625 133.691406 L 104.054688 153.339844 L 98.273438 172.242188 C 97.636719 174.332031 98.8125 176.542969 100.898438 177.179688 C 102.582031 177.695312 104.339844 177.03125 105.296875 175.667969 Z M 105.296875 175.667969 " fill-opacity="1" fill-rule="nonzero"/><path fill="#000000" d="M 93.273438 160.632812 C 93.273438 161.023438 93.238281 161.410156 93.160156 161.789062 C 93.085938 162.171875 92.972656 162.542969 92.824219 162.902344 C 92.675781 163.261719 92.492188 163.605469 92.273438 163.929688 C 92.058594 164.25 91.8125 164.550781 91.539062 164.828125 C 91.261719 165.101562 90.960938 165.347656 90.636719 165.5625 C 90.316406 165.78125 89.972656 165.964844 89.613281 166.113281 C 89.253906 166.261719 88.882812 166.375 88.5 166.449219 C 88.117188 166.527344 87.734375 166.5625 87.34375 166.5625 C 86.953125 166.5625 86.566406 166.527344 86.1875 166.449219 C 85.804688 166.375 85.433594 166.261719 85.074219 166.113281 C 84.714844 165.964844 84.371094 165.78125 84.046875 165.5625 C 83.722656 165.347656 83.425781 165.101562 83.148438 164.828125 C 82.875 164.550781 82.628906 164.25 82.410156 163.929688 C 82.195312 163.605469 82.011719 163.261719 81.863281 162.902344 C 81.714844 162.542969 81.601562 162.171875 81.527344 161.789062 C 81.449219 161.410156 81.410156 161.023438 81.410156 160.632812 C 81.410156 160.246094 81.449219 159.859375 81.527344 159.476562 C 81.601562 159.09375 81.714844 158.722656 81.863281 158.363281 C 82.011719 158.003906 82.195312 157.664062 82.410156 157.339844 C 82.628906 157.015625 82.875 156.714844 83.148438 156.441406 C 83.425781 156.164062 83.722656 155.917969 84.046875 155.703125 C 84.371094 155.488281 84.714844 155.304688 85.074219 155.15625 C 85.433594 155.007812 85.804688 154.894531 86.1875 154.816406 C 86.566406 154.742188 86.953125 154.703125 87.34375 154.703125 C 87.734375 154.703125 88.117188 154.742188 88.5 154.816406 C 88.882812 154.894531 89.253906 155.007812 89.613281 155.15625 C 89.972656 155.304688 90.316406 155.488281 90.636719 155.703125 C 90.960938 155.917969 91.261719 156.164062 91.539062 156.441406 C 91.8125 156.714844 92.058594 157.015625 92.273438 157.339844 C 92.492188 157.664062 92.675781 158.003906 92.824219 158.363281 C 92.972656 158.722656 93.085938 159.09375 93.160156 159.476562 C 93.238281 159.859375 93.273438 160.246094 93.273438 160.632812 Z M 93.273438 160.632812 " fill-opacity="1" fill-rule="nonzero"/><g clip-path="url(#90ba721030)"><path fill="#000000" d="M 51.253906 115.699219 C 51.257812 115.695312 51.261719 115.6875 51.265625 115.683594 C 52.511719 113.902344 52.085938 111.445312 50.308594 110.1875 C 50.234375 110.132812 43.019531 103.808594 49.890625 81.347656 L 65.484375 30.351562 C 66.441406 27.222656 69.765625 25.460938 72.890625 26.414062 C 76.019531 27.371094 77.785156 30.691406 76.828125 33.820312 C 76.78125 33.976562 76.746094 34.132812 76.71875 34.289062 L 72.636719 47.640625 C 72 49.726562 73.175781 51.9375 75.261719 52.578125 C 76.941406 53.089844 78.703125 52.429688 79.660156 51.066406 C 79.890625 50.734375 80.074219 50.359375 80.199219 49.953125 L 87.933594 24.65625 C 87.984375 24.5 88.019531 24.34375 88.046875 24.1875 L 88.207031 23.65625 C 89.164062 20.527344 92.488281 18.761719 95.613281 19.71875 C 98.742188 20.675781 100.511719 23.996094 99.554688 27.121094 C 99.496094 27.308594 99.460938 27.496094 99.429688 27.679688 L 92.714844 49.640625 C 92.074219 51.730469 93.25 53.941406 95.339844 54.578125 C 97.019531 55.09375 98.78125 54.433594 99.734375 53.066406 C 99.96875 52.734375 100.152344 52.363281 100.277344 51.953125 L 109.933594 20.375 C 109.976562 20.234375 110.011719 20.09375 110.039062 19.953125 C 110.707031 18.121094 112.003906 16.613281 113.742188 15.691406 C 115.605469 14.699219 117.746094 14.492188 119.765625 15.113281 C 123.421875 16.230469 126.84375 19.011719 125.480469 23.472656 L 116.515625 52.785156 C 115.878906 54.871094 117.050781 57.082031 119.140625 57.71875 C 120.820312 58.234375 122.582031 57.574219 123.539062 56.207031 C 123.769531 55.875 123.953125 55.503906 124.078125 55.09375 L 130.609375 33.746094 C 130.609375 33.738281 130.613281 33.730469 130.617188 33.722656 L 133.855469 23.128906 C 135.136719 18.964844 139.558594 16.613281 143.726562 17.886719 C 145.75 18.503906 147.40625 19.871094 148.398438 21.738281 C 149.390625 23.601562 149.597656 25.742188 148.980469 27.761719 L 137.082031 66.660156 C 137.007812 66.824219 136.941406 66.988281 136.886719 67.164062 C 132.390625 81.867188 132.503906 93.203125 137.222656 100.859375 C 138.601562 103.097656 140.195312 104.730469 141.734375 105.910156 C 138.496094 108.582031 133.769531 112.296875 128.519531 115.816406 C 112.421875 126.617188 105.027344 126.703125 102.054688 125.796875 C 99.964844 125.15625 97.753906 126.332031 97.117188 128.417969 C 96.476562 130.507812 97.652344 132.71875 99.742188 133.355469 C 107.414062 135.703125 118.578125 132.007812 132.925781 122.382812 C 143.078125 115.570312 151.148438 108.277344 151.488281 107.972656 C 151.722656 107.757812 151.929688 107.523438 152.109375 107.269531 C 152.792969 106.289062 153.039062 105.046875 152.675781 103.882812 C 152.222656 102.421875 151.039062 101.367188 149.527344 101.152344 C 149.144531 101.0625 146.039062 100.238281 143.839844 96.519531 C 141.578125 92.699219 139.84375 85.0625 144.195312 70.328125 C 144.261719 70.179688 144.324219 70.023438 144.371094 69.863281 L 156.539062 30.070312 C 157.777344 26.03125 157.363281 21.753906 155.378906 18.023438 C 153.398438 14.292969 150.078125 11.558594 146.039062 10.324219 C 140.628906 8.671875 134.996094 10.074219 131.011719 13.539062 C 128.960938 10.804688 125.816406 8.691406 122.078125 7.550781 C 118.035156 6.3125 113.757812 6.726562 110.027344 8.710938 C 107.160156 10.234375 104.882812 12.542969 103.417969 15.367188 C 101.910156 13.925781 100.054688 12.804688 97.925781 12.15625 C 90.628906 9.925781 82.875 14.046875 80.644531 21.34375 L 80.484375 21.863281 C 79.015625 20.519531 77.230469 19.472656 75.203125 18.851562 C 67.902344 16.621094 60.152344 20.742188 57.917969 28.039062 L 57.847656 28.273438 L 42.324219 79.035156 C 33.722656 107.160156 44.484375 115.753906 45.742188 116.640625 C 47.527344 117.90625 49.992188 117.480469 51.253906 115.699219 Z M 51.253906 115.699219 " fill-opacity="1" fill-rule="nonzero"/></g></svg>